<svg width="199" height="198" fill="none" xmlns="http://www.w3.org/2000/svg"><path fill="#F5F5F5" d="M0 0h199v198H0z"/><g clip-path="url(#clip0_0_1)"><path fill="#fff" d="M-7-1454h1440v4094H-7z"/><path d="M1 98.917C1 52.758 1 29.679 16.377 15.34 31.754 1 56.503 1 106 1c49.497 0-2.754 11.501 12.623 25.84C134 41.18 134 64.26 134 110.419s77 57.736 61.623 72.076c-15.377 14.339-40.126 14.339-89.623 14.339-49.498 0-74.246 0-89.623-14.339C1 168.154 1 145.075 1 98.917z" stroke="#6B6B6B" stroke-width="1.5"/></g><defs><clipPath id="clip0_0_1"><path fill="#fff" transform="translate(-7 -1454)" d="M0 0h1440v4094H0z"/></clipPath></defs></svg>