<svg width="103" height="22" fill="none" xmlns="http://www.w3.org/2000/svg"><g clip-path="url(#clip0_616_185)" fill="#fff"><path d="M45.293 20.019c-1.554 0-2.888-.275-4.002-.824-1.115-.55-2.025-1.264-2.731-2.143a9.068 9.068 0 01-1.53-2.871c-.33-1.036-.495-2.033-.495-2.99v-.518c0-1.067.165-2.119.495-3.155a8.651 8.651 0 011.577-2.825c.706-.847 1.6-1.522 2.684-2.024 1.098-.518 2.393-.777 3.884-.777 1.554 0 2.903.282 4.049.847 1.161.55 2.087 1.334 2.778 2.355.69 1.004 1.106 2.181 1.247 3.53h-3.366c-.125-.784-.408-1.443-.847-1.977a3.823 3.823 0 00-1.625-1.224C46.752 5.141 46.007 5 45.175 5c-.848 0-1.6.15-2.26.448-.66.282-1.209.69-1.648 1.224a5.715 5.715 0 00-1.012 1.883c-.22.722-.33 1.522-.33 2.401 0 .848.11 1.633.33 2.354.235.722.58 1.358 1.036 1.907.455.534 1.012.95 1.671 1.248.675.298 1.452.447 2.33.447 1.288 0 2.37-.314 3.25-.941.894-.644 1.435-1.538 1.624-2.684h3.366a7.823 7.823 0 01-1.248 3.366c-.675 1.02-1.6 1.837-2.777 2.449-1.178.612-2.582.918-4.214.918zm9.789-.447V2.386h3.272v17.186h-3.272zM53.48 4.835V2.386h4.873v2.449H53.48zm13.577 15.184c-1.13 0-2.127-.18-2.99-.542-.863-.36-1.593-.847-2.19-1.46a6.626 6.626 0 01-1.365-2.118 6.835 6.835 0 01-.447-2.448v-.495c0-.878.157-1.71.47-2.495a6.62 6.62 0 011.39-2.119 6.33 6.33 0 012.213-1.46c.863-.36 1.836-.54 2.919-.54 1.082 0 2.056.18 2.919.54a6.095 6.095 0 012.19 1.46 6.134 6.134 0 011.388 2.119c.314.785.47 1.617.47 2.495v.495c0 .847-.156 1.663-.47 2.448a6.305 6.305 0 01-1.342 2.119c-.596.612-1.326 1.098-2.19 1.46-.862.36-1.851.54-2.965.54zm0-2.802c.8 0 1.475-.172 2.024-.518.55-.36.965-.84 1.248-1.436.282-.612.424-1.302.424-2.071 0-.785-.15-1.476-.448-2.072a3.23 3.23 0 00-1.27-1.436c-.55-.36-1.21-.541-1.978-.541-.77 0-1.436.18-2.001.541a3.43 3.43 0 00-1.272 1.436c-.298.597-.447 1.287-.447 2.072 0 .769.141 1.46.424 2.071a3.628 3.628 0 001.271 1.436c.55.346 1.224.518 2.025.518zm13.011 2.755c-1.475 0-2.62-.487-3.437-1.46-.8-.973-1.2-2.417-1.2-4.332V6.766h3.272v7.698c0 .785.22 1.413.66 1.883.439.455 1.035.683 1.788.683.754 0 1.366-.243 1.836-.73.487-.486.73-1.146.73-1.977V6.765h3.273v12.806H84.4v-5.438h.259c0 1.287-.165 2.362-.495 3.226-.33.863-.823 1.514-1.483 1.953-.659.44-1.483.66-2.471.66h-.142zm14.8.023a6.1 6.1 0 01-2.472-.494 5.77 5.77 0 01-1.954-1.39 6.36 6.36 0 01-1.271-2.07 7.359 7.359 0 01-.447-2.59v-.495c0-.91.14-1.765.423-2.566a6.76 6.76 0 011.224-2.095 5.588 5.588 0 011.907-1.389c.754-.345 1.585-.518 2.496-.518 1.004 0 1.883.22 2.636.66.77.423 1.381 1.067 1.837 1.93.455.863.706 1.946.753 3.249l-.965-1.13v-8.71h3.272V19.57h-2.59v-5.438h.566c-.048 1.303-.314 2.394-.801 3.273-.487.863-1.13 1.514-1.93 1.954-.785.423-1.68.635-2.684.635zm.73-2.754c.643 0 1.232-.141 1.765-.424a3.298 3.298 0 001.272-1.271c.329-.565.494-1.224.494-1.978v-.941c0-.754-.165-1.381-.495-1.884a3.22 3.22 0 00-1.294-1.177 3.666 3.666 0 00-1.742-.423c-.707 0-1.334.172-1.884.518-.533.33-.957.8-1.27 1.412-.3.612-.448 1.326-.448 2.142 0 .816.157 1.53.47 2.143a3.529 3.529 0 001.272 1.389c.55.33 1.17.494 1.86.494zm-71.391 4.137c-1.13 0-1.827-.521-2.966-1.136-1.138-.615-4.429-3.09-4.429-6.17 0-2.091-.539-3.781-1.456-5.129-.911-1.337-2.145-2.263-3.428-2.917a13.744 13.744 0 00-1.903-.785c-.374-.124-.59-.525-.429-.884a6.552 6.552 0 0112.145 4.9 6.552 6.552 0 0110.208 5.437c0 4.357-3.828 6.684-7.742 6.684z"/><path d="M.283 14.149c0 3.454 2.277 6.33 5.293 6.967.466.17.968.262 1.493.262h10.179c.341 0 .49-.456.23-.677-1.78-1.505-3.102-3.626-3.102-6.63 0-1.65-.418-2.853-1.034-3.756-.622-.914-1.498-1.598-2.52-2.118-1.031-.525-2.15-.86-3.22-1.097a6.129 6.129 0 00-.767-.048c-3.619 0-6.552 3.177-6.552 7.097z"/></g><defs><clipPath id="clip0_616_185"><path fill="#fff" transform="translate(0 .5)" d="M0 0h103v21H0z"/></clipPath></defs></svg>