<svg width="81" height="26" fill="none" xmlns="http://www.w3.org/2000/svg"><g clip-path="url(#clip0_616_193)" fill="#fff"><path d="M20.33 21.415c.103 2.069-1.843 3.847-4.347 3.971-2.504.125-4.617-1.45-4.72-3.519-.103-2.068 1.843-3.846 4.347-3.971 2.504-.125 4.617 1.451 4.72 3.52zm-8.902-4.158c.056 1.12-.516 2.059-1.278 2.096-.762.038-1.425-.838-1.481-1.958-.056-1.12.517-2.059 1.279-2.096.762-.038 1.425.839 1.48 1.958zm3.436-2.429c.056 1.12-.516 2.058-1.278 2.096-.763.038-1.425-.839-1.481-1.959-.056-1.12.517-2.058 1.279-2.096.762-.038 1.425.84 1.48 1.959zm3.549-.177c.056 1.12-.517 2.058-1.279 2.096-.762.038-1.425-.839-1.48-1.958-.056-1.12.516-2.059 1.279-2.097.762-.038 1.425.84 1.48 1.96zm3.661 2.076c.056 1.12-.517 2.058-1.279 2.096-.762.038-1.425-.839-1.48-1.958-.056-1.12.516-2.059 1.278-2.096.762-.038 1.425.838 1.48 1.958zM8.502 11.85c-1.178 1.704-3.805 1.929-5.867.503-2.062-1.426-2.778-3.963-1.6-5.666C2.213 4.983 4.839 4.759 6.9 6.185s2.779 3.962 1.6 5.666zM3.974 3.132c-.638.922-1.663 1.317-2.29.883-.628-.434-.62-1.533.018-2.455C2.339.638 3.365.242 3.992.676c.628.434.62 1.533-.018 2.456zm4.204.165c-.638.922-1.663 1.318-2.29.884-.628-.434-.62-1.534.018-2.456C6.543.803 7.569.408 8.196.842c.628.434.62 1.533-.018 2.455zM11.1 5.318c-.637.922-1.663 1.318-2.29.884-.628-.434-.62-1.534.018-2.456.638-.922 1.663-1.317 2.29-.883.628.434.62 1.533-.018 2.455zm1.64 3.876c-.639.922-1.664 1.317-2.292.883-.627-.434-.62-1.533.019-2.455.637-.922 1.663-1.318 2.29-.884.628.434.62 1.534-.018 2.456zm16.163 11.211c-.988-.486-1.795-1.12-2.42-1.899a8.477 8.477 0 01-1.4-2.546 8.79 8.79 0 01-.438-2.671v-.46c0-.946.153-1.878.46-2.796a7.63 7.63 0 011.398-2.526 6.92 6.92 0 012.4-1.794c.974-.46 2.122-.69 3.444-.69 1.377 0 2.595.258 3.652.773 1.058.515 1.9 1.231 2.526 2.15.64.904 1.016 1.968 1.127 3.193h-3.444c-.097-.612-.32-1.134-.668-1.565a3.428 3.428 0 00-1.356-1.002c-.543-.237-1.155-.355-1.837-.355-.682 0-1.287.118-1.816.355-.528.236-.974.57-1.336 1.002a4.235 4.235 0 00-.4.592l-.036.065a5.382 5.382 0 00-.292.642 6.22 6.22 0 00-.085.245 6.613 6.613 0 00-.272 1.962c0 .71.09 1.363.271 1.962l.067.189.036.092c.186.47.43.89.732 1.263a3.83 3.83 0 001.378 1.002c.542.223 1.162.334 1.857.334 1.058 0 1.948-.258 2.672-.772.737-.515 1.182-1.225 1.335-2.13h3.423a6.787 6.787 0 01-1.127 3.069c-.612.918-1.454 1.655-2.525 2.212-1.057.543-2.317.814-3.778.814-1.377 0-2.56-.236-3.548-.71zm12.164.314V5.483h3.36v15.236h-3.36zm6.364-.919c.71.849 1.725 1.273 3.047 1.273h.146c.863 0 1.77.021 2.354-.354.403-.259.959-.623 1.361-1.075v1.075h2.65V9.28h-3.338V16c0 .64-.188 1.149-.564 1.524-.376.376-.863.564-1.46.564-.585 0-1.051-.181-1.4-.543-.347-.361-.52-.848-.52-1.46V9.28h-3.34v6.637c0 1.726.355 3.02 1.064 3.882z"/><path fill-rule="evenodd" clip-rule="evenodd" d="M64.107 21.115c-.974 0-1.836-.167-2.588-.5a5.53 5.53 0 01-1.857-1.336 6.414 6.414 0 01-1.127-1.9 6.476 6.476 0 01-.376-2.17v-.418c0-.765.125-1.496.376-2.191.264-.71.64-1.343 1.127-1.9a5.133 5.133 0 011.816-1.314c.737-.334 1.572-.501 2.504-.501 1.224 0 2.254.278 3.089.835a5.35 5.35 0 011.941 2.15c.445.876.668 1.836.668 2.88v1.127h-8.354c.048.338.126.652.235.939.195.5.501.89.918 1.168.418.279.96.418 1.628.418.612 0 1.113-.118 1.503-.355a2.22 2.22 0 00.466-.37c.144-.153.254-.322.327-.506h3.068a4.819 4.819 0 01-.981 2.045 4.973 4.973 0 01-1.836 1.398c-.738.334-1.587.501-2.547.501zm-2.739-7.226l-.016.088h5.157a3.93 3.93 0 00-.231-.876c-.195-.487-.487-.856-.877-1.106-.375-.265-.849-.397-1.419-.397a3.549 3.549 0 00-.602.053c-.33.06-.623.175-.88.344-.403.264-.71.654-.918 1.168a3.661 3.661 0 00-.214.726z"/><path d="M71.371 20.072c.919.668 2.192 1.001 3.82 1.001 1.03 0 1.927-.146 2.692-.438.765-.306 1.357-.737 1.774-1.294.418-.57.626-1.238.626-2.004 0-1.057-.39-1.899-1.169-2.525-.779-.626-1.871-1.015-3.276-1.169l-.898-.083c-.598-.07-1.03-.188-1.294-.355a.866.866 0 01-.257-.241.845.845 0 01-.14-.49c0-.333.154-.598.46-.793.306-.194.716-.292 1.231-.292.654 0 1.148.133 1.482.397.334.25.529.563.584.939h2.964c-.042-1.224-.515-2.157-1.42-2.797-.903-.654-2.093-.98-3.568-.98-.919 0-1.74.139-2.463.417-.71.278-1.266.688-1.67 1.231-.403.543-.605 1.218-.605 2.025 0 .974.341 1.774 1.023 2.4.696.626 1.732 1.009 3.11 1.148l.897.083c.752.084 1.273.23 1.566.439.292.194.438.459.438.793 0 .375-.195.667-.585.876-.376.195-.855.292-1.44.292-.765 0-1.342-.139-1.732-.417-.376-.292-.591-.62-.647-.981H69.91c.056 1.21.543 2.15 1.461 2.818z"/></g><defs><clipPath id="clip0_616_193"><path fill="#fff" transform="translate(0 .5)" d="M0 0h81v25H0z"/></clipPath></defs></svg>