<svg width="91" height="34" fill="none" xmlns="http://www.w3.org/2000/svg"><g clip-path="url(#clip0_616_158)" filter="url(#filter0_d_616_158)" fill="#fff"><path d="M53.343 22.924c0 .279.233.501.511.488l4.13-.197a.488.488 0 00.466-.488V9.674a.488.488 0 00-.508-.488l-4.13.165a.488.488 0 00-.47.488v13.085zm.641-16.18c.506.506 1.139.759 1.897.759.798 0 1.44-.253 1.926-.76.506-.525.76-1.176.76-1.955 0-.758-.254-1.4-.76-1.926-.486-.525-1.128-.788-1.926-.788-.758 0-1.39.263-1.897.788-.505.526-.758 1.168-.758 1.926 0 .779.253 1.43.758 1.956z"/><path fill-rule="evenodd" clip-rule="evenodd" d="M41.054 15.061v7.095a.488.488 0 01-.399.48l-4.247.794a.488.488 0 01-.578-.48V3.234c0-.27.219-.488.488-.488h8.325c1.401 0 2.627.262 3.677.788 1.07.525 1.907 1.245 2.51 2.16.603.914.905 1.984.905 3.21 0 1.225-.312 2.305-.934 3.239-.603.914-1.45 1.634-2.539 2.16-.471.218-.977.39-1.518.514l5.54 7.54a.488.488 0 01-.508.764l-4.58-1.11a.488.488 0 01-.264-.167l-5.505-6.783h-.373zm0-3.735h2.86c.856 0 1.508-.205 1.955-.613.467-.428.7-1.002.7-1.722 0-.7-.233-1.265-.7-1.693-.447-.447-1.1-.67-1.955-.67h-2.86v4.698z"/><path d="M65.377 23.845a9.832 9.832 0 01-2.597-.35 11.967 11.967 0 01-2.364-.934 8.368 8.368 0 01-1.498-1.07.463.463 0 01-.009-.67l2.089-2.132c.193-.197.509-.193.719-.015.383.325.815.59 1.296.794a5.464 5.464 0 002.102.408c.428 0 .749-.058.963-.175.233-.117.35-.282.35-.496 0-.311-.165-.545-.496-.7-.312-.176-.73-.322-1.255-.438a43.975 43.975 0 01-1.605-.467 8.872 8.872 0 01-1.634-.759 3.617 3.617 0 01-1.285-1.313c-.31-.564-.466-1.284-.466-2.16 0-.914.243-1.712.73-2.393.505-.7 1.205-1.245 2.1-1.634.895-.409 1.946-.613 3.152-.613a9.64 9.64 0 013.502.642c.943.348 1.89 1.02 2.572 1.729a.458.458 0 01-.065.681l-2.415 1.858a.533.533 0 01-.68-.047c-.332-.298-.645-.454-1.075-.602-.565-.214-1.08-.321-1.547-.321-.448 0-.769.068-.963.204a.55.55 0 00-.292.496c0 .253.156.457.467.613.33.156.749.302 1.255.438.525.117 1.06.272 1.605.467a6.58 6.58 0 011.605.817c.525.33.944.778 1.255 1.342.33.564.496 1.294.496 2.19 0 1.42-.545 2.548-1.634 3.384-1.09.817-2.549 1.226-4.378 1.226z"/><path fill-rule="evenodd" clip-rule="evenodd" d="M75.203 22.823c1.226.623 2.637.934 4.232.934 1.264 0 2.393-.204 3.385-.613a6.735 6.735 0 002.255-1.475.463.463 0 00-.01-.657L83.1 19.047c-.2-.199-.524-.186-.733.003-.334.303-.699.54-1.095.71-.525.233-1.138.35-1.838.35-.74 0-1.362-.146-1.868-.438a2.885 2.885 0 01-1.167-1.284 3.835 3.835 0 01-.176-.45l9.631-.045a.47.47 0 00.463-.372c.048-.238.079-.456.092-.65.038-.312.058-.614.058-.905 0-1.382-.321-2.607-.963-3.678a6.474 6.474 0 00-2.626-2.538c-1.11-.623-2.384-.934-3.824-.934-1.478 0-2.81.33-3.998.992a7.272 7.272 0 00-2.772 2.655c-.68 1.11-1.021 2.384-1.021 3.824 0 1.459.35 2.752 1.05 3.88.7 1.13 1.664 2.014 2.89 2.656zm1.01-8.163c.046-.145.098-.284.158-.416.253-.564.613-1.002 1.08-1.314.466-.31 1.02-.466 1.663-.466.623 0 1.138.136 1.547.408.408.272.72.671.933 1.197.07.166.13.348.18.545l-5.56.046z"/><path d="M10.89 1.005c0-.29.216-.534.504-.57l3.445-.43a.574.574 0 01.645.57v11.331a.574.574 0 01-.645.57l-3.445-.43a.574.574 0 01-.503-.57V1.005zM4 2.44c0-.29.216-.533.503-.57l3.445-.43a.574.574 0 01.646.57v9.035a.574.574 0 01-.646.57l-3.445-.43a.574.574 0 01-.503-.57V2.44zM21.94.964a.574.574 0 01.435.557v4.787c0 .29-.216.534-.503.57l-3.445.43a.574.574 0 01-.646-.57V.66c0-.373.351-.647.714-.557l3.445.862zm6.752 1.992a.574.574 0 00-.436-.557l-3.445-.861a.574.574 0 00-.713.557V6.45c0 .345.302.613.645.57l3.446-.43a.574.574 0 00.503-.57V2.955z"/><path d="M28.692 8.824l-11.198.287a4.042 4.042 0 004.03 3.733h2.574v2.444L4 13.418V25.39l24.692-1.722V8.824z"/></g><defs><clipPath id="clip0_616_158"><path fill="#fff" transform="translate(4)" d="M0 0h83v26H0z"/></clipPath><filter id="filter0_d_616_158" x="0" y="0" width="91" height="34" filterUnits="userSpaceOnUse" color-interpolation-filters="sRGB"><feFlood flood-opacity="0" result="BackgroundImageFix"/><feColorMatrix in="SourceAlpha" values="0 0 0 0 0 0 0 0 0 0 0 0 0 0 0 0 0 0 127 0" result="hardAlpha"/><feOffset dy="4"/><feGaussianBlur stdDeviation="2"/><feComposite in2="hardAlpha" operator="out"/><feColorMatrix values="0 0 0 0 0 0 0 0 0 0 0 0 0 0 0 0 0 0 0.25 0"/><feBlend in2="BackgroundImageFix" result="effect1_dropShadow_616_158"/><feBlend in="SourceGraphic" in2="effect1_dropShadow_616_158" result="shape"/></filter></defs></svg>