<svg width="95" height="26" fill="none" xmlns="http://www.w3.org/2000/svg"><g clip-path="url(#clip0_616_169)" fill="#fff"><path d="M50.171 12.536c-.588.572-.883 1.406-.883 2.501v6.84h-3.922V8.442h3.113v4.434c.15-1.266.525-2.286 1.128-3.061.817-1.03 1.994-1.545 3.53-1.545h.516v3.384h-.981c-1.079 0-1.912.294-2.5.882z"/><path fill-rule="evenodd" clip-rule="evenodd" d="M62.062 20.235a4.59 4.59 0 00.416-.946v2.588h3.114V13.64c0-1.243-.245-2.256-.735-3.04-.49-.802-1.21-1.398-2.158-1.79-.932-.393-2.084-.589-3.457-.589a50.348 50.348 0 00-4.413.196v3.31c.507-.033 1.07-.065 1.692-.098a73.448 73.448 0 013.236-.098c.72 0 1.242.172 1.57.515.326.343.49.858.49 1.545v.049h-2.428c-1.193 0-2.247.155-3.163.465-.915.294-1.626.76-2.133 1.398-.506.62-.76 1.422-.76 2.402 0 .9.205 1.676.613 2.33a4.013 4.013 0 001.692 1.47c.736.344 1.586.516 2.55.516.931 0 1.716-.172 2.353-.515a3.663 3.663 0 001.52-1.471zm-.638-1.766c.229-.376.36-.899.392-1.569v-1.078h-2.451c-.687 0-1.218.171-1.594.514-.36.327-.54.777-.54 1.349 0 .54.18.98.54 1.324.376.327.907.49 1.594.49a2.96 2.96 0 001.176-.22 2 2 0 00.883-.81z"/><path d="M73.726 22.343c-1.16 0-2.174-.188-3.04-.564a6.296 6.296 0 01-2.134-1.569 6.496 6.496 0 01-1.274-2.206 8.09 8.09 0 01-.417-2.575v-.466c0-.915.147-1.79.441-2.623a6.732 6.732 0 011.3-2.255 6.029 6.029 0 012.132-1.545c.867-.376 1.856-.564 2.967-.564 1.21 0 2.28.237 3.212.711a5.586 5.586 0 012.23 1.937c.557.833.867 1.79.933 2.868h-3.85a2.4 2.4 0 00-.735-1.52c-.409-.425-1.005-.637-1.79-.637-.654 0-1.201.163-1.642.49-.425.327-.744.777-.957 1.349-.212.572-.318 1.25-.318 2.035 0 .719.098 1.373.294 1.961.196.572.507 1.021.931 1.348.442.311 1.014.466 1.717.466.523 0 .964-.09 1.324-.27.376-.196.67-.457.882-.784a2.6 2.6 0 00.417-1.177h3.825c-.05 1.112-.36 2.092-.932 2.942a5.92 5.92 0 01-2.28 1.962c-.948.457-2.027.686-3.236.686z"/><path fill-rule="evenodd" clip-rule="evenodd" d="M84.57 21.755c.883.392 1.896.588 3.04.588 1.128 0 2.125-.196 2.992-.588a5.841 5.841 0 002.157-1.643 5.663 5.663 0 001.152-2.403h-3.604c-.163.409-.474.752-.931 1.03-.458.278-1.046.417-1.766.417-.784 0-1.422-.164-1.912-.49-.49-.327-.85-.785-1.079-1.373a5.16 5.16 0 01-.276-1.104h9.813v-1.324c0-1.226-.261-2.353-.784-3.383a6.284 6.284 0 00-2.28-2.525c-.98-.654-2.19-.98-3.629-.98-1.095 0-2.075.195-2.942.587a6.03 6.03 0 00-2.133 1.545 7.145 7.145 0 00-1.324 2.231 7.542 7.542 0 00-.441 2.574v.49c0 .867.147 1.717.441 2.55.31.818.752 1.561 1.324 2.232a6.497 6.497 0 002.182 1.569zm-.197-7.797c.061-.351.152-.67.27-.956.246-.605.606-1.062 1.08-1.373.474-.31 1.054-.466 1.74-.466.67 0 1.226.155 1.667.466.458.294.801.727 1.03 1.3.124.31.214.652.271 1.03h-6.058z"/><path d="M36.026 21.877V7.486h-5.027V3.98h14.098v3.506h-5.05v14.391h-4.021z"/><path fill-rule="evenodd" clip-rule="evenodd" d="M12.68 2.75c-5.59 0-10.123 4.532-10.123 10.123 0 5.592 4.532 10.124 10.124 10.124 5.59 0 10.123-4.532 10.123-10.124 0-5.59-4.532-10.123-10.123-10.123zM.308 12.873C.307 6.04 5.847.5 12.681.5c6.833 0 12.373 5.54 12.373 12.373 0 6.834-5.54 12.374-12.373 12.374-6.834 0-12.374-5.54-12.374-12.374z"/><path fill-rule="evenodd" clip-rule="evenodd" d="M18.853 8.679c.33-1.04-.655-2.015-1.69-1.675l-7.054 2.314a1.337 1.337 0 00-.857.866l-2.186 6.884c-.33 1.04.656 2.015 1.691 1.675l7.053-2.314c.409-.134.728-.456.858-.866l2.185-6.884zm-5.895 5.801a1.607 1.607 0 100-3.214 1.607 1.607 0 000 3.214z"/></g><defs><clipPath id="clip0_616_169"><path fill="#fff" transform="translate(0 .5)" d="M0 0h95v25H0z"/></clipPath></defs></svg>