<svg width="108" height="30" fill="none" xmlns="http://www.w3.org/2000/svg"><g clip-path="url(#clip0_616_177)" fill="#fff"><path d="M60.79 22.27V4.893h3.148V22.27H60.79zM34.135 5.372l6.658 16.899h2.596l6.73-16.899h-3.485L42.13 17.236 37.668 5.372h-3.533z"/><path fill-rule="evenodd" clip-rule="evenodd" d="M50.59 21.718c.945.529 2.003.793 3.173.793s2.22-.264 3.149-.793a6.1 6.1 0 002.235-2.188c.545-.93.817-1.963.817-3.1 0-1.138-.272-2.156-.817-3.053a5.916 5.916 0 00-2.235-2.164c-.93-.544-1.987-.817-3.173-.817-1.154 0-2.204.273-3.15.817a5.916 5.916 0 00-2.235 2.164c-.544.897-.817 1.915-.817 3.053 0 1.137.273 2.17.817 3.1a6.353 6.353 0 002.236 2.188zm4.711-2.524c-.449.256-.97.384-1.562.384-.577 0-1.09-.128-1.539-.384a2.92 2.92 0 01-1.057-1.106c-.257-.48-.385-1.026-.385-1.635 0-.608.128-1.145.385-1.61a2.747 2.747 0 011.057-1.082 2.904 2.904 0 011.539-.408c.593 0 1.113.136 1.562.408.449.257.801.617 1.058 1.082.256.465.384 1.002.384 1.61 0 .61-.128 1.154-.384 1.635a2.7 2.7 0 01-1.058 1.106z"/><path d="M67.738 21.862c.802.433 1.715.649 2.74.649 1.026 0 1.932-.208 2.717-.625a4.56 4.56 0 001.85-1.803c.45-.769.674-1.666.674-2.692v-6.73h-3.15v6.658c0 .721-.183 1.282-.552 1.683-.369.4-.881.6-1.538.6-.433 0-.81-.088-1.13-.264a1.679 1.679 0 01-.721-.77c-.16-.352-.24-.768-.24-1.25v-6.657h-3.174v6.73c0 1.01.225 1.899.674 2.668a4.765 4.765 0 001.85 1.803zm9.286.408V10.66h3.15v1.008a4.05 4.05 0 01.96-.695c.674-.369 1.435-.553 2.284-.553.802 0 1.53.184 2.188.553a3.92 3.92 0 011.365 1.207c.388-.495.862-.89 1.423-1.183.705-.384 1.49-.577 2.356-.577.865 0 1.642.184 2.331.553a3.978 3.978 0 011.635 1.538c.4.674.6 1.475.6 2.404v7.356h-3.148V15.42c0-.673-.216-1.194-.65-1.563-.416-.384-.936-.576-1.561-.576-.401 0-.778.088-1.13.264-.337.16-.601.4-.793.721-.193.32-.289.705-.289 1.154v6.85h-3.149v-6.85c0-.673-.216-1.194-.649-1.563-.416-.384-.937-.576-1.562-.576-.417 0-.794.088-1.13.264-.337.16-.6.4-.793.721-.193.32-.289.705-.289 1.154v6.85h-3.149z"/><path fill-rule="evenodd" clip-rule="evenodd" d="M98.975 21.742c.945.512 2.027.769 3.245.769a6.69 6.69 0 002.62-.505 5.36 5.36 0 002.067-1.49l-1.851-1.851c-.352.4-.769.705-1.25.913a4.296 4.296 0 01-1.61.289c-.657 0-1.234-.136-1.731-.409a2.976 2.976 0 01-1.154-1.202 3.593 3.593 0 01-.246-.676l8.491-.02a4.82 4.82 0 00.12-.722c.032-.224.048-.44.048-.649 0-1.106-.248-2.091-.745-2.957a5.224 5.224 0 00-2.019-2.067c-.849-.512-1.835-.769-2.957-.769-1.137 0-2.171.273-3.1.817a5.967 5.967 0 00-2.212 2.164c-.529.897-.793 1.923-.793 3.076 0 1.17.272 2.212.817 3.125a6.1 6.1 0 002.26 2.164zm.093-6.518c.056-.213.13-.412.22-.597a2.755 2.755 0 011.081-1.178c.465-.289 1.01-.433 1.634-.433.593 0 1.09.128 1.491.385.416.24.729.593.937 1.057.108.224.194.474.257.75l-5.62.016zM14.782 29.251c8.078 0 14.626-6.548 14.626-14.625C29.408 6.548 22.86 0 14.782 0 6.705 0 .157 6.548.157 14.626c0 8.077 6.548 14.625 14.625 14.625zM20.84 5.674a.772.772 0 01.273.59v12.991a3.093 3.093 0 11-1.547-2.68v-6.267l-7.733 1.29V20.8a3.093 3.093 0 11-1.546-2.68V7.81c0-.378.273-.7.646-.763l9.28-1.546a.773.773 0 01.627.173z"/></g><defs><clipPath id="clip0_616_177"><path fill="#fff" d="M0 0h108v30H0z"/></clipPath></defs></svg>