<svg width="152" height="49" fill="none" xmlns="http://www.w3.org/2000/svg"><path d="M47.47 2.71v18.91h-.004a1.319 1.319 0 01-1.317 1.31h-.004v.001H27.333c-.018 0-.036.006-.055.006a1.32 1.32 0 01-1.32-1.317v-.085c.684-10.73 9.22-19.32 19.927-20.099l.262-.021c.717 0 1.301.567 1.32 1.28h.003v.016zm0 43.578v.018h-.004a1.316 1.316 0 01-1.32 1.28l-.261-.022c-10.708-.778-19.243-9.368-19.927-20.099v-.084a1.32 1.32 0 011.32-1.318c.018 0 .036.005.055.007h18.811v.001h.005c.725 0 1.31.586 1.317 1.31h.003v18.907z" fill="#75227D"/><path d="M22.885 2.71c0 .005.003.01.003.016 0 .005-.003.01-.003.016v18.877h-.003a1.315 1.315 0 01-1.317 1.31h-.003v.001H2.752c-.019 0-.037.006-.058.006-.728 0-1.317-.59-1.317-1.317 0-.03-.003-.043 0-.072v-.012c.684-10.73 9.218-19.32 19.924-20.099l.265-.021c.717 0 1.3.567 1.316 1.28h.003v.016zM2.699 47.586c-.717 0-1.3-.567-1.32-1.327l.004-18.877a1.319 1.319 0 011.32-1.312l18.868-.006c.728 0 1.317.59 1.317 1.318 0 .029.003.043 0 .084-.684 10.73-9.218 19.32-19.924 20.099l-.265.021z" fill="#8F3E8C"/><path d="M59.966 7.069v4.611h7.568v3.459h-7.568v7.752h-4.308V3.597h12.738v3.472h-8.43zM82.43 8.553V22.89h-3.884l-.119-1.51a4.64 4.64 0 01-1.657 1.318c-.645.304-1.383.457-2.213.457-1.494 0-2.665-.433-3.513-1.299-.848-.866-1.272-2.208-1.272-4.028V8.553h4.135v9.302c0 .663.17 1.155.51 1.478.34.322.811.484 1.412.484 1.175 0 1.993-.407 2.452-1.22V8.553h4.149zm13.974 1.034c.79.865 1.186 2.283 1.186 4.253v9.05h-4.148v-9.076c0-.83-.175-1.403-.524-1.716-.349-.314-.895-.47-1.637-.47-.98 0-1.714.397-2.2 1.192v10.07h-4.122V8.554h3.87l.146 1.656a4.924 4.924 0 011.782-1.43c.694-.328 1.465-.491 2.313-.491 1.432 0 2.543.433 3.334 1.299zm16.32-7.05V22.89H109l-.199-1.55c-.937 1.21-2.134 1.815-3.592 1.815-1.166 0-2.169-.311-3.009-.934-.839-.623-1.478-1.482-1.915-2.578-.438-1.095-.656-2.345-.656-3.75v-.278c0-1.458.218-2.739.656-3.843.437-1.104 1.076-1.961 1.915-2.57.84-.61 1.851-.915 3.035-.915 1.344 0 2.457.512 3.341 1.537V2.537h4.148zm-5.056 16.928c.384-.234.687-.572.908-1.013v-5.46c-.433-.91-1.198-1.365-2.293-1.365-.875 0-1.514.358-1.916 1.074-.402.715-.603 1.687-.603 2.915v.278c0 1.202.195 2.156.583 2.862.389.707 1.025 1.06 1.909 1.06.557 0 1.027-.116 1.412-.35zm11.681-16.14c.424.393.636.904.636 1.53 0 .62-.212 1.125-.636 1.518-.424.393-.981.59-1.67.59-.69 0-1.244-.197-1.664-.59-.419-.393-.629-.899-.629-1.517 0-.627.21-1.138.629-1.53.42-.394.974-.59 1.664-.59.689 0 1.246.196 1.67.59zm-3.725 19.566V8.553h4.149V22.89h-4.149zm18.402-13.304c.79.865 1.186 2.283 1.186 4.253v9.05h-4.149v-9.076c0-.83-.174-1.403-.523-1.716-.349-.314-.895-.47-1.637-.47-.981 0-1.715.397-2.201 1.192v10.07h-4.122V8.554h3.871l.145 1.656a4.924 4.924 0 011.783-1.43c.694-.328 1.465-.491 2.313-.491 1.431 0 2.543.433 3.334 1.299zm16.598-1.034v13.794c0 1.3-.294 2.415-.881 3.346-.588.932-1.414 1.64-2.479 2.12-1.065.482-2.304.723-3.718.723-.981 0-1.973-.19-2.975-.57-1.003-.38-1.792-.914-2.366-1.603l1.789-2.531c.415.46.91.823 1.484 1.093.575.27 1.207.404 1.896.404.99 0 1.756-.26 2.3-.782.543-.521.815-1.259.815-2.213v-.662c-.893.99-2.019 1.484-3.38 1.484-1.175 0-2.203-.311-3.082-.934s-1.555-1.487-2.028-2.591c-.473-1.104-.709-2.35-.709-3.737v-.278c0-1.449.236-2.726.709-3.83s1.151-1.963 2.035-2.577c.883-.614 1.917-.921 3.101-.921 1.538 0 2.735.526 3.592 1.577l.159-1.312h3.738zm-4.135 10.124v-5.91c-.477-.76-1.246-1.14-2.307-1.14-.892 0-1.575.37-2.047 1.107-.473.737-.71 1.698-.71 2.882v.278c0 1.157.232 2.1.696 2.83.464.728 1.142 1.093 2.035 1.093 1.06 0 1.838-.38 2.333-1.14zM69.947 43.875c-.645 1.02-1.549 1.813-2.71 2.379-1.163.565-2.521.848-4.077.848-1.66 0-3.097-.378-4.307-1.133-1.211-.756-2.139-1.836-2.784-3.24-.645-1.405-.967-3.066-.967-4.983v-1.113c0-1.9.33-3.556.994-4.969.662-1.414 1.601-2.5 2.816-3.26 1.215-.76 2.631-1.14 4.248-1.14 1.6 0 2.97.294 4.11.882 1.14.587 2.025 1.4 2.657 2.438.632 1.038 1.01 2.233 1.133 3.584h-4.294c-.071-1.148-.38-1.998-.928-2.55-.548-.553-1.44-.829-2.678-.829-1.263 0-2.195.464-2.796 1.392-.601.927-.902 2.403-.902 4.426v1.14c0 1.377.122 2.49.365 3.339.243.848.634 1.475 1.173 1.881.539.407 1.26.61 2.16.61 1.158 0 2.026-.265 2.605-.795.579-.53.903-1.347.974-2.452h4.295c-.08 1.343-.442 2.525-1.087 3.545zm7.128-16.604c.424.393.636.903.636 1.53 0 .62-.212 1.125-.636 1.518-.424.393-.98.59-1.67.59s-1.244-.197-1.664-.59c-.42-.393-.63-.899-.63-1.517 0-.628.21-1.138.63-1.53.42-.394.975-.59 1.664-.59.69 0 1.246.196 1.67.59zM73.35 46.837V32.499h4.15v14.338h-4.15zm15.44-14.444l-.054 4.002c-.68-.071-1.157-.106-1.431-.106-.725 0-1.315.114-1.77.344-.455.23-.788.574-1 1.034v9.17h-4.136V32.499h3.884l.132 1.762c.362-.654.811-1.155 1.346-1.504a3.26 3.26 0 011.822-.523c.495 0 .897.053 1.206.159zm13.662 9.382c0 1.033-.265 1.954-.795 2.763-.53.808-1.251 1.437-2.16 1.888-.911.45-1.927.676-3.05.676-1.44 0-2.661-.314-3.664-.941a5.837 5.837 0 01-2.254-2.578c-.499-1.09-.748-2.338-.748-3.743v-.331c0-1.405.25-2.655.748-3.75a5.843 5.843 0 012.247-2.584c.999-.628 2.218-.941 3.658-.941 1.184 0 2.23.227 3.135.682a5.03 5.03 0 012.121 1.975c.508.861.762 1.88.762 3.054h-3.884c-.009-.698-.205-1.268-.59-1.71-.384-.441-.93-.662-1.636-.662-.937 0-1.576.351-1.916 1.054-.34.702-.51 1.663-.51 2.882v.331c0 1.246.17 2.21.51 2.895.34.685.988 1.027 1.942 1.027.663 0 1.193-.178 1.59-.536.398-.358.602-.842.61-1.451h3.884zm2.184 5.062V26.483h4.149v20.354h-4.149zm19.76-5.818h-9c.159.849.526 1.518 1.1 2.008.575.49 1.308.735 2.201.735a4.84 4.84 0 001.908-.37 3.787 3.787 0 001.498-1.154l1.948 2.32c-.503.715-1.241 1.318-2.213 1.808s-2.108.736-3.407.736c-1.475 0-2.761-.312-3.857-.934-1.095-.623-1.935-1.465-2.518-2.525-.583-1.06-.875-2.226-.875-3.498v-.504c0-1.422.27-2.692.809-3.81a6.25 6.25 0 012.339-2.637c1.021-.64 2.238-.96 3.652-.96 1.352 0 2.509.285 3.473.855.963.57 1.694 1.382 2.193 2.438.499 1.055.749 2.299.749 3.73v1.762zm-4.056-3.074c0-.742-.201-1.323-.603-1.742-.402-.42-.996-.63-1.783-.63-1.405 0-2.253.901-2.545 2.703h4.931v-.33z" fill="#262838"/></svg>