<svg width="181" height="40" fill="none" xmlns="http://www.w3.org/2000/svg"><path d="M40.138 0c-.685.002-1.575.216-2.747.632-4.944 1.755-9.356 4.692-13.39 8.912l-2.81 3.41 1.083 1.594c1.857 2.694 3.8 7.26 4.71 11.104.558 2.206.777 3.569.87 5.845.015.383.033.786.042 1.229.01.44.017.913.022 1.428.02 2.728.052 5.846-.226 5.846h13.251l.751-.787c.467-.688.537-3.12.537-19.363 0-16.793-.055-18.645-.569-19.23-.361-.411-.84-.621-1.524-.62z" fill="#A4CE4E"/><path d="M2.178 0C1.513-.01 1.03.175.622.555.03 1.108 0 2.174 0 19.784c0 16.3.069 18.74.537 19.43l.536.786H14.25c10.171 0 13.237-.101 13.443-.443.147-.244.246-2.675.225-5.403-.03-4.122-.188-5.558-.933-8.502-1.63-6.443-4.703-12.25-9.126-16.58C14.011 5.307 9.584 2.316 4.84.632 3.692.224 2.843.011 2.178 0z" fill="#0192D5"/><path d="M21.191 12.953l-.837 1.041c-1.487 1.87-4.2 8.071-5.107 11.669-.742 2.941-.897 4.374-.923 8.513-.017 2.736-.064 5.824.204 5.824h13.164c.278 0 .246-3.118.226-5.846-.031-4.122-.234-5.545-.934-8.502-.91-3.843-2.848-8.406-4.706-11.101l-1.087-1.598z" fill="#0065A5"/><path d="M159.241 6.355c-1.852.004-3.657.67-4.946 1.838-1.535 1.39-2.098 2.536-2.393 4.827l-.236 1.827h-2.66v4.605h2.746v6.853c0 3.767.099 6.955.225 7.085.126.13 1.362.233 2.747.233h2.521V19.452h4.12v-4.605h-4.119v-1.174c0-1.725 1.268-2.843 2.982-2.635.721.088 1.554.271 1.856.41.407.186.826-.193 1.62-1.45l1.084-1.706-.773-.598c-.902-.707-3.174-1.341-4.773-1.339h-.001zm-16.125.033c-2.685.144-4.024 4.316-1.374 5.802 1.339.75 2.272.64 3.455-.388.848-.737 1.062-1.19 1.062-2.303 0-1.563-.815-2.633-2.274-3.011a2.88 2.88 0 00-.869-.1zm-62.433.643l-2.79.1-2.779.099-3.079 5.845c-1.693 3.215-3.189 5.957-3.315 6.09-.127.131-1.693-2.538-3.487-5.935L61.97 7.053l-2.747.089-2.746.088-.397 9.034c-.217 4.969-.492 10.907-.612 13.197l-.214 4.162h5.407l.225-4.517c.123-2.484.246-5.872.269-7.528.08-5.72.11-5.716 3.208-.044l2.736 5.004h2.886l2.693-5.226 2.683-5.225.257 6.2c.141 3.41.35 7.355.461 8.768l.194 2.569h5.44l-.011-1.683c-.005-.926-.23-6.386-.505-12.134s-.5-10.972-.504-11.613l-.011-1.163zm40.513.022v13.052c0 7.177.099 13.156.225 13.285.126.13 3.912.233 8.412.233h8.186v-4.96h-10.987V7.053h-5.836zm-14.42 2.812v4.949l-1.459.1-1.459.11v4.251l1.459.111 1.459.111.011 4.672c.02 6.2.617 7.937 3.186 9.244 1.777.905 5.415.747 7.457-.321l1.695-.886-1.03-1.727-1.03-1.727-1.491.565c-1.386.514-1.57.507-2.403-.055-.896-.607-.902-.633-.902-5.204v-4.605h4.464v-4.606h-4.432l-.107-2.391-.097-2.392-2.661-.1-2.66-.1zm-13.412 4.55c-3.735.024-6.683 1.966-8.186 5.392-1.033 2.355-.99 6.657.097 9.066.919 2.037 2.798 3.792 4.839 4.54 3.055 1.12 8.45.49 10.901-1.273l.933-.665-1.041-1.738-1.03-1.727-1.78.852c-1.898.912-4.346 1.131-5.902.521-1.157-.454-2.585-2.05-2.585-2.89 0-.616.395-.664 6.351-.664h6.352v-1.705c0-5.803-3.637-9.743-8.949-9.709zm.043 4.306c1.06-.017 2.052.346 2.747 1.063.552.57 1.009 1.367 1.009 1.772 0 .7-.183.73-3.777.73-2.408 0-3.777-.128-3.777-.365 0-.837 1.035-2.349 1.878-2.745a4.716 4.716 0 011.92-.454zm78.699-4.284c-5.355 0-8.905 3.392-9.281 8.88-.312 4.544 1.296 7.773 4.774 9.586 2.08 1.084 2.331 1.128 5.451 1.008 2.734-.105 3.596-.291 5.235-1.118 1.08-.545 1.964-1.109 1.964-1.251 0-.142-.459-1.004-1.019-1.915l-1.02-1.66-1.223.752c-1.635.995-5.166 1.3-6.545.564-1.22-.651-2.044-1.586-2.36-2.657l-.236-.797H181l-.237-1.86c-.807-6.5-3.56-9.532-8.657-9.532zm-.268 4.307c1.2 0 1.753.212 2.542.974.555.536 1.112 1.333 1.234 1.771.221.794.203.797-3.776.797-3.98 0-3.998-.003-3.777-.797.122-.438.679-1.235 1.234-1.77.789-.763 1.342-.975 2.543-.975zm-25.922-3.92l-2.661.1-2.661.1-.096 8.856c-.051 4.868-.017 9.053.075 9.3.114.308.986.443 2.757.443h2.586V14.825z" fill="#000"/></svg>