<svg width="145" height="42" fill="none" xmlns="http://www.w3.org/2000/svg"><path d="M66.697 10.253c-.436-.13-1.09-.218-1.745-.218-1.744 0-4.491.698-5.625 3.141v-2.923h-6.41v21.684h6.628V22.47c0-4.319 2.398-5.89 5.058-5.89a8.99 8.99 0 012.094.219v-6.545zm12.266 16.23c-2.486 0-4.885-1.788-4.885-5.41 0-3.665 2.399-5.366 4.885-5.366 2.529 0 4.883 1.701 4.883 5.366 0 3.665-2.354 5.41-4.883 5.41zm0-16.884c-6.454 0-11.513 4.755-11.513 11.474 0 6.72 5.059 11.519 11.513 11.519 6.497 0 11.512-4.8 11.512-11.519S85.46 9.6 78.963 9.6zm23.9 16.884c-2.486 0-4.884-1.788-4.884-5.41 0-3.665 2.398-5.366 4.884-5.366 2.529 0 4.884 1.701 4.884 5.366 0 3.665-2.355 5.41-4.884 5.41zm0-16.884c-6.454 0-11.512 4.755-11.512 11.474 0 6.72 5.058 11.519 11.512 11.519 6.497 0 11.512-4.8 11.512-11.519S109.36 9.6 102.863 9.6zm26.298 6.239v-5.585h-4.71V8.595c0-2.4 1.658-2.923 2.835-2.923 1.046 0 1.613.13 1.962.218V.48c-.61-.305-1.788-.48-3.139-.48-5.277 0-8.286 3.403-8.286 8.377v1.876h-3.445v5.585h3.445v16.1h6.628v-16.1h4.71zM145 10.253c-.435-.13-1.089-.218-1.743-.218-1.745 0-4.492.698-5.626 3.141v-2.923h-6.41v21.684h6.628V22.47c0-4.319 2.399-5.89 5.059-5.89.654 0 1.351.044 2.092.219v-6.545z" fill="#28373E"/><path d="M0 14C0 6.268 6.28 0 14.028 0h14.028c7.747 0 14.027 6.268 14.027 14v14c0 7.732-6.28 14-14.027 14H14.028C6.28 42 0 35.732 0 28V14z" fill="#fff"/><path fill-rule="evenodd" clip-rule="evenodd" d="M14.028 0C6.28 0 0 6.268 0 14v14c0 7.732 6.28 14 14.028 14h14.028c7.747 0 14.027-6.268 14.027-14V14c0-7.732-6.28-14-14.027-14H14.028zM5.474 28.294l15.237-15.207a.468.468 0 01.661 0l5.28 5.27v-2.334h-.35a.117.117 0 01-.117-.116v-.7c0-.065.053-.117.117-.117h5.377c.065 0 .117.052.117.117v.7a.117.117 0 01-.117.116h-.35v7l5.28 5.27a.466.466 0 01-.33.797H25.656a.468.468 0 01-.33-.137l-3.954-3.944a.468.468 0 00-.66 0l-3.953 3.944a.468.468 0 01-.331.137H5.805a.467.467 0 01-.33-.796z" fill="url(#paint0_linear_1103_470)"/><defs><linearGradient id="paint0_linear_1103_470" x1="42.083" y1="0" x2="-7.313" y2="12.07" gradientUnits="userSpaceOnUse"><stop stop-color="#4E73D1"/><stop offset="1" stop-color="#269BD6"/></linearGradient></defs></svg>