<svg width="146" height="33" fill="none" xmlns="http://www.w3.org/2000/svg"><path d="M9.254 19.19c-.292.192-.475.51-.494.859v7.983c.019.349.202.667.494.858l6.894 3.992c.31.157.677.157.988 0l6.895-3.992a1.1 1.1 0 00.494-.858v-7.985a1.098 1.098 0 00-.494-.858l-6.895-3.99a1.093 1.093 0 00-.988 0l-6.894 3.992zM17.9 4.174c-.291.19-.474.508-.494.855v7.986c.019.349.202.667.494.858l6.894 3.99c.31.157.677.157.988 0l6.897-3.992c.291-.191.474-.51.494-.858V5.031a1.097 1.097 0 00-.494-.858L25.783.18a1.091 1.091 0 00-.988 0l-6.894 3.992z" fill="#2A3E54"/><path d="M26.526 19.178c-.292.19-.475.51-.494.858v7.983c.019.349.202.667.494.858l6.894 3.992c.311.157.677.157.988 0l6.895-3.992c.291-.19.475-.51.494-.858v-7.983a1.097 1.097 0 00-.494-.858l-6.89-3.992a1.094 1.094 0 00-.988 0l-6.9 3.992zM.494 4.11A1.1 1.1 0 000 4.965v7.984a1.1 1.1 0 00.494.858l6.894 3.99c.311.157.678.157.988 0l6.895-3.992a1.1 1.1 0 00.494-.858V4.965a1.097 1.097 0 00-.494-.855L8.376.118a1.093 1.093 0 00-.988 0L.494 4.11z" fill="#FDC116"/><path d="M45.434 5.555a35.538 35.538 0 012.887-.347 42.52 42.52 0 013.549-.139c1.403-.02 2.804.114 4.178.398a7.056 7.056 0 012.99 1.403c1.391 1.153 2.087 2.792 2.087 4.916a5.834 5.834 0 01-.332 1.991 6.661 6.661 0 01-.87 1.661c-.353.49-.781.922-1.268 1.28a6.68 6.68 0 01-1.531.849v.105a3.98 3.98 0 011.931 1.605 9.463 9.463 0 011.13 2.814c.165.652.328 1.308.492 1.97.164.661.32 1.288.47 1.881.15.586.296 1.11.435 1.571.099.355.227.702.383 1.036H56.74a9.246 9.246 0 01-.658-1.918 75.266 75.266 0 01-.83-3.545c-.278-1.453-.676-2.43-1.195-2.932-.52-.502-1.262-.76-2.229-.772h-1.322v9.165h-5.072V5.555zm5.072 10.162h1.693c1.22 0 2.165-.319 2.834-.955a3.317 3.317 0 001.002-2.52c0-2.202-1.187-3.326-3.56-3.371-.41-.005-.821.012-1.23.051a5.78 5.78 0 00-.737.122l-.002 6.673zm19.156 13.177a8.605 8.605 0 01-3.226-.589 7.1 7.1 0 01-2.536-1.71 7.918 7.918 0 01-1.673-2.749 10.455 10.455 0 01-.605-3.664c-.022-1.279.19-2.55.622-3.753a8.03 8.03 0 011.727-2.785 7.437 7.437 0 012.619-1.754 8.88 8.88 0 013.313-.606 8.147 8.147 0 013.244.623 7.086 7.086 0 012.485 1.764 8.018 8.018 0 011.604 2.748c.39 1.14.583 2.34.568 3.545a10.447 10.447 0 01-.731 4.114 7.992 7.992 0 01-1.88 2.766 7.107 7.107 0 01-2.607 1.556 9.11 9.11 0 01-2.9.489l-.024.005zm.14-3.665c.438.005.866-.135 1.218-.398.381-.294.688-.673.898-1.107.258-.52.444-1.072.553-1.642.13-.66.194-1.332.19-2.005 0-.62-.052-1.239-.156-1.85a6.26 6.26 0 00-.5-1.642 3.336 3.336 0 00-.897-1.175 2.065 2.065 0 00-1.346-.45 2.26 2.26 0 00-1.414.45 3.159 3.159 0 00-.92 1.173 6.243 6.243 0 00-.5 1.642 11.23 11.23 0 00-.156 1.85c-.005.684.06 1.367.19 2.04a5.72 5.72 0 00.569 1.624c.224.429.543.801.931 1.09.384.27.844.409 1.312.398l.027.002zm24.403-2.06c0 1.061.011 2.038.034 2.932.022.895.055 1.709.1 2.444h-4.29l-.24-2.214h-.101a7.099 7.099 0 01-.68.865 5.144 5.144 0 01-2.342 1.454 5.975 5.975 0 01-1.766.244c-1.653 0-2.966-.577-3.94-1.73-.975-1.153-1.458-2.993-1.45-5.519V11.628h4.96v9.26c0 1.223.181 2.174.543 2.853a1.851 1.851 0 001.766 1.02 2.028 2.028 0 001.461-.519 3.2 3.2 0 00.783-1.107c.153-.387.222-.804.204-1.221V11.628h4.958V23.17zm8.821-15.685v4.46h3.712v3.609h-3.712v6.494c0 1.022.159 1.744.477 2.165.318.422.831.632 1.539.63.265.004.53-.007.794-.033.2-.022.43-.056.69-.1l.035 3.778c-.444.138-.9.234-1.362.289-.638.082-1.282.122-1.926.118a6.517 6.517 0 01-2.228-.359 4.531 4.531 0 01-1.626-.962 4.413 4.413 0 01-1.114-1.874c-.275-.976-.4-1.986-.372-2.997v-7.15h-2.216v-3.608h2.228V8.88l5.081-1.396zm7.445 2.407a2.676 2.676 0 01-1.961-.733 2.467 2.467 0 01-.737-1.833 2.473 2.473 0 01.758-1.867 2.786 2.786 0 012.021-.733c.73-.03 1.441.235 1.96.733.499.505.774 1.178.769 1.877a2.44 2.44 0 01-.758 1.833 2.793 2.793 0 01-2.022.733l-.03-.01zm-2.554 2.087h5.257v16.916h-5.257V11.978zm37.99 16.56a7.406 7.406 0 01-1.722.492c-.812.144-1.636.214-2.461.208a9.773 9.773 0 01-3.501-.589 7.493 7.493 0 01-2.664-1.704 7.397 7.397 0 01-1.708-2.7 10.343 10.343 0 01-.593-3.614c-.011-1.21.196-2.41.611-3.546a8.042 8.042 0 014.647-4.76 10.275 10.275 0 013.9-.695 10.7 10.7 0 011.948.174 8.73 8.73 0 011.636.452l-.755 3.774a6.36 6.36 0 00-1.046-.312 7.221 7.221 0 00-1.532-.14c-1.324 0-2.363.452-3.118 1.355-.754.904-1.131 2.062-1.131 3.477 0 1.551.41 2.744 1.23 3.58a4.096 4.096 0 003.065 1.251 6.425 6.425 0 002.648-.49l.546 3.788zm-24.033-17.24a3.488 3.488 0 01.772-2.293c.514-.625 1.436-.938 2.766-.938.368 0 .735.02 1.1.062V4.094c-.41-.039-.823-.061-1.238-.061a10.803 10.803 0 00-3.623.557 7.591 7.591 0 00-2.611 1.513 6.411 6.411 0 00-1.597 2.242 6.994 6.994 0 00-.551 2.78v.775h-2.233v3.683h2.233v13.311h5.016v-13.31h4.611v13.31h5.016V11.9h-9.661v-.6z" fill="#2A3E54"/></svg>