<svg width="151" height="41" fill="none" xmlns="http://www.w3.org/2000/svg"><g clip-path="url(#clip0_1103_490)"><path d="M59.947 20.425l-4.53-6.075c-.378-.455-.076-.986.453-.986h2.34c.302 0 .604.075.83.38l2.87 4.1 2.944-4.1c.151-.229.453-.38.83-.38h2.341c.604 0 .755.455.453.91l-4.53 6.075 4.53 6.453c.302.456.151.912-.453.912H65.76a.83.83 0 01-.755-.456l-3.095-4.404-3.247 4.632c-.075.152-.302.303-.604.303h-2.416c-.604 0-.755-.455-.453-.91l4.757-6.454zm18.422-7.365c3.7 0 6.568 2.81 6.568 6.605l-.075.987c0 .38-.302.608-.68.608h-9.664a4.185 4.185 0 001.29 2.732 4.14 4.14 0 002.787 1.14 6.018 6.018 0 003.171-1.063c.453-.228.68-.38.982 0l.981 1.367c.227.303.378.607-.075.91a8.125 8.125 0 01-5.285 1.823c-4.304 0-7.173-3.417-7.173-7.517 0-4.175 2.87-7.592 7.173-7.592zm3.246 5.922c-.075-1.746-1.51-3.189-3.246-3.189a3.537 3.537 0 00-2.433.882 3.575 3.575 0 00-1.191 2.307h6.87zm6.72-4.935c0-.38.302-.684.68-.684h1.056c.302 0 .529.152.604.456l.453 1.215c.227-.304 2.114-1.974 4.983-1.974 4.379 0 5.965 3.113 5.965 6.833v7.213c0 .38-.302.683-.68.683h-2.038a.678.678 0 01-.68-.683v-7.365c0-2.277-1.132-3.568-2.944-3.568-2.265 0-3.775 1.67-3.926 2.126v8.731c0 .456-.227.683-.83.683H89.09a.678.678 0 01-.68-.683V14.047h-.075zm30.502 0c0-.38.302-.684.679-.684h1.057c.227 0 .529.228.604.532l.378 1.215c.226-.38 1.585-2.05 4.152-2.05 1.359 0 3.02.38 2.643 1.29l-.831 1.747c-.151.38-.528.455-.83.303-.227-.075-.755-.227-1.208-.227-2.039 0-3.096 1.518-3.247 1.746v9.111c0 .608-.377.683-.981.683h-1.737a.683.683 0 01-.679-.683V14.047zm28.765-6.302c0-.38.302-.683.68-.683h2.038c.378 0 .68.303.68.683V27.03c0 .38-.302.683-.68.683h-2.038a.679.679 0 01-.68-.683V7.745zm-32.767 5.315h-3.095V7.745a.679.679 0 00-.68-.683h-2.038a.679.679 0 00-.68.683v5.315h-3.095a.679.679 0 00-.68.683v1.595c0 .38.302.683.68.683h3.095v11.085c0 .38.302.683.68.683h2.038c.378 0 .68-.303.68-.683V15.945h3.095c.378 0 .68-.304.68-.683v-1.595c0-.303-.302-.607-.68-.607zm27.482.303h-1.661a.678.678 0 00-.679.684v.228a6.62 6.62 0 00-4.002-1.291 7.38 7.38 0 00-5.161 2.26 7.466 7.466 0 00-2.087 5.256c0 4.1 3.247 7.593 7.248 7.593 1.51 0 2.869-.455 4.002-1.29v.227c0 .38.302.683.679.683h1.661c.378 0 .68-.303.68-.683V14.047c0-.304-.378-.684-.68-.684zm-6.342 11.617c-2.265 0-4.001-1.974-4.001-4.48 0-2.43 1.812-4.403 4.001-4.403 2.114 0 3.775 1.746 4.002 3.872v.987c-.227 2.278-1.963 4.024-4.002 4.024z" fill="#010101"/><path d="M20.083 12.983h-.075c-3.926 0-7.324-2.96-9.89-5.466L7.625 5.01a2.589 2.589 0 010-3.644 2.56 2.56 0 013.624 0l2.491 2.505c1.737 1.747 4.228 4.024 6.267 4.024h.15c2.04 0 4.53-2.277 6.267-4.024l2.492-2.505a2.56 2.56 0 013.624 0 2.589 2.589 0 010 3.644l-2.492 2.506c-2.642 2.581-6.115 5.466-9.966 5.466z" fill="#E45FC0"/><path d="M30.654 40.468c-.68 0-1.284-.227-1.813-.759l-2.491-2.505c-1.737-1.747-4.228-4.025-6.267-4.025h-.15c-2.039 0-4.53 2.278-6.267 4.025l-2.492 2.505a2.56 2.56 0 01-3.624 0 2.59 2.59 0 010-3.644l2.492-2.506c2.567-2.581 5.964-5.542 9.89-5.466h.076c3.926 0 7.323 2.96 9.89 5.466l2.492 2.506a2.589 2.589 0 010 3.644c-.453.532-1.057.76-1.736.76z" fill="#00E1E0"/><path d="M2.718 33.786c-.68 0-1.284-.227-1.812-.759a2.589 2.589 0 010-3.644l2.491-2.506C5.134 25.131 7.4 22.625 7.4 20.575V20.5c0-2.05-2.265-4.631-4.002-6.301L.906 11.691a2.589 2.589 0 010-3.645 2.56 2.56 0 013.624 0l2.491 2.506c2.567 2.581 5.512 5.998 5.436 9.946 0 3.949-2.944 7.365-5.436 9.947L4.53 33.027c-.453.532-1.133.76-1.812.76z" fill="#455BE6"/><path d="M37.297 33.788c-.68 0-1.284-.228-1.812-.76l-2.492-2.505c-2.567-2.582-5.511-5.998-5.436-9.947 0-3.948 2.945-7.364 5.436-9.946l2.492-2.505a2.56 2.56 0 013.624 0 2.589 2.589 0 010 3.644l-2.492 2.505c-1.736 1.747-4.001 4.252-4.001 6.302v.076c0 2.05 2.265 4.632 4.001 6.302l2.492 2.506a2.589 2.589 0 010 3.644 2.697 2.697 0 01-1.812.684z" fill="#27E7A2"/></g><defs><clipPath id="clip0_1103_490"><path fill="#fff" d="M0 0h151v41H0z"/></clipPath></defs></svg>