<svg width="833" height="832" fill="none" xmlns="http://www.w3.org/2000/svg"><path d="M393.437 418.289h-.309v.123l.062.063h.619c-.186-.062-.247-.125-.372-.186zm.496-.384l-.371-.186c-.125 0-.31 0-.434-.062v.124c.061 0 .061.062.124.062.124.062.433.062.681.062zm-.882.136v.125h.188c-.063-.063-.126-.063-.188-.125zm.077-.499v.063h.187c-.062 0-.125-.063-.187-.063zm3.749 7.997c.311-.186.558-.372.868-.62l.186-.185h-.124l-.558.372c-.186.186-.247.31-.372.433zm-3.002-6.514c0-.062.063-.062.063-.125h-.313c.063.063.188.063.25.125zm.745 1.056c.185.063.372.062.558.124.619-.062 1.3-.186 1.919-.247.063 0 .125-.063.186-.063h-.805c-.619.063-1.239.124-1.858.186zm-.433-1.425c-.062 0-.125-.062-.125-.062h-.742c.062.063.123.125.248.186h.619c-.062-.061-.062-.061 0-.124zm2.101 1.612c.123-.063.248-.124.371-.124-.31.062-.619.061-.93.124h.559zm-1.25-.488c-.31.063-.62.062-.929.062l-.062.063c.062.061.123.061.185.061.496-.061.991-.123 1.487-.186-.248.063-.496 0-.681 0zm3.056-2.424c-.125 0-.25-.064-.375-.064h.063s.125 0 .312.064zm-4.559-.56c-.062.063-.062.063-.062.125.186.062.371.061.557.061a3.915 3.915 0 01-.495-.186zm4.617 1.295c-.248-.061-.496-.061-.805-.123-.31 0-.557-.063-.867-.063l-.062.063c.124 0 .248.062.31.062.557.061.991.061 1.424.061zm.294-.362c-.248-.062-.557-.062-.805-.125-.124 0-.309 0-.434-.062 0 0-.061 0-.061.062.123 0 .186.063.309.063.372 0 .682 0 .991.062zm-1.828.12c-.062 0-.062 0 0 0 0 0 .125.062.187.062-.124-.063-.187-.062-.187-.062z" fill="#4620EB"/><path d="M397.373 417.662c-.124 0-.248 0-.371-.061-.062 0-.062.061-.125.061.372 0 .744.062 1.116.062-.186.063-.372 0-.62-.062zm2.107-.001c-.185-.062-.371-.062-.557-.125-.496-.062-.991-.123-1.548-.185.186.062.372.062.495.123.557.125 1.116.125 1.61.187z" fill="#4620EB"/><path d="M397.946 417.355c-.123 0-.309-.063-.432-.063l-.063.063c.372.062.682.062 1.054.124-.186-.062-.372-.062-.559-.124zm-3.67-.75c.124.062.309.123.434.186h.123c-.185-.063-.371-.124-.557-.186zm2.031 1.549h-.124c-.062.062-.124.062-.186.124h.93c-.186-.062-.372-.062-.62-.124z" fill="#4620EB"/><path d="M394.183 416.614c-.185-.063-.371-.063-.496-.124l-.062.061c.31.062.62.124.992.187-.186 0-.31-.062-.434-.124zm-.434-.258c-.063.063-.063.063 0 0a.19.19 0 00.124.063c-.062 0-.124 0-.124-.063zm2.174.563c.062-.062.062-.062 0 0-.124-.062-.31-.125-.434-.186-.557-.125-1.114-.248-1.672-.433.247.062.434.185.681.247.496.186.991.247 1.425.372zm-.654.12c-.124-.062-.309-.125-.434-.186-.434-.062-.867-.186-1.3-.248 0 0 0 .062-.062.062.062 0 .123.061.186.061.557.125 1.115.249 1.61.311zm.728 11.028c0 .062.062.062.062.125l.062-.063.186-.371a.745.745 0 01-.31.309zm-.268-2.652l.064.062c0-.062.062-.124.062-.187a.134.134 0 01-.126.125zm-.089 1.18c0 .062-.064.188-.064.25.063-.062.188-.125.25-.188l-.124-.124c0 .062-.062.062-.062.062zm95.453 136.881c-.31.433-.557.929-.867 1.363.123-.186.248-.372.31-.496.247-.247.372-.558.557-.867zm-89.535-145.81c.371 0 .805.062 1.177.062h.062c-.558 0-1.115-.062-1.673-.062.124-.062.309 0 .434 0z" fill="#4620EB"/><path d="M400.473 417.542c.186 0 .311.062.496.062.62.063 1.239.063 1.859.125h.309-.186c-.805-.062-1.673-.125-2.478-.187zm-4.786 7.188c-.062.124-.125.186-.187.31.248-.124.496-.31.744-.434-.124 0-.186-.062-.248-.062-.123.062-.248.124-.309.186zm12.464-5.706c-.124.061-.311.124-.434.248-.062 0-.062.062-.123.062a1.404 1.404 0 00-.311.185c.248-.123.557-.309.805-.433.063-.062.125-.062.186-.124.062 0 .125-.062.186-.062-.124.062-.247.124-.309.124zm-11.52 4.218c-.185.063-.371.186-.557.248h.248c.124-.123.186-.185.309-.248z" fill="#4620EB"/><path d="M408.34 418.957s-.062 0-.062.062c0-.062 0-.062.062-.062zm-11.055 5.777h-.248c-.123.062-.186.124-.309.185-.124.125-.186.248-.31.373.248-.186.558-.372.867-.558zm3.035-7.001c.31.063.558.063.867.063h1.239c-.309 0-.619 0-.867-.063a4.085 4.085 0 01-1.239 0zm-1.721.612c.309.063.62.063.991.063.496 0 .991-.063 1.487-.063h.061-2.539zm1.192.432h.185c.125-.063.186-.063.311-.125-.558.062-1.053.062-1.611.125.372-.063.743 0 1.115 0zm.963-.312c.062 0 .062 0 .124-.062-.186 0-.372 0-.558.062h.434zm-1.692.688c.062 0 .062 0 .123-.062-.123 0-.309 0-.434.062h.311zm-1.916-.129c.309 0 .557.062.866.062.496-.062.991-.062 1.487-.124.062 0 .124-.062.186-.062h-.557c-.62.062-1.302.124-1.982.124zm5.138-1.11h-.434c.125-.062.248 0 .434 0zm-1.504-.257c.248 0 .558.062.805.062h.991c-.619 0-1.177 0-1.796-.062zm-3.217 1.988c.123 0 .309-.061.434-.061.185-.062.309-.124.494-.186-.619.062-1.238.186-1.919.247.309-.061.619 0 .991 0zm3.639-1.543h.558c.062 0 .123-.061.185-.061h-1.548c.248.061.495.061.805.061zm-1.455.114c.309 0 .619.062.929.062.248 0 .496.001.743-.062.062 0 .062 0 .124-.062h-.434c-.433 0-.867.062-1.362.062zm-5.56-.733c-.124-.062-.31-.124-.434-.185-.124 0-.248-.062-.371-.062 0 .062 0 .062-.062.123h.062c.247.062.495.062.805.124zM135.273 368.67a81.968 81.968 0 011.177-3.655c-.311 1.052-.682 2.044-.991 3.097-.125.247-.186.372-.186.558zm256.745 47.193c.124.062.186.124.31.187.186.061.31.123.495.123 0-.062.063-.123.063-.123-.31-.063-.557-.187-.868-.248v.061zm.685.996c-.062 0-.125 0-.187-.063.062.063.125.126.187.126v-.063zm-.608-.369l.186.186c.124 0 .247.062.372.062v-.062c-.063-.062-.125-.063-.248-.125-.062 0-.186 0-.31-.061zm.497.861l.062.061v-.061h-.062zm.042-.804h.125v-.124c-.125-.061-.311-.061-.434-.123.061.123.186.185.309.247zm6.028.875c.558.062 1.178.123 1.735.185a3.62 3.62 0 01-.805-.124c-.619-.062-1.239-.124-1.796-.247.309.062.557.123.866.186zm-.495 1.923c-.309 0-.68 0-.991-.062-.619.062-1.3.124-1.981.186.248.061.433.062.681.124a32.26 32.26 0 012.291-.248zm-3.746-1h-.374c.124.063.187.063.312.126 0-.063.062-.126.062-.126z" fill="#4620EB"/><path d="M402.58 417.719c-.248 0-.495 0-.743-.062h-.063c.125 0 .311 0 .434.062h.372z" fill="#4620EB"/><path d="M399.249 417.485c.31.062.62.062.929.124.558.061 1.178.061 1.735.061-.248 0-.496-.061-.743-.061-.682 0-1.301-.062-1.921-.124zm-4.505 1.668c-.062.063-.124.063-.124.124.062 0 .124 0 .185.062.62-.062 1.178-.062 1.798-.123-.248 0-.559-.063-.806-.125-.31.062-.681.062-1.053.062zm-3.098-3.231c-.062 0-.062 0-.124-.063v.063l.124.125c.062 0 .062 0 .125.062 0 0 0-.062-.063-.062 0-.062-.062-.062-.062-.125zm-2.165-2.041l.372.186-.124-.124a4.206 4.206 0 00-.619-.495c-.62-.496-1.178-1.054-1.797-1.55a32.346 32.346 0 002.168 1.983zm1.887 1.749c0 .062.063.125.125.187h.062l-.187-.187zm.313.047c-.063 0-.063 0 0 0-.125-.062-.25-.124-.313-.124.125.124.25.187.375.312-.062-.062-.062-.125-.062-.188zm46.326-135.461c-.123-.062-.185-.186-.309-.248.124.124.309.248.434.31-.062 0-.062-.062-.125-.062zm-45.835 136.58v.126c.062 0 .124 0 .186.062 0-.062-.124-.125-.186-.188zm-.077-.496v.124c.063 0 .125.062.187.062-.062-.062-.124-.186-.187-.186zm.481-.002l-.372-.186c-.062 0-.123-.062-.186-.062v.062c.063 0 .063.062.124.062.124.062.31.062.434.124zm.047.872l-.062-.063c-.125 0-.188-.062-.312-.062l.187.188h.187c.063 0 0-.063 0-.063zm1.284.061c.309.062.557.062.867.123a4.046 4.046 0 01-.496-.185c-.248-.062-.557-.061-.805-.124.123.063.309.124.434.186zm.494 2.357l-.125.126c.125 0 .25 0 .375-.063-.063 0-.187-.063-.25-.063zm5.155-1.547h-1.301c.248.061.496.061.743.124h1.487c-.31-.063-.62-.063-.929-.124zm-1.797-.064h1.238c-.185 0-.371-.062-.619-.124-.495 0-.929-.062-1.425-.062.311.062.558.123.806.186zm-1.685.368c.248.063.434.125.681.125h1.487c-.248 0-.434-.062-.682-.125-.433.063-.991 0-1.486 0zm2.973.193c-.557 0-1.115.061-1.672.061.247.062.495.062.743.062.62 0 1.239-.062 1.92-.062-.372 0-.681-.061-.991-.061zm-.061-.742c-.371 0-.743-.063-1.114-.063.186.063.434.063.619.124.434 0 .868.062 1.301.062-.247-.062-.495-.062-.806-.123zm-1.037-.445c.186.062.434.062.62.123.247 0 .495.062.743.062-.31-.062-.62-.062-.991-.123-.063 0-.186 0-.372-.062zm-.547 1.435c-.557 0-1.114.062-1.673.062.248.062.496.062.744.124.62 0 1.239-.062 1.797-.124-.31 0-.558 0-.868-.062zm2.624-1.124c-.31 0-.62-.061-.929-.061.247.061.495.061.743.123.371 0 .743.063 1.115.063-.31-.063-.619-.125-.929-.125zm-1.695-.061c.31.061.619.061.867.123.434 0 .805.063 1.239.063-.186 0-.434-.063-.619-.063-.434 0-.929-.062-1.487-.123zm2.731.252c-.434 0-.805 0-1.239-.062.372.062.682.062 1.053.123h.868c-.248 0-.434.001-.682-.061zm-.555.115c-.496 0-.991-.001-1.487-.063.186.062.434.063.619.063h1.548-.68zm-1.908.262h-1.301c.248.062.496.062.744.124h1.486c-.309-.062-.619-.124-.929-.124zm-3.673.789h.375c-.125 0-.187-.062-.313-.062 0 0 0 .062-.062.062zm0-1.783c.124.062.31.123.434.123l.062-.061c-.186 0-.31-.062-.496-.062zm1.955 1.483c-.248-.063-.495-.062-.743-.125h-.682c-.062.063-.123.125-.185.125h1.61zm-2.11-.742c.062-.063.062-.062.125-.124-.186 0-.434-.062-.62-.062.124.062.309.123.495.186zm-.305-.861c.309.062.68.124.991.124l.062-.062c-.496-.062-1.053-.186-1.549-.248.185.062.371.124.496.186zm.678.483l.123-.125h-.062c-.309-.061-.62-.061-.929-.123.186.062.309.123.495.185.125 0 .248 0 .373.063zm2.575-.439c.372.124.806.124 1.177.185-.371 0-.744-.123-1.177-.185zm-3.812.507c.309.062.68.062.99.123a72.739 72.739 0 01-.557-.186c-.31 0-.558-.062-.867-.062.186 0 .309.062.434.125zm1.768-.551c-.124-.062-.247-.124-.372-.124-.061 0-.123 0-.185-.062.185.062.31.124.495.186h.062zm-.268-.191c.124 0 .247.062.309.062l.063-.062-.93-.186.558.186zm-.82 1.244c-.061-.062-.185-.062-.247-.124-.31 0-.558-.063-.867-.063l.371.187c.248 0 .496.062.743.062v-.062zm4.569 7.123c-.062.061-.123.061-.123.123-.186.186-.31.372-.434.497.372-.373.743-.682 1.115-1.054l.124-.124h-.062c-.248.248-.434.372-.62.558zm3.734-3.235c-.31.185-.558.371-.868.556-.062.063-.185.125-.248.249h.063l.557-.372c.186-.123.31-.309.496-.433zm-1.766.935h.124c.185-.185.433-.31.619-.495-.186.123-.433.31-.743.495zm-.344.011h.124c.186-.124.309-.248.495-.372-.186.124-.434.248-.619.372zm2.014-1.367c-.495.248-.929.558-1.425.867l-.743.557c.434-.248.868-.557 1.302-.805.247-.248.557-.433.866-.619zm-.187.498c-.372.248-.681.434-1.053.681-.062.062-.124.062-.124.124h.124c.062-.062.186-.124.248-.186.247-.248.495-.434.805-.619zm1.367-.568c-.063.062-.186.124-.248.186.433-.247.805-.557 1.239-.805-.063 0-.063.062-.124.062-.31.123-.619.371-.867.557zm-1.893 1.299l.06-.062c-.06 0-.06 0-.06.062zm2.946-2.031c.433-.31.928-.557 1.362-.805-.186.124-.371.186-.557.309-.248.186-.496.372-.805.496zm-1.337.848c-.123.063-.186.125-.309.248.062 0 .062-.061.123-.061l.434-.31c-.123.062-.186.062-.248.123zm-1.763 1.194l.558-.372c.309-.185.557-.434.867-.619-.31.185-.558.371-.867.557a3.407 3.407 0 00-.558.434zm-6.198 4.832c0 .062.063.062.063.123.062-.061.124-.123.248-.186.062-.123.123-.247.123-.309a2.612 2.612 0 01-.434.372zm.421.616l.373-.371c.061-.125.123-.187.185-.31l-.433.433c-.062.124-.063.186-.125.248zm.077-2.542c.063 0 .062.063.125.063.062-.063.124-.125.124-.249-.062.062-.124.124-.249.186zm.574 1.913l.187-.187h-.062c-.063.062-.063.125-.125.187zm1.209-1.298l.125-.123c.123-.124.186-.248.309-.372l-.495.495h.061zm-2.089.995l.371-.371c-.061 0-.061-.063-.123-.125-.063.062-.124.062-.124.125-.062.185-.062.309-.124.371zm.621-.19c-.062 0-.124.063-.124.125 0-.062.062-.062.124-.125zm1.934-1.492c-.247.186-.433.434-.68.62h.123l.248-.249c.124-.123.248-.248.309-.371zm-1.843.141l-.061.063c.061 0 .061.062.123.062.124-.125.248-.186.372-.311.124-.123.186-.309.31-.433-.186.248-.434.434-.744.619zm1.747-.447c-.247.186-.495.434-.743.62l-.186.186h.063c.185-.124.309-.247.495-.434.124-.124.248-.247.371-.372zm-1.158.755c.062 0 .123 0 .123.062.125-.124.186-.248.311-.434-.125.124-.311.248-.434.372zm10.113-6.641c-.124.061-.31.186-.433.248.185-.125.371-.187.557-.311-.062 0-.062 0-.124.063zm-11.633 8.933v-.063l-.126.126v.187c.063-.062.063-.125.126-.125v-.125zm-.126-.066l.064-.064c0-.062-.001-.062-.064-.124.063 0 0 .062 0 .188zm.31-1.547c-.123.063-.185.186-.31.249v.061c0 .062 0 .062.063.124.062-.062.124-.124.185-.124-.061-.124 0-.247.062-.31zm-.31.56c0 .063 0 .063.064.125 0-.062.062-.125.062-.187-.063 0-.063.062-.126.062zm.467-2.292c.063-.124.186-.248.249-.372-.311.186-.559.31-.868.496l.123.123c.186-.061.372-.185.496-.247zm1.177-2.242c.31-.186.62-.372.991-.558-.929.372-1.858.743-2.787 1.177h.434a9.055 9.055 0 011.362-.619zm-1.299 5.032s0 .061.062.061c0-.062.062-.124.062-.124-.062 0-.062.063-.124.063zm1.607-3.101l.061-.061h-.061c.061.061 0 .061 0 .061zm-1.952 4.207c0-.063.064-.187.064-.251 0 0-.064.064-.064.126v.125zm5.776-8.169c-1.548.557-3.16 1.176-4.831 1.795-.373.186-.62.372-.868.558 1.239-.495 2.416-.991 3.592-1.425.62-.309 1.302-.619 2.107-.928zm-5.574 7.804c-.062.126-.062.188-.125.312l.188-.187c0-.063 0-.125-.063-.125zm9.056-8.617a74.124 74.124 0 014.213-1.672c.681-.248 1.425-.558 2.106-.806-1.486.496-3.097 1.116-4.646 1.735-.619.248-1.177.496-1.673.743zm3.347-1.604c.434-.123.868-.309 1.301-.434-.123.063-.247.063-.371.125a387.807 387.807 0 00-9.167 3.035c-.93.371-1.735.681-2.416.991 2.23-.806 4.46-1.61 6.565-2.353a105.64 105.64 0 014.088-1.364zm-.4.297c1.3-.495 2.539-.928 3.778-1.362-.061 0-.186.062-.248.062l-1.671.557c-.62.31-1.239.557-1.859.743z" fill="#4620EB"/><path d="M407.747 419.273c.061-.062.186-.062.247-.124-.186.062-.372.185-.557.31.123-.062.185-.124.31-.186z" fill="#4620EB"/><path d="M407.87 419.207c-.062 0-.062.062-.123.062-.125.062-.187.124-.31.185.123-.061.31-.185.433-.247zm.188-.111c-.062 0-.062.061-.124.061l.743-.371h-.062c-.186.124-.371.185-.557.31zm-.682-.56c-1.734.558-3.283 1.053-4.645 1.549 1.921-.619 3.84-1.239 5.636-1.796-.371.061-.681.186-.991.247zm1.505-.306c-.186.062-.372.125-.62.187l-.557.186c.372-.125.743-.248 1.177-.373z" fill="#4620EB"/><path d="M402.655 420.45c1.486-.557 2.973-1.116 4.459-1.611.929-.31 1.859-.681 2.911-.99-1.486.495-3.035.991-4.583 1.548-1.053.371-1.982.681-2.787 1.053z" fill="#4620EB"/><path d="M405.83 419.339a70.206 70.206 0 013.283-1.177c.557-.186 1.177-.433 1.796-.62-.062 0-.062 0-.124.062-.743.248-1.549.496-2.292.806-.99.31-1.858.619-2.663.929z" fill="#4620EB"/><path d="M410.629 417.657c-.063 0-.063 0 0 0-.248.062-.496.186-.744.248.185-.062.496-.186.744-.248zm-8.656 4.284c-.557.311-1.115.62-1.672.93-.063.062-.186.123-.248.186h.185c.248-.124.496-.311.744-.434.309-.186.62-.434.991-.682zm6.305-3.041c-.123.062-.248.124-.371.124-.372.186-.682.309-1.054.495-.371.186-.805.434-1.176.62.743-.372 1.424-.743 2.167-1.115a.893.893 0 00.434-.124zm-2.961 1.246c.371-.185.68-.372 1.052-.558-.433.186-.805.373-1.238.558-.31.124-.62.309-.93.434-.248.123-.495.309-.743.432.681-.247 1.239-.556 1.859-.866z" fill="#4620EB"/><path d="M404.262 420.635c.125-.061.248-.123.311-.185-.991.496-1.921.991-2.912 1.487a8.984 8.984 0 00-.805.557l2.044-1.115c.434-.248.867-.496 1.362-.744zm-3.978 2.112c-.247.123-.495.309-.805.432h.248c.185-.185.371-.309.557-.432zm4.988-2.223c-.248.186-.495.31-.743.496a9.838 9.838 0 011.114-.619c.125-.063.31-.186.434-.248.062-.062.124-.062.186-.124-.372.186-.681.372-.991.495zm-5.683 4.267l-.187.187c.125-.062.187-.124.187-.187.063 0 .063 0 0 0zm-.197 0l-.372.372c.123-.124.31-.248.434-.372h-.062zm5.133-4.027c-.309.185-.681.432-.991.618l1.301-.743c.248-.186.495-.309.806-.495-.434.247-.806.433-1.116.62zm1.86-.922c.186-.125.372-.248.62-.311-.681.372-1.363.682-2.044 1.053l-.929.558c.186-.124.434-.247.62-.372.557-.309 1.114-.619 1.733-.928z" fill="#4620EB"/><path d="M407.24 419.459c.185-.125.371-.186.557-.31-.062.062-.186.062-.248.124-.309.124-.62.31-.867.434-.185.124-.433.247-.619.372-.124.062-.186.123-.31.185.434-.248.991-.496 1.487-.805z" fill="#4620EB"/><path d="M406.679 419.765c.062 0 .062-.062.123-.062l-.371.186-.372.186c.186-.124.434-.248.62-.31zm-4.799 1.928c-.557.31-1.176.62-1.735.929l-.743.558c.496-.31.991-.558 1.487-.867.31-.186.62-.372.991-.62zm-3.129 1.295l2.231-1.116c.309-.185.681-.371 1.052-.619-.805.373-1.548.744-2.353 1.116-.371.248-.682.433-.93.619zm-.049.323c.248-.125.434-.248.682-.371.248-.186.557-.373.867-.558-.619.31-1.301.619-1.92.99.124-.061.248-.061.371-.061zm-1.959 4.082l-.063.062-.185.371.371-.371c-.062-.062-.123-.062-.123-.062zm1.994-2.602c-.061 0-.061.062-.061.062l.061-.062zm6.47-4.654c.432-.248.866-.434 1.3-.682-1.053.434-2.044.93-3.097 1.425-.372.248-.805.434-1.177.682.991-.496 1.982-.991 2.974-1.425zm-6.221 4.654h-.123a3.36 3.36 0 00-.557.434c-.125.186-.248.309-.434.495.309-.247.557-.433.867-.681.124-.124.186-.185.247-.248zm-1.114 1.412c.309-.309.619-.557.929-.805.124-.123.248-.248.371-.434-.309.248-.619.496-.866.744-.186.186-.311.309-.434.495zm1.27-1.407c-.062.062-.062.062-.124.062-.186.186-.31.372-.496.495.248-.186.496-.433.744-.619-.062.062-.124.062-.124.062z" fill="#4620EB"/><path d="M398.921 425.403c.124-.186.31-.311.434-.496-.248.185-.434.371-.682.558-.185.186-.309.371-.496.557.248-.186.496-.434.744-.619zm-1.017 0c.123-.186.309-.311.432-.496l-.743.558c-.123.124-.248.309-.371.433.186-.124.434-.31.682-.495zm-.032-.24l.557-.372h-.186l-.371.372zm.089-1.977c-.123.061-.247.123-.433.185h.124a.661.661 0 00.309-.185zm6.568-2.485a41.597 41.597 0 012.353-1.176c.434-.248.93-.434 1.364-.682-.868.372-1.673.744-2.54 1.178-.434.247-.806.433-1.177.68zm-1.951.434c1.301-.619 2.54-1.177 3.84-1.672.496-.248.991-.434 1.487-.62a70.256 70.256 0 00-4.026 1.673c-.434.186-.868.371-1.301.619zm5.017-2.349c-1.115.371-2.168.805-3.345 1.239l-1.672.743c1.115-.433 2.168-.867 3.22-1.301.62-.248 1.178-.496 1.797-.681zm-7.198 3.154c.867-.433 1.796-.805 2.664-1.176.433-.187.866-.434 1.362-.62-.929.372-1.858.806-2.849 1.177-.372.186-.805.434-1.177.619zm6.827-2.421c.371-.186.743-.371 1.177-.619-.063.062-.125.062-.186.124-.372.186-.805.372-1.178.62-.185.123-.371.248-.557.309l.744-.372c-.062-.062 0-.062 0-.062z" fill="#4620EB"/><path d="M406.327 419.719c.681-.309 1.424-.681 2.106-.991-.31.124-.682.248-.992.434-.309.186-.743.371-1.114.557zm-6.848 2.152c1.239-.495 2.477-1.053 3.716-1.486a41.06 41.06 0 012.23-.93c-1.425.496-2.849 1.053-4.274 1.611-.682.31-1.176.557-1.672.805zm-3.405 3.784c.061 0 .061.062.123.062.186-.124.372-.247.62-.434.124-.124.248-.247.31-.433-.31.186-.682.433-.992.62 0 .123 0 .123-.061.185zm.124 1.914c-.063.125-.124.186-.124.311l.372-.372a.471.471 0 00.123-.248h-.061c-.125.123-.248.186-.31.309zm.755-4.139h.372c.434-.186.805-.433 1.239-.619.31-.186.619-.372.991-.62-.805.372-1.672.743-2.478 1.177-.061 0-.061.062-.124.062zm9.93-3.722c.061 0 .061-.062.124-.062-.31.124-.557.31-.868.496a.462.462 0 01-.247.123l-.062.062a27.18 27.18 0 011.239-.681c-.062 0-.125.062-.186.062z" fill="#4620EB"/><path d="M397.719 423.001c.929-.434 1.92-.868 2.85-1.239.433-.248.867-.434 1.362-.681-1.053.433-2.168.929-3.282 1.363a2.322 2.322 0 00-.93.557zm7.552-3.11c-.434.186-.805.434-1.239.62 1.053-.495 2.105-.992 3.159-1.425.31-.124.681-.31.99-.434-.185.062-.432.186-.619.248-.681.31-1.486.682-2.291.991zm-1.331 1.438c-.186.124-.433.248-.619.372-.247.185-.495.371-.743.495.248-.124.433-.31.681-.433.248-.186.495-.31.681-.434zm-2.319 1.297c.31-.186.62-.372.868-.558.31-.247.681-.433.991-.681-.372.186-.744.434-1.115.681l-.744.558z" fill="#4620EB"/><path d="M401.709 421.569l-.929.557a30.35 30.35 0 012.044-.991c.619-.371 1.301-.681 1.983-.991-1.054.495-2.107.929-3.098 1.425zm4.957-1.919c.062 0 .123-.062.123-.062l-1.114.558c-.186.124-.31.186-.496.309.557-.309 1.053-.557 1.487-.805z" fill="#4620EB"/><path d="M405.709 420.152c.248-.124.496-.247.682-.372-.805.434-1.61.805-2.478 1.301-.309.186-.682.434-.991.62.495-.31.991-.557 1.487-.805a6.907 6.907 0 011.3-.744zm-1.631.987c-.373.186-.744.434-1.116.619a9.195 9.195 0 00-.805.558c.371-.247.743-.495 1.115-.681.247-.124.558-.31.806-.496zm1.181-.437c-.124.063-.186.124-.309.186.248-.185.557-.309.805-.495-.186.124-.31.247-.496.309z" fill="#4620EB"/><path d="M405.383 420.585c-.124.125-.31.186-.433.311.248-.186.557-.311.805-.496.31-.186.681-.372 1.053-.62-.496.248-.93.496-1.425.805zm-.603.362c-.31.185-.619.371-.929.558-.309.185-.62.432-.929.619.372-.248.682-.496 1.053-.682.31-.185.558-.371.805-.495z" fill="#4620EB"/><path d="M404.671 421.018c-.124.062-.248.186-.372.248.248-.123.434-.31.681-.433-.123.062-.247.123-.309.185zm-1.118.181c.309-.186.557-.372.866-.558-.495.247-1.053.557-1.548.805-.31.186-.557.372-.867.558.496-.248.991-.496 1.549-.805zm63.233 173.183c.248-.31.557-.558.805-.867-.248.309-.495.557-.805.867 95.946 99.663 208.802 151.816 251.479 116.139l9.848-10.469.063-.061c-4.212 4.397-9.849 7.68-16.972 9.724-50.729 14.495-157.949-39.456-239.463-120.537-.124.125-.248.248-.371.434.123-.123.247-.248.371-.434-55.623-55.25-84.92-108.892-81.824-141.968-3.407 24.034 6.566 69.684 76.869 147.172z" fill="#4620EB"/><path d="M478.257 581.442c90.99 81.576 221.809 143.331 264.3 101.706a46.35 46.35 0 001.611-2.043l6.379-8.238c.248-.31.434-.558.682-.868-4.088 4.894-10.097 8.61-18.087 10.902-50.729 14.494-162.842-33.447-250.488-107.158-57.666-48.499-90.31-96.069-91.424-127.039-.558 23.909 14.989 65.594 87.027 132.738zm-37.289-298.797c-.061-.062-.186-.124-.247-.187.061 0 .123.063.247.187C526.942 167.311 640.913 77.683 675.414 98.248l-11.831-9.478c-29.545-21.121-138.066 58.534-228.561 189.105-20.44 30.661-64.109 101.955-48.5 131.563-5.76-12.389-4.273-44.598 54.446-126.793zm-2.973-2.416c.063 0 .062.062.124.062a1.878 1.878 0 00-.434-.309c.124.061.187.185.31.247z" fill="#4620EB"/><path d="M361.052 241.266c-.123-.061-.309-.061-.433-.123a.895.895 0 00.433.123C381.493 130.269 439.16 28.5 489.827 14.006c7.309-2.106 14.061-2.23 20.255-.681l-9.725-2.354c-2.601-.62-5.327-1.177-8.053-1.796C444.177 2.609 377.653 92.36 353.681 239.47c-8.795 62.808-6.38 132.925 22.176 163.834-21.804-26.325-28.679-86.593-14.805-162.038z" fill="#4620EB"/><path d="M324.831 235.437c.434-114.219 41.872-218.59 92.601-233.145a46.25 46.25 0 018.487-1.549c-4.77-.31-9.478-.495-13.814-.743-48.932 2.787-97.246 90.186-94.955 235.065 2.602 66.153 19.821 143.207 58.783 171.637-30.537-24.775-51.412-89.442-51.102-171.265z" fill="#4620EB"/><path d="M811.541 445.53c-50.729 14.494-180.433 19.635-289.697 11.521-75.629-5.636-121.589-16.166-125.987-26.944.124-.185.31-.371.434-.557 6.503 8.485 51.968 14.927 125.367 16.166 109.14 1.92 238.782-8.362 289.512-22.856 13.936-3.964 20.502-7.866 20.316-11.46l-.123-2.849-.186-2.663a282.206 282.206 0 00-.744-9.353c-.805 2.974-7.371 6.318-20.316 10.035-50.73 14.494-180.124 28.368-289.016 31.032 0 .185 0 .371.062.557 0-.186 0-.372-.062-.557-71.417 1.734-116.262-1.858-124.377-8.548l.93-1.116c10.343 4.213 54.136 3.965 122.271-1.61v-.247c0 .061-.001.186.062.247 108.271-8.856 237.108-27.749 287.838-42.305 12.759-3.655 19.387-6.69 20.378-9.043a901.237 901.237 0 00-2.167-15.733c-4.399 9.724-145.685 38.712-307.227 59.091-39.332 4.832-103.378 11.769-119.916 8.301.619-.62 1.176-1.239 1.858-1.859 14.307-.433 55.188-6.442 116.014-17.468 106.477-19.325 233.826-46.765 284.556-61.259 14.184-4.088 20.875-6.69 20.812-7.928-.062-.186-.062-.434-.124-.62l-3.035-12.759c-.124-.434-.247-.867-.309-1.363-.248.806-7 3.097-20.998 7.124-50.73 14.494-177.275 45.402-282.76 69.002 0 .061 0 .061.062.123 0-.062 0-.062-.062-.123-56.675 12.698-95.698 20.687-111.803 23.104 1.487-1.178 2.973-2.355 4.584-3.408.062 0 .124-.061.124-.061.123-.062.309-.124.434-.248l.68-.31c.187-.124.434-.186.682-.31.124-.062.248-.124.371-.124h.063c.619-.247 1.301-.495 1.981-.743h.063l1.858-.743c19.45-5.512 53.021-15.052 97.867-27.749a1.139 1.139 0 01-.125-.434c.062.124.125.309.125.434 103.749-29.484 228.994-65.162 279.724-79.656 14.432-4.15 21.246-6.071 21.307-6.132l-4.708-14.247c-.186-.433-7.123 1.239-21.555 5.389-50.73 14.494-174.859 53.517-277.246 87.151-53.765 17.653-90.806 30.289-106.6 36.235a60.294 60.294 0 01-4.646-.744c12.203-6.998 49.924-23.227 107.406-45.773 100.281-39.271 222.676-82.878 273.406-97.433 13.627-3.902 20.687-5.327 21.803-4.522-.434-1.115-.868-2.23-1.363-3.345l-4.274-10.035c0-.061-.062-.123-.062-.185-4.832-6.379-143.516 43.296-292.546 108.272-35.678 15.671-93.035 41.749-106.166 52.526-.743-.186-1.549-.371-2.292-.619 6.379-8.734 43.358-31.095 103.812-61.756 96.009-48.684 214.935-99.971 265.664-114.466 14.246-4.088 21.556-4.831 22.67-2.725l-5.264-10.096c-.062-.062-.063-.124-.124-.186l-1.425-2.663c0-.063-.062-.062-.062-.125-1.363-2.477-8.857-1.982-22.98 2.106-50.729 14.495-168.045 68.817-262.071 121.343 0 0 0 .061.061.061 0 0 .001-.061-.061-.061-60.95 34.067-97.124 58.967-101.212 68.32-.185-.063-.309-.124-.494-.124-.186-.062-.372-.186-.558-.248 1.115-10.22 35.864-38.651 96.813-77.301 90.991-57.667 205.891-116.201 256.621-130.695 13.875-3.965 21.493-4.213 23.413-1.364-.062-.061-.062-.123-.123-.185l-7.743-12.14c0-.062-.062-.062-.062-.125-2.23-3.22-9.972-3.158-23.786.806-50.729 14.494-163.771 75.939-252.47 137.198-60.516 41.811-94.087 72.719-93.221 83.558-.186-.062-.371-.185-.557-.247-3.592-11.583 28.06-45.961 87.646-92.106 85.292-66.153 195.609-131.501 246.338-146.056 13.628-3.902 21.618-3.717 24.281-.125l-1.549-2.044-6.875-8.981c-.248-.309-.496-.681-.805-.991-3.159-3.654-11.15-3.84-24.343-.062-50.73 14.494-158.94 82.629-241.692 152.126-58.658 49.243-88.762 85.974-83.31 98.053-.125-.062-.187-.124-.31-.124-7.991-12.698 19.758-52.711 76.806-106.166 78.974-74.081 184.15-145.933 234.88-160.427 13.13-3.778 21.307-3.282 24.9.744l-.125-.125-9.848-10.963c-3.902-4.15-12.203-4.707-25.148-1.053-50.73 14.494-153.613 88.885-229.738 166.125-55.623 56.366-81.637 98.734-71.851 111.803l-.062-.062c-.062-.061-.124-.062-.186-.124-11.955-13.689 11.397-59.029 64.666-119.298-.124-.123-.248-.186-.309-.309.123.123.248.186.309.309 72.037-81.452 171.576-159.249 222.305-173.743 12.512-3.593 20.874-2.973 25.333 1.176l-.371-.371-9.662-9.167c-.31-.309-.619-.557-.93-.868-4.769-4.149-13.193-4.769-25.395-1.3-50.73 14.494-147.791 94.645-216.793 179.008l.248.248c-.062-.062-.186-.123-.248-.185-49.614 60.64-71.232 106.971-60.578 122.767a24.094 24.094 0 01-1.858-2.974c.868 1.92 1.982 3.407 3.035 4.459-.186-.123-.371-.247-.495-.433.186.186.433.372.619.496l.124.123a32.112 32.112 0 01-.371-.186 32.594 32.594 0 01-2.169-1.982c.558.558 1.178 1.054 1.797 1.549a27.648 27.648 0 01-2.974-3.035c-14.06-18.892-.123-71.232 40.448-138.809l-.063-.063h.063c56.614-94.273 143.578-182.477 194.307-196.97 10.407-2.974 18.459-2.602 24.22.619l-2.974-2.044-8.423-5.637c-6.071-3.84-14.494-4.522-25.396-1.363-50.73 14.495-134.907 104.556-187.99 201.184-35.864 65.161-48.376 116.697-37.164 138.809-10.159-16.972-13.07-55.808 28.12-144.322-.123-.062-.248-.123-.371-.248.123.062.248.125.371.248C465.417 150.135 566.194 36.226 615.128 56.233c-.806-.495-1.611-.93-2.417-1.425l-7.557-4.212c-.123-.062-.247-.123-.432-.247L601.81 48.8h-.062c-39.766-18.272-132.491 67.391-197.096 209.36-12.388 28.306-48.436 118.987-19.201 151.692a18.786 18.786 0 003.841 3.84c-.062-.061-.125-.061-.186-.123-1.424-.929-2.911-1.982-4.46-3.345-20.936-20.316-18.397-80.028 10.53-156.834-.125-.061-.186-.123-.31-.123.124.062.185.123.31.123C434.447 149.144 507.35 52.888 558.08 38.394c9.477-2.725 17.467-2.354 24.033.62l-12.76-5.637c-.991-.434-1.982-.805-3.035-1.239-6.256-2.23-13.627-2.23-22.051.124-50.729 14.494-120.536 112.112-156.028 218.093-24.839 74.267-26.201 132.925-7.248 156.339-15.113-16.725-29.112-58.039-2.601-160.179 0 0-.062 0-.062-.063 0 0 .062.001.062.063C411.343 130.252 488.644 10.582 546.931 24.581c-.868-.31-1.797-.62-2.664-.929l-11.521-3.84c-.557-.186-1.114-.372-1.734-.558-6.194-1.796-13.194-1.672-20.874.496-50.73 14.494-112.918 114.961-138.995 224.349-19.078 80.027-13.442 142.711 10.778 164.886-2.23-1.734-4.274-3.655-6.195-5.761 2.23 2.726 4.584 5.08 7.123 7-26.324-18.397-47.508-70.674-39.765-172.814C354.604 122.509 407.007 1.044 471.549 5.132l-10.654-1.487c-3.283-.372-6.689-.743-10.158-1.115a42.7 42.7 0 00-11.893 1.673c-50.73 14.494-96.999 118.431-103.317 232.091-4.831 86.346 14.742 153.428 46.703 174.426-2.168-1.239-4.336-2.602-6.38-4.089 4.893 3.964 10.034 6.938 15.361 8.734.063.062.125.186.186.248-41.067-12.575-76.559-84.92-84.424-180.62-9.478-114.403 23.97-218.96 74.7-233.454 2.478-.681 4.893-1.176 7.309-1.424-5.327.186-10.716.433-15.609.805-2.354.247-4.707.743-7.124 1.425-50.729 14.494-80.708 118.864-67.019 233.082h.495c-.186 0-.309 0-.495.063 11.52 95.822 50.109 168.168 92.229 180.371.063.061.063.123.124.186-43.482-11.707-86.469-83.806-102.884-179.504-1.362.185-2.724.371-4.149.557 1.363-.186 2.725-.372 4.149-.557-19.51-113.662 5.761-217.537 56.429-232.03a29.17 29.17 0 013.158-.744c-3.778.496-7.494 1.053-10.777 1.487l-2.478.433c-1.61.248-3.221.62-4.769 1.115-50.73 14.494-72.656 117.874-48.995 230.915.681-.123 1.363-.248 2.044-.309-.681.124-1.363.247-2.044.309 19.945 95.451 66.028 167.24 110.44 178.514.062.061.063.123.124.185-45.65-10.716-96.008-81.885-120.784-176.655-.062 0-.125 0-.125.062.063 0 .125.001.125-.062-29.298-111.927-11.893-214.376 38.775-228.87.185-.063.433-.125.619-.187-.186.062-.31.062-.496.124l-8.362 2.106c-2.539.681-5.079 1.3-7.432 1.982-49.615 15.919-63.242 116.758-30.289 226.704a15.746 15.746 0 001.61-.434c-.557.123-1.053.309-1.61.434 28.245 94.15 81.575 164.7 128.093 174.982.062.062.062.123.124.186-47.633-9.663-105.052-79.16-138.004-172.196-37.784-106.847-29.298-205.147 18.458-223.048l-12.017 4.274c-.866.31-1.796.681-2.663.991-46.765 18.768-51.906 115.396-10.654 220.199a9.876 9.876 0 011.239-.433c-.433.124-.805.309-1.239.495 36.236 92.044 96.504 160.674 144.942 169.841v.063l.061.124c-49.49-8.549-113.661-75.754-154.417-166.188-45.651-101.334-45.279-195.05-.619-215.553a1.86 1.86 0 00-.497.248l-9.724 4.521-2.973 1.425c-.434.186-.867.434-1.301.62-42.987 21.679-40.013 113.165 8.548 211.775.309-.124.62-.31.929-.434-.309.124-.62.31-.929.495 43.916 89.134 110.874 155.224 161.045 163.214l.063.124v.062c-51.102-7.246-121.838-71.542-170.028-158.692-.247.125-.495.248-.743.372.248-.124.496-.247.682-.434-51.659-93.344-59.587-180.433-20.998-205.086-.187.124-.434.248-.62.372l-11.211 6.628c-38.776 23.97-28.431 109.821 26.634 201.741.248-.125.434-.248.682-.434-.248.124-.434.309-.682.434 51.225 85.54 124.563 148.41 176.345 155.161.062.061.062.124.125.186-52.65-5.946-129.457-66.71-184.832-149.773-47.694-72.037-77.549-160.24-36.854-194.989-.496.372-1.053.743-1.549 1.053l-10.035 7.37c-.68.496-1.362 1.054-2.044 1.55-32.704 26.572-15.361 105.485 44.66 189.229.124-.125.31-.248.433-.311a1.865 1.865 0 01-.433.311c58.224 81.204 137.508 140.357 190.716 145.684l.061.062c0 .062 0 .062.062.123-54.013-4.583-136.579-61.259-198.643-139.614-63.49-80.213-84.116-156.152-52.898-182.6l-11.211 9.91a9.96 9.96 0 00-.867.805c-28.617 27.13-5.513 100.034 59.586 176.655.063-.062.186-.124.248-.248-.062.062-.185.124-.248.248 64.666 76.125 149.525 131.004 204.033 134.969 0 .061.063.123.063.123v.062c-55.252-3.159-143.145-55.251-211.342-128.156-.373.373-.744.806-1.178 1.178.373-.372.744-.805 1.116-1.178-52.526-56.551-97.805-130.57-67.64-168.849-.309.31-.619.619-.929.99l-6.937 7.434-3.717 4.088c-22.484 27.935 6.009 93.53 74.329 161.603 70.675 70.488 160.612 120.536 216.359 123.014 0 .062.062.062.062.125 0 0 0 .061.062.061-56.304-1.673-149.091-48.624-222.986-115.582-.434.559-.868 1.054-1.301 1.611a36.55 36.55 0 011.301-1.611C99.967 239.64 68.748 178.194 88.136 150.321a810.239 810.239 0 00-9.23 11.954c-17.777 27.502 15.238 86.221 86.594 146.428 76.125 64.233 170.77 108.954 227.507 110.007.063.061.063.124.125.186-57.296-.124-154.481-41.563-233.455-101.892-.495.742-.991 1.548-1.548 2.291.495-.743.991-1.549 1.486-2.291-74.39-56.8-109.573-112.671-91.92-138.934l-8.052 12.513c-.124.123-.186.309-.248.433-15.733 25.891 20.998 78.789 96.256 132.12.682-1.053 1.363-2.169 2.044-3.222-.681 1.053-1.362 2.106-2.044 3.222 81.019 57.419 179.876 96.441 237.481 95.883.062.063.123.125.186.186-58.101 1.487-159.188-33.944-242.808-87.212-.619 1.115-1.177 2.23-1.796 3.345.557-1.115 1.177-2.23 1.796-3.345-76.125-48.5-114.776-97.123-101.954-122.271-.124.248-.248.433-.372.681l-4.398 8.363-1.92 3.84c-12.14 24.343 27.811 70.426 105.299 115.952.434-.928.929-1.858 1.424-2.724-.495.928-.928 1.857-1.362 2.724 85.354 50.172 187.99 83.002 246.339 80.772l.123.123v.062c-58.719 3.159-163.275-25.891-250.859-71.604-.558 1.239-1.053 2.478-1.549 3.717.496-1.239 1.053-2.478 1.549-3.717-45.341-24.156-119.98-70.178-109.76-106.227l-5.326 12.945c-.248.619-.434 1.176-.682 1.796-7.557 22.547 34.873 61.198 112.98 98.424a30.66 30.66 0 01.867-2.106c-.309.681-.557 1.425-.805 2.106 88.946 42.367 194.618 68.692 253.585 64.852 0 .062-.062.124-.062.124v.062c-59.277 4.77-166.496-17.591-257.115-55.189-36.793-15.423-121.776-55.003-116.263-89.071a14.986 14.986 0 00-.496 1.549l-3.902 12.759c-5.884 20.069 38.589 52.278 118.492 82.01.186-.619.372-1.177.558-1.735a15.236 15.236 0 00-.496 1.796c91.796 34.13 199.945 53.517 259.409 48.067l.061.185c-59.71 6.443-169.036-8.795-262.195-37.969C51.529 357.203 6.25 329.02 10.524 310.438v.062l-2.168 10.22a913.879 913.879 0 00-1.115 5.699c-1.177 17.343 44.35 42.057 122.829 63.364 94.026 25.52 204.032 37.723 263.867 30.599l.062.186c-59.959 8.177-170.77.247-265.726-20.069C47.936 383.28 1.605 361.973 3.896 346.24l-1.858 15.174c-.248 8.921 15.671 26.883 125.306 46.952 95.451 16.6 206.758 21.37 266.779 12.45.062.062.186.124.371.124-60.02 9.973-171.885 9.725-267.955-1.549 0 .248-.062.558-.062.805 0-.247 0-.557.062-.805C70.916 412.578 3.896 400.685.489 382.846v.558l-.495 14.927c.372 6.937 17.343 19.946 126.298 29.05 96.441 7.372 208.801 4.399 268.698-6.38h.372l-.372.187c-59.897 11.768-172.195 19.388-268.513 17.529-54.88-1.239-121.28-5.451-126.173-18.582l.186 3.654v.309c.31 3.84.619 8.177.99 12.575 3.779 7.618 49.677 11.892 125.492 10.22v-.433c0 .123 0 .247.063.433 95.946-2.106 207.749-13.008 267.707-25.458-.123.124-.186.186-.186.248-59.897 13.503-171.08 28.926-266.345 36.483 0 .124 0 .248.062.372 0-.124-.062-.248-.062-.372-77.983 6.194-124.005 5.512-124.748-.806l2.23 15.239c.743 4.954 46.331 2.972 123.695-6.443 94.708-11.459 205.457-30.165 265.292-44.35v.063c0 .062 0 .062.062.124-59.586 15.175-169.532 38.341-263.248 55.127-73.585 13.193-117.873 19.077-121.528 16.662 1.115 4.645 2.354 9.601 3.655 14.68 4.77.743 48.19-7.68 119.669-23.538 92.85-20.564 202.051-46.889 261.452-62.745 0 .061 0 .061.063.123l.061.124c-59.153 16.848-167.178 47.447-258.541 73.215.062.123.125.308.125.433a1.139 1.139 0 01-.125-.433c-71.045 20.069-113.66 31.96-117.191 32.89a299.57 299.57 0 004.46 14.246c1.052-1.548 43.172-16.104 115.209-39.58-.061-.062-.061-.185-.061-.248.061.063.061.186.123.248 93.283-30.413 204.528-65.347 262.01-82.319 1.424-.372 3.034-.868 4.955-1.425-55.623 16.91-169.098 57.357-263.125 93.965.063.123.125.248.125.371-.062-.123-.125-.248-.125-.371-70.922 27.625-111.803 45.712-111.803 48.809.248.557.434 1.114.682 1.734l5.079 12.016c0 .062 0 .062.062.124-1.734-3.84 38.28-24.528 109.015-55.437 89.505-39.084 197.467-81.142 254.638-99.415-1.548.496-2.724.991-3.529 1.301-57.605 19.697-161.047 64.852-246.462 107.963C81.26 565.447 42.795 589.48 45.582 594.807l5.637 10.84.186.371c.31.496.62 1.053.929 1.549-1.858-7.062 35.182-33.2 101.707-70.179 83.062-46.207 184.273-93.84 241.754-114.343-.248.187-.433.311-.495.373-57.109 21.492-155.719 72.717-235.871 123.262.062.123.125.248.248.371-.062-.123-.186-.248-.248-.371-64.542 40.695-99.786 70.055-96.813 78.602a94.763 94.763 0 001.549 2.601l6.132 9.663c.124.248.31.496.495.682-3.097-7.185 10.592-27.749 92.788-85.045 78.107-53.702 174.92-107.591 231.658-129.642l.062.186c-56.181 22.918-150.517 80.338-225.588 138.314-62.251 48.065-94.088 83.248-87.151 93.22.372.496.681.991 1.053 1.425l.681.929c.124.124.186.31.31.434l6.008 7.866.744.93c-7.495-11.026 22.732-48.315 83-98.734 72.781-60.95 165.196-120.784 221.005-144.322 0 .061.062.124.062.186-55.189 24.281-144.755 87.461-214.253 152.374-40.571 38.465-86.717 88.204-76.311 106.847.061.063.061.125.124.125l8.858 9.91c.185.248.371.433.619.681-10.406-12.698 15.671-55.127 71.851-111.864-.062-.063-.124-.125-.186-.248.062.062.124.123.186.248 66.958-67.64 154.48-133.111 209.173-157.95v.125c0 .061 0 .061.062.124-54.012 25.519-138.499 94.087-201.803 165.381-53.763 60.517-77.115 106.043-64.665 119.298.433.434.928.868 1.362 1.301l8.672 8.238c.186.186.434.371.62.557-13.504-13.998 7.928-61.383 59.524-124.19-.061-.063-.123-.063-.123-.125.062.062.123.062.123.125 60.64-73.896 142.897-144.509 196.414-170.523.062.061.125.061.186.123-52.773 26.635-131.81 100.159-188.609 177.398.124.062.185.187.31.248-.125-.061-.248-.186-.31-.248-49.429 67.206-67.763 117.874-51.039 131.625l11.83 9.476c-18.148-13.998-2.106-66.647 45.155-136.393-.124-.061-.248-.186-.309-.247.123.061.247.186.309.247 53.888-79.532 130.447-154.851 182.663-181.981-.061.061-.062.185-.124.247-51.41 27.811-124.377 105.609-174.053 187.99.062.062.124.061.124.124-.062-.063-.124-.062-.124-.124-43.73 72.533-56.676 127.474-37.103 142.278.557.371 1.116.743 1.673 1.177l11.707 7.867c-12.823-9.973-25.892-42.306 30.103-147.048 46.579-84.363 116.882-163.771 167.735-192.079v.248c-49.986 28.927-116.511 110.44-158.754 197.344-38.341 79.036-45.031 138.809-20.75 152.746l10.963 6.132 2.602 1.362c-25.953-13.751-21.989-75.257 13.813-156.648-.062 0-.062-.062-.124-.062.062 0 .124.062.124.062C282.63 537.636 346.49 454.759 395.795 425.4v.186c-48.437 29.855-108.334 114.59-142.711 205.395-31.466 83.124-32.023 146.179-5.141 160.922 1.053.495 2.044.99 3.097 1.486l11.335 5.017c.124.062.248.125.371.125-28.988-13.814-31.527-78.727-2.663-164.453 31.032-92.168 88.08-178.08 135.836-208.307v.186c-46.765 30.723-99.786 118.059-126.049 211.961-11.521 42.987-33.138 145.437 14.308 169.036 1.672.619 3.345 1.239 4.955 1.797l9.601 3.221c.248.062.496.186.805.248-16.847-7.124-52.215-38.157-22.484-171.886 22.795-95.017 72.843-183.221 118.864-214.253 0 .061.062.124.062.186-44.969 31.404-90.867 120.723-108.767 217.04-13.38 72.656-11.707 156.09 32.332 174.549 4.46 1.115 8.92 2.23 13.317 3.283-35.182-12.76-52.029-83.001-38.279-176.098 14.308-97.06 57.171-186.999 101.397-218.713v.248c-43.048 32.023-81.576 122.643-90.867 220.448-6.628 78.169 4.274 166.434 54.817 179.69l16.538 2.353c-44.101-8.733-67.886-76.373-63.736-180.929 5.636-98.175 41.066-189.105 83.31-221.376v.186c-41.066 32.581-72.037 123.696-72.595 222.181-.557 102.141 31.9 177.585 75.011 182.044 4.707.248 9.787.434 14.618.62-43.42-5.265-78.603-80.586-81.886-182.292-3.158-98.485 24.652-189.662 64.852-222.367v.185c-38.899 32.891-62.312 123.882-54.012 222.12 8.981 106.476 52.03 184.026 98.857 182.54l17.034-.868c-47.818 3.469-95.079-74.515-108.211-182.106-.186 0-.372.001-.495.063.186 0 .371 0 .495-.063-11.892-97.928 8.301-188.609 46.332-221.561v.248c-36.731 33.076-52.65 123.138-35.802 220.323 18.52 106.723 70.118 184.149 118.308 181.052 2.167-.248 4.335-.495 6.503-.805l9.662-1.425 3.283-.557c-49.676 8.485-107.219-69.869-130.323-179.381-.062 0-.124 0-.247.063.061 0 .123 0 .247-.063-20.379-96.503-7.433-185.945 28.369-219.084v.248c-34.5 33.076-43.235 121.528-18.149 216.792.125 0 .248-.061.372-.123-.124.062-.247.062-.372.123 28.431 107.963 90.001 185.265 139.863 177.461 3.221-.743 6.565-1.487 9.91-2.292l7.743-1.982c-50.482 11.893-117.316-65.657-150.331-175.045-.123.062-.248.062-.433.125.124-.063.247-.063.433-.125-28.43-94.211-22.546-181.795 10.964-214.872v.247c-32.209 32.953-34.068 119.113-1.177 211.652.062 0 .124-.062.248-.062-.062 0-.124.062-.248.062 38.837 109.202 111.493 186.008 162.223 171.514.619-.186 1.301-.372 1.92-.619l15.423-5.513c-1.176.433-2.354.867-3.592 1.176-50.73 14.494-126.421-61.197-169.098-169.036-36.05-91.176-36.979-176.159-5.699-209.049v.186c-29.855 32.642-25.21 115.89 15.114 204.961.186-.062.309-.123.495-.248-.186.062-.309.186-.495.248 47.817 105.733 127.721 179.628 178.451 165.134 1.3-.372 2.539-.805 3.716-1.239 1.424-.619 2.849-1.238 4.212-1.857l7.805-3.656c1.115-.557 2.291-1.114 3.469-1.734-1.921.868-3.965 1.673-6.132 2.293-50.73 14.494-133.545-58.039-184.956-162.038-43.234-87.46-50.543-169.222-21.617-201.741v.186c-27.502 32.148-16.662 111.865 30.537 196.786 56.366 101.396 143.145 171.823 193.874 157.329a43.073 43.073 0 007.433-2.911c1.177-.681 2.353-1.3 3.531-1.982l11.954-7.123h.062c-42.305 23.413-130.446-20.812-210.661-148.967-42.366-72.967-58.162-136.27-45.649-174.364-9.911 37.474 9.043 101.583 54.011 168.789 64.357 96.317 157.702 162.594 208.432 148.1 4.645-1.301 8.795-3.283 12.387-5.823l.991-.682 7.991-5.883c.681-.495 1.301-.991 1.982-1.486-3.407 2.291-7.371 4.149-11.769 5.388-50.73 14.494-146.614-49.924-214.191-143.888-.123.061-.248.186-.31.248.125-.062.248-.187.31-.248-49.677-69.064-70.241-134.908-57.481-170.647.619-1.425 1.301-2.725 1.983-4.088-14.433 33.882 8.547 99.601 63.241 168.478 71.913 90.496 171.266 152.065 221.996 137.571 5.822-1.672 10.777-4.274 14.803-7.681.062-.061.124-.061.124-.124l9.23-8.176c.371-.31.743-.681 1.052-.991-3.964 3.283-8.796 5.822-14.494 7.433-50.729 14.494-152.498-44.968-227.384-132.8-.124.123-.248.247-.372.309.124-.124.248-.248.372-.309-57.853-67.888-82.629-132.864-67.577-165.568.494-.867 1.053-1.672 1.61-2.54-2.044 4.088-3.283 8.672-3.779 13.812.744-5.574 2.231-9.972 3.841-13.378-1.858 4.397-2.663 9.415-2.478 14.989a45.416 45.416 0 011.115-9.291c-4.583 28.988 30.598 78.169 96.194 128.032.185-.311.371-.62.619-.929-.186.309-.371.618-.619.929 113.537 84.734 242.25 124.996 275.698 86.222.31-.434.619-.93.93-1.364l7.246-11.334c.063-.063.062-.124.124-.186-29.794 39.456-160.612 2.353-280.034-79.471a5.313 5.313 0 00-.371.62c.123-.186.247-.434.371-.62-25.21-17.9-100.715-75.381-99.414-118.987 1.176 26.82 38.96 68.506 104.493 110.13 95.823 60.825 214.625 98.362 265.354 83.868 9.601-2.725 16.043-7.123 19.574-12.884.743-1.424 1.548-2.787 2.23-4.15l2.539-4.831.929-1.858 1.797-3.594c-3.16 6.318-9.849 11.213-20.317 14.248-50.729 14.494-171.081-20.132-268.761-77.303-.124.248-.247.434-.372.682.125-.248.248-.496.372-.682-70.117-41.067-109.511-82.566-107.467-108.086.186-1.178.434-2.292.743-3.407-4.522 23.785 36.67 63.489 111.06 102.14 100.096 52.03 222.367 82.443 273.097 67.888 10.777-3.097 17.466-7.991 20.316-14.247.124-.31.248-.62.372-.867l5.079-12.389c.124-.248.186-.495.309-.805-16.476 33.882-149.214 21.06-296.385-46.517-42.244-20.378-109.946-57.977-113.29-91.053 3.84 21.246 46.269 52.093 116.819 81.143.125-.31.186-.62.311-.868-.125.31-.186.62-.311.868 103.628 42.738 228.748 65.657 279.478 51.1 11.706-3.344 18.396-8.362 20.564-14.68.123-.433.31-.867.433-1.362l3.035-9.972c.186-.682.434-1.425.62-2.107-2.292 5.699-8.858 10.406-20.193 13.627-50.73 14.494-176.84-5.141-281.706-43.916-75.506-27.873-119.36-58.1-119.05-78.231.062-.866.186-1.796.372-2.664-2.603 18.521 42.552 46.023 121.403 70.551 106.291 33.076 233.641 48.067 284.371 33.573 12.45-3.531 19.139-8.549 20.563-14.557l3.159-14.865c-5.76 28.988-148.285 29.297-306.42-11.645-77.984-21.865-119.174-42.554-122.519-61.57 3.654 15.3 49.057 34.872 124.252 50.853 108.15 22.981 236.986 29.856 287.715 15.362 13.07-3.716 19.635-8.547 20.441-13.937l1.672-13.998c0-.31.062-.558.062-.867-5.079 24.528-147.914 31.96-308.96 5.698-55.065-9.849-121.032-25.705-125.182-45.65 0 0 0-.062.062-.062 2.849 12.264 49.056 25.829 125.925 34.687 0-.248 0-.496.063-.743v.805c109.139 12.574 238.719 11.025 289.448-3.469 12.946-3.716 19.512-7.928 20.255-12.327.062-.742.062-1.424.123-2.106l.434-13.689v-.185c-.743 4.212-7.309 8.424-20.936 12.264zm-419.958-29.917c0 .061 0 .061 0 0 .062.061.062.124.124.186-.124-.124-.248-.186-.371-.31.061.062.123.124.247.124zm-.186.186c-.061-.062-.061-.125-.123-.186l.185.186h-.062zm.248.248l-.123-.125v-.061c.061 0 .061 0 .123.061l.062.062s0 .063.063.063h-.125zm.125.123c.061.063.061.063 0 0 0 .063 0 .063 0 0zm.247-.123c.062 0 .124.061.185.061.125.062.248.125.373.186-.125-.061-.31-.061-.434-.124-.062 0-.062-.062-.124-.062v-.061zm.062.371v-.124c.062.062.186.124.248.186-.125-.062-.186-.062-.248-.062zm.185.495c0-.061-.062-.123-.062-.186h.062l.186.186c-.062.062-.123 0-.186 0zm.186.31a32.53 32.53 0 00-.186-.185c.124 0 .186.062.311.062l.061.061v.125s-.124-.063-.186-.063zm.063-.371c.062 0 .123 0 .185.061v.125c-.062-.125-.123-.186-.185-.186zm.062.495h.061v.062l-.061-.062zm.123-.557c-.123 0-.248-.063-.371-.063a16.222 16.222 0 01-.186-.185c.124 0 .247.062.372.062.062 0 .123.062.185.186 0-.063 0-.063 0 0zm0-.248h-.123a1.33 1.33 0 01-.311-.186c.124.062.311.062.434.124.062 0 .062.001 0 .062zm.063-.248c-.063-.061-.125-.061-.186-.124.061.063.186.063.186.124zm.061-.124c-.186-.062-.372-.062-.495-.123-.125-.063-.186-.125-.31-.186v-.062c.31.062.558.185.867.248-.062.061-.062.061-.062.123zm-257.549-47.508c.061-.185.123-.371.186-.496.309-1.053.68-2.106.991-3.097-.434 1.178-.806 2.417-1.177 3.593zm265.105 48.933c-.557-.062-1.176-.123-1.733-.186-.311-.062-.557-.123-.868-.186.62.063 1.177.186 1.796.248.248.061.558.062.805.124zm1.55.124c-.558 0-1.177-.062-1.735-.062-.31-.062-.62-.062-.929-.124.62.062 1.239.124 1.92.124.248 0 .496.062.744.062zm-.186-.062c.061 0 .061 0 0 0 .309 0 .557.062.805.062h-.371c-.125 0-.248 0-.434-.062zm-6.937 1.673c-.063 0-.125 0-.186-.062.061-.063.061-.063.123-.124.372 0 .682-.062 1.053-.062.248.062.495.062.806.123-.62.062-1.177.063-1.796.125zm2.415-.062c.309 0 .62.062.991.062-.743.061-1.487.185-2.23.247-.248 0-.496-.062-.681-.124.557-.062 1.238-.123 1.92-.185zm-2.788-.93c0 .062-.061.062-.061.124-.125-.062-.186-.062-.31-.124h.371zm-.681-.186a32.112 32.112 0 01-.371-.186c.309 0 .557.063.866.063.063.062.186.062.248.123l-.062.062c-.186 0-.433 0-.681-.062zm.62 1.425c.061.062.186.062.309.062-.123 0-.248 0-.371.062-.063-.062 0-.124.062-.124zm-.125-1.796c.186 0 .434.062.62.062-.061.062-.061.062-.124.123a4.242 4.242 0 01-.496-.185zm1.054.929c.062-.062.124-.124.185-.124h.682c.248.062.496.062.743.124h-1.61zm0 .309h-.372c.062 0 .062-.062.124-.062s.186.062.248.062zm-.372-1.796c.186 0 .372.063.496.063l-.062.061a.885.885 0 01-.434-.124zm.867-.247c-.124 0-.247-.063-.31-.063a72.739 72.739 0 01-.557-.186l.929.186-.062.063zm-.495 0c.124.062.248.062.371.124h-.124c-.185-.062-.309-.125-.495-.187.124 0 .186 0 .248.063zm.31.185l-.063.062a5.403 5.403 0 00-.991-.123 2.997 2.997 0 01-.433-.187c.434.062.929.187 1.487.248zm-1.301-.061c.185.061.31.123.496.186-.311-.063-.559-.063-.868-.125-.123-.061-.31-.123-.434-.185.248.062.496.124.806.124zm.867.371c.062 0 .062 0 0 0 0 .061 0 .062-.062.124-.124 0-.248-.062-.434-.062-.186-.062-.309-.124-.495-.186.372 0 .681.062.991.124zm-.805.124l.557.186c-.309 0-.682-.062-.991-.124a64.224 64.224 0 00-.371-.186c.247.061.557.062.805.124zm2.167 1.362c-.248-.061-.495-.061-.743-.123.558 0 1.115-.063 1.673-.063.309 0 .557.063.866.063-.619.062-1.176.123-1.796.123zm1.549-.309c-.248 0-.495-.062-.743-.062.557 0 1.115-.061 1.672-.061.31 0 .682.061.991.061-.619.062-1.3.062-1.92.062zm-1.301-.123c-.248-.063-.496-.063-.681-.125h1.549c.247.062.433.062.68.125a6.357 6.357 0 00-1.548 0zm1.239-.249c-.248-.062-.496-.062-.743-.124h1.301c.31.062.681.062.99.062-.557.063-1.053.062-1.548.062zm.991-.124c-.248 0-.496-.061-.743-.123h1.3c.311.062.62.062.93.062-.496.061-.991.061-1.487.061zm0-.186h-1.239c-.248-.061-.557-.061-.805-.123.496.062.929.062 1.425.062.186 0 .433.061.619.061zm-1.115-.247c.372 0 .744.062 1.115.062.248.062.557.062.805.124-.433 0-.867-.062-1.301-.062a2.196 2.196 0 00-.619-.124zm1.115.186c.496 0 .991.061 1.487.061.248 0 .434.063.681.063h-1.548c-.186-.063-.434-.063-.62-.124zm1.796 0c-.371 0-.68-.062-1.053-.124.434 0 .805.062 1.239.062.248 0 .434.062.682.062h-.868zm-1.548-.186c-.31-.062-.619-.062-.867-.124.496.062.991.062 1.548.124.187 0 .433.062.619.062-.495 0-.866 0-1.3-.062zm.557-.062c-.248-.062-.495-.062-.743-.124.31 0 .62.062.929.062.31.062.62.062.93.124-.373 0-.744 0-1.116-.062zm-1.176-.186c-.186-.062-.434-.062-.62-.124.124 0 .309.062.434.062.309.063.619.124.991.124-.31 0-.557-.001-.805-.062zm-.93-.31c.372.062.805.125 1.178.186-.373 0-.806-.061-1.178-.186zm-.123.062c.123 0 .248.063.371.063-.123 0-.248 0-.371-.063zm-.063.063c.125 0 .311.061.434.061.186.062.371.062.557.124-.371-.062-.681-.062-1.052-.124l.061-.061zm-.185.123c.495.063 1.053.124 1.549.186.185.062.371.062.557.124-.557-.062-1.053-.062-1.61-.124-.125-.124-.311-.123-.496-.186zm-.186.124c.124 0 .31 0 .434.062.248.062.557.124.805.124-.309 0-.682-.062-.991-.062a.47.47 0 00-.248-.124zm-.186.124c.124 0 .248 0 .372.062.185.062.371.062.619.124-.371 0-.743-.062-1.114-.062.061-.062.061-.124.123-.124zm-.309.186c.061 0 .123 0 .186.062-.125 0-.186-.062-.186-.062-.062 0-.062 0 0 0zm-.187.123c.31 0 .558.063.868.063.248.062.496.062.805.123-.434 0-.929 0-1.363-.061-.123 0-.248-.062-.31-.062-.061-.063 0-.063 0-.063zm-.309.186h.124c.185.062.433.124.619.124h-.929c.062-.062.124-.124.186-.124zm-2.416-1.858c.558.124 1.115.31 1.673.433.186.063.309.125.495.125 0 0-.062 0-.062.061-.495-.123-.929-.185-1.425-.309-.186-.123-.433-.186-.681-.31zm1.115.496h-.124c-.123-.063-.31-.124-.433-.186h.062c.123.062.309.123.495.186zm-1.115-.434c.062 0 .124.062.124.062-.062 0-.124 0-.124-.062-.062.062-.062.062 0 0zm-.062.124c.186.062.372.062.496.124s.247.123.434.186a27.31 27.31 0 00-.992-.186c0-.062 0-.124.062-.124zm-.123.124c.433.124.866.186 1.3.248.124.061.31.124.434.186-.558-.062-1.054-.186-1.611-.311-.062 0-.123-.061-.186-.061.063 0 .063-.062.063-.062zm-.063.186c.186.062.31.123.496.186-.186 0-.372-.063-.558-.063 0-.061 0-.061.062-.123zm-.185.31c.062 0 .062 0 0 0zm0 .123c.123 0 .248.063.371.063.124.061.31.123.434.185-.248-.062-.557-.062-.805-.124h-.063c0-.061 0-.124.063-.124zm-.124.31c.062.062.124.062.186.124h-.186v-.124zm-.062.186c.123 0 .309 0 .434.062l.371.185c-.248 0-.496-.061-.805-.061-.062 0-.062-.062-.125-.062.125-.062.125-.124.125-.124zm-.062.31c.062.062.124.062.124.123h-.187c.063-.061.063-.061.063-.123zm.062.433c-.062-.062-.062-.124-.062-.186h.31c.124.062.186.124.309.186h-.557zm.371.309c-.062-.061-.185-.123-.248-.185h.744c.062 0 .124.062.124.062 0 .062-.062.062-.062.123h-.558zm.434.248c-.062-.062-.186-.062-.248-.123h.31c0 .061 0 .061-.062.123zm.309.991c-.061 0-.123-.061-.185-.061l.062-.062c.309 0 .619-.062.929-.062.248.062.495.062.743.124-.496-.062-.99 0-1.549.061zm2.045.248h-.558c.31-.062.62-.062.93-.123-.125.061-.248.123-.372.123zm.805-.309c-.62.124-1.239.186-1.92.247-.186 0-.434-.061-.557-.123.619-.063 1.238-.124 1.857-.248h.806c-.124.062-.186.062-.186.124zm.929-.372c-.124 0-.31.062-.433.062h-.991c.619-.062 1.3-.123 1.919-.248a4.25 4.25 0 00-.495.186zm1.053-.433h-.31c.125 0 .31 0 .434-.062-.062 0-.062 0-.124.062zm.372-.187c-.496.063-.991.062-1.487.125-.309 0-.62-.063-.867-.063.681-.062 1.301-.123 1.982-.123h.558c-.063 0-.124.061-.186.061zm.619-.247h-.185c-.372 0-.744 0-1.116-.062.558-.062 1.053-.062 1.61-.123-.123.123-.246.185-.309.185zm.62-.248h-.434c.186 0 .371 0 .557-.062 0 .062-.061.062-.123.062zm.309-.124c-.495 0-.991.062-1.486.062-.31 0-.682-.062-.992-.062h2.478zm.372-.124c-.248 0-.496 0-.744.062-.309 0-.619-.062-.928-.062h1.672zm.372-.123h-.558c-.31 0-.558 0-.806-.062h1.55c-.125 0-.125.062-.186.062zm.309-.125h-.743.805-.062zm.248-.061h-.434a.53.53 0 01.434 0zm.124-.062h-1.239c-.31 0-.557-.062-.867-.062.372 0 .806.062 1.177.062.309-.062.619 0 .929 0zm.124-.062h-.93c-.309 0-.557-.062-.805-.062.62 0 1.177 0 1.735.062h.061-.061zm.124-.062h-.495.495c.062 0 .062 0 0 0zm.062 0c-.372 0-.805 0-1.177-.062-.124 0-.248 0-.433-.062.557.062 1.114.062 1.61.124.061 0 .061 0 0 0zm.062-.062c-.619 0-1.239-.062-1.858-.124-.186 0-.311-.062-.496-.062.805.061 1.672.124 2.477.186h.186-.309zm88.265 145.808c-.186.31-.372.558-.557.868a5.882 5.882 0 00-.31.495c.31-.434.619-.868.867-1.363zm-94.955-135.278c0-.062-.062-.062-.062-.124l.31-.31-.186.372c-.062 0-.062.062-.062.062zm-.31-2.725l-.062-.062c.062-.063.124-.063.186-.124-.062.124-.062.186-.124.186zm.062 1.239c-.061.061-.186.123-.247.185 0-.062.061-.185.061-.247l.062-.063c.062 0 .063.063.124.125zm.31-3.222c.186-.061.371-.186.557-.247-.123.061-.186.186-.309.247h-.248zm.124 1.115c-.247.124-.496.248-.744.434.063-.124.124-.185.186-.31.124-.061.186-.124.31-.186.062 0 .186.062.248.062zm.31.31c.123-.062.185-.124.309-.186h.248c-.309.186-.557.371-.867.558.124-.124.185-.248.31-.372zm11.768-5.947c-.062 0-.062.062-.123.062-.063.063-.125.063-.186.125-.248.123-.558.247-.805.433.123-.062.247-.124.309-.186.062 0 .062-.061.124-.061.124-.062.309-.186.433-.248.062-.063.186-.062.248-.125-.062 0-.124.062-.186.062.124-.062.124-.062.186-.062zm-10.592 5.823h.124l-.186.186a7.505 7.505 0 00-.866.62c.123-.124.247-.31.309-.434.248-.124.434-.248.619-.372zm-.248 0l.063-.062h.062c-.063.062-.125.062-.125.062zm5.266-3.654c-.682.309-1.363.68-2.044.991l.929-.557c1.053-.496 2.044-.991 3.035-1.425-.62.372-1.301.681-1.92.991zm.619-.186c1.053-.496 2.106-.991 3.097-1.425-.434.248-.867.434-1.301.681-.99.434-1.982.93-2.911 1.487a3.528 3.528 0 011.115-.743zm-2.416.929l-2.23 1.115c.248-.186.558-.371.868-.558.805-.371 1.61-.743 2.353-1.114-.309.185-.681.371-.991.557zm-.743.433c-.31.186-.619.372-.867.558-.248.124-.434.248-.681.372-.125 0-.248 0-.373.061.62-.309 1.302-.68 1.921-.991zm-1.858 2.478l-.557.372c.123-.124.248-.248.371-.434.062.062.124.062.186.062zm-.743-1.425c.123-.062.247-.123.433-.185-.062.062-.186.123-.247.185h-.186zm.68 1.549c-.123.185-.309.31-.433.496-.247.185-.433.371-.681.557.124-.123.248-.309.372-.434.248-.247.495-.434.742-.619zm0 .31c.186-.125.373-.31.559-.434h.123l-.186.186c-.31.248-.557.433-.867.681.062-.124.186-.31.371-.433zm.682-.31c.062 0 .062-.062.124-.062h.124a6.567 6.567 0 00-.744.62c.125-.248.31-.434.496-.558zm.124.062a2.703 2.703 0 00-.372.434c-.309.248-.619.557-.928.805.123-.186.247-.31.433-.496.247-.247.557-.495.867-.743zm.248-.062c-.124.185-.31.31-.434.496-.247.185-.434.433-.681.619.124-.186.309-.371.495-.557.186-.125.372-.31.62-.558zm-.372.248l.372-.372h.062c-.124.124-.31.248-.434.372zm.557-.372c.063 0 .063 0 0 0zm-.061-1.61c.247-.125.557-.31.805-.434-.185.124-.372.248-.558.434h-.247zm-.124 0l.744-.557c.557-.311 1.176-.62 1.733-.93-.309.186-.619.371-.928.619-.558.248-1.053.558-1.549.868zm2.292-1.239a43.779 43.779 0 012.911-1.487c-.124.062-.248.124-.31.186.31-.186.619-.31.929-.434.434-.186.806-.371 1.239-.557-.372.186-.744.371-1.053.557-.619.31-1.239.62-1.796.93.247-.125.495-.31.743-.434-.496.248-.93.496-1.362.743l-2.044 1.115c.186-.248.433-.433.743-.619zm3.902-1.549c-.371.187-.743.433-1.115.619.248-.186.495-.309.743-.495.31-.185.62-.371.929-.496-.062.063-.123.063-.185.125.185-.124.433-.248.619-.372.31-.186.619-.31.867-.433.062-.062.186-.063.248-.125-.186.125-.372.186-.558.31-.495.248-1.053.558-1.548.806.124-.063.186-.125.309-.186 0 .061-.123.123-.309.247zm-.557.248c.68-.372 1.362-.743 2.044-1.053-.187.124-.373.186-.62.31l.372-.186c-.062 0-.062.062-.125.062a2.89 2.89 0 01-.619.31l.372-.186c-.619.309-1.177.619-1.672.929-.186.124-.434.248-.62.372.248-.187.558-.373.868-.558zm-1.425.744c.309-.186.681-.434.991-.62.372-.185.743-.372 1.053-.558-.248.124-.496.31-.805.496-.434.186-.806.434-1.239.682zm2.106-1.178c.371-.186.743-.433 1.176-.619.373-.186.682-.372 1.053-.495.125-.063.248-.125.372-.125a43.04 43.04 0 01-.372.187c-.805.309-1.548.68-2.229 1.052zm1.115-.681c-.744.372-1.549.743-2.354 1.177a7.02 7.02 0 011.177-.619 46.42 46.42 0 012.539-1.177c-.433.186-.928.371-1.362.619zm-2.416 1.115c-.31.185-.619.371-.867.558-.496.309-1.053.557-1.549.867.31-.186.558-.372.867-.558.496-.309 1.054-.557 1.549-.867zm-.433.371a93.39 93.39 0 012.477-1.3 6.74 6.74 0 00-.681.372l1.114-.558c-.061 0-.123.062-.123.062l-1.487.744c.186-.125.31-.186.496-.311-.434.248-.868.434-1.301.682-.495.248-.991.557-1.486.805.309-.062.619-.309.991-.496zm-.558.434a9.45 9.45 0 00-.991.682c-.31.185-.62.371-.867.557l.743-.557c.371-.311.743-.496 1.115-.682zm-.372.31c.372-.248.744-.433 1.115-.619-.31.186-.557.371-.805.557-.371.248-.744.434-1.115.682.248-.186.496-.372.805-.62zm.31-.062c.186-.123.434-.248.62-.371-.248.123-.434.309-.62.433-.248.124-.433.309-.681.434.248-.186.433-.372.681-.496zm.434-.186l.929-.557c-.248.186-.495.309-.743.495-.372.248-.682.434-1.054.682.248-.248.558-.434.868-.62zm.866-.496c.125-.061.187-.123.311-.185-.248.124-.434.31-.682.433.124-.061.248-.186.371-.248zm.558-.309c.186-.123.372-.186.558-.31-.248.187-.557.31-.805.496.062-.062.123-.124.247-.186zm.496-.371c-.248.185-.558.309-.806.495.125-.124.311-.186.434-.31.496-.247.929-.557 1.425-.805a9.412 9.412 0 01-1.053.62zm.185-.063a.471.471 0 01.248-.123c.311-.186.557-.31.868-.496-.063 0-.063.062-.125.062.062-.062.125-.062.187-.124-.434.248-.868.433-1.239.681 0 .063.061.063.061 0zm.558-.309c.186-.124.372-.248.558-.31.371-.186.805-.434 1.176-.62.062 0 .124-.062.186-.123-.371.186-.743.371-1.177.619-.062 0-.062.062-.123.062-.125.124-.373.248-.62.372zm-.185-.248c.371-.185.743-.371 1.176-.557.31-.125.681-.248.991-.434-.743.309-1.424.62-2.167.991zm1.052-.557c-1.053.433-2.105.928-3.159 1.424.372-.186.805-.433 1.239-.619a38.438 38.438 0 012.354-.992c.185-.061.433-.186.619-.247-.434.124-.743.247-1.053.434zm-.929.309a240.01 240.01 0 01-3.84 1.673c.434-.248.866-.434 1.3-.682a70.578 70.578 0 014.027-1.673c-.496.248-1.053.434-1.487.682zm-3.345 1.301c-.866.372-1.734.806-2.664 1.177.373-.186.744-.434 1.178-.619.929-.434 1.92-.805 2.849-1.177-.433.186-.929.371-1.363.619zm-.371 0a22.287 22.287 0 011.672-.744c1.115-.433 2.23-.866 3.345-1.239-.619.248-1.177.496-1.734.682-1.115.434-2.23.868-3.283 1.301zm.557-.372l-3.716 1.487c.495-.248 1.052-.495 1.611-.806 1.485-.557 2.91-1.114 4.273-1.61-.744.31-1.487.62-2.168.929zm-1.363.619c-.496.248-.928.434-1.362.682-.93.434-1.858.805-2.849 1.239l.929-.557c1.115-.434 2.229-.93 3.282-1.364zm-2.292 1.178c-.371.186-.68.434-.99.619-.434.186-.806.372-1.239.62h-.372c.062 0 .062-.063.124-.063.805-.433 1.672-.805 2.477-1.176zm-2.477 2.725c-.124.124-.247.248-.31.433-.185.125-.371.248-.619.434-.062 0-.062-.062-.124-.062 0-.061.062-.061.062-.123.371-.248.681-.497.991-.682zm-.681 2.602l-.372.372c.062-.125.124-.186.124-.311.123-.123.248-.186.309-.309h.062c0 .123-.062.186-.123.248zm.248-.062l.061-.063c.062 0 .062.063.125.063l-.373.371.187-.371zm-.248-1.611c-.062 0-.062-.062-.124-.062.062-.062.185-.123.247-.185-.062.062-.062.185-.123.247zm.061 1.363l-.123.123c0-.061.062-.123.123-.123zm-.309-.248l.124.124-.372.372c.062-.125.062-.186.124-.31 0-.062.062-.124.124-.186zm.062.31c-.062.123-.124.248-.124.309-.062.062-.124.125-.248.186 0-.061-.062-.061-.062-.124v-.062c.124-.061.248-.186.434-.309zm.309.68c-.123.125-.248.248-.309.373.061-.062.061-.124.124-.248.123-.124.248-.31.433-.434-.123.124-.185.248-.248.309zm.248-.246c.063-.063.063-.125.124-.248h.062a.866.866 0 01-.186.248zm0-1.735c-.062 0-.123-.062-.123-.062l.061-.062c.248-.185.558-.371.805-.557-.123.124-.248.247-.309.433-.186.062-.31.186-.434.248zm.372.186c.124-.124.31-.248.434-.372-.124.124-.186.248-.31.434 0-.062-.062-.062-.124-.062zm.371.124h-.061c.061-.062.123-.125.186-.186.247-.186.495-.433.743-.619-.124.123-.248.309-.372.433-.185.062-.31.186-.496.372zm.248.061c.248-.185.434-.433.682-.619-.125.124-.186.248-.31.372a57.87 57.87 0 01-.248.247h-.124zm.372-.061l-.124.123h-.062l.496-.495c-.062.124-.186.248-.31.372zm1.487-1.363c-.372.31-.743.682-1.116 1.053a3.54 3.54 0 01.434-.495c.062-.062.124-.062.124-.125.186-.185.372-.309.558-.495h.062l-.062.062zm.433-1.796c.063-.063.186-.124.248-.186l1.672-.929c-.372.247-.681.433-1.052.681-.248.124-.496.31-.744.434h-.124zm.62-.124l.743-.558c.496-.309.929-.557 1.424-.866a7.467 7.467 0 00-.867.619c-.433.309-.867.557-1.3.805zm.123 0c.186-.124.434-.248.62-.434-.186.124-.309.248-.495.372-.062.062-.063.062-.125.062zm.311 0c.247-.186.494-.371.805-.496-.186.186-.434.31-.62.496-.062-.062-.124-.062-.185 0zm.309-.062c.062-.063.124-.062.124-.124.372-.247.681-.496 1.052-.681-.247.185-.557.433-.805.619-.061.062-.186.123-.247.186h-.124zm.31-.062c.061-.061.186-.124.247-.247.31-.187.558-.373.867-.558-.185.124-.309.248-.495.371-.185.187-.372.31-.619.434zm.309 0l.062-.062c-.062 0-.062.001-.062.062zm.434-.372c-.186.125-.372.248-.496.372h-.061c.185-.124.371-.309.557-.434.31-.186.557-.372.867-.557-.31.185-.619.371-.867.619zm.929-.557c.124-.062.186-.124.31-.248.062-.062.123-.123.185-.123l-.433.309-.062.062zm.31-.186c.062-.062.185-.124.248-.185.309-.186.557-.372.867-.559.061 0 .061-.061.124-.061-.434.248-.868.495-1.239.805zm1.301-.929c.247-.186.557-.31.866-.495.186-.125.373-.186.558-.311-.496.248-.992.559-1.424.806zm1.857-1.053c.125-.062.31-.186.434-.248h.124c-.248.062-.433.124-.558.248zm.868-.495c.062 0 .124-.063.124-.063-.124.062-.31.186-.434.248.186-.123.372-.186.558-.309-.063.061-.186.061-.248.124zm.99-.497l-.742.373c.062 0 .062-.062.123-.062.187-.125.372-.186.619-.311zm.311-.433a74.853 74.853 0 00-4.212 1.672l1.672-.742c1.61-.62 3.159-1.177 4.646-1.735-.744.247-1.425.495-2.106.805zm2.477-.929c-1.238.434-2.477.868-3.778 1.362.619-.247 1.238-.494 1.858-.68l1.672-.558c.124-.124.186-.124.248-.124zm-.619.124c-.619.186-1.177.433-1.796.619-1.053.373-2.169.744-3.283 1.178.805-.31 1.672-.62 2.601-.992.805-.247 1.548-.558 2.292-.805.124.062.186.062.186 0zm-.31.124c-.247.062-.495.186-.743.248.186-.062.434-.124.743-.248-.061 0-.061 0 0 0zm-3.469 1.177c-1.424.496-2.91 1.053-4.459 1.61.867-.371 1.734-.68 2.725-1.053 1.548-.557 3.098-1.052 4.583-1.548-.991.309-1.981.682-2.849.991zm.31-.309c.31-.063.62-.187.991-.249a544.864 544.864 0 00-5.636 1.797c1.362-.434 2.911-.991 4.645-1.548zm-7.495 2.601a387.828 387.828 0 019.168-3.035c.123-.062.247-.062.371-.125-.433.125-.867.311-1.301.434.186-.061.372-.123.62-.186l-1.115.372.558-.186c-1.425.434-2.85.93-4.151 1.425-2.106.743-4.274 1.486-6.566 2.354.682-.372 1.487-.682 2.416-1.053zm-3.407 1.487c1.673-.62 3.283-1.239 4.832-1.797-.744.31-1.486.619-2.106.929-1.177.434-2.354.929-3.593 1.425.248-.186.496-.372.867-.557zm-1.114.805c.929-.373 1.857-.805 2.787-1.178-.371.186-.682.373-.991.558-.434.186-.93.434-1.363.62-.186.061-.31 0-.433 0zm.061 1.796c.311-.186.558-.31.868-.496a1.32 1.32 0 00-.248.371c-.124.063-.309.187-.434.248-.123 0-.123-.061-.186-.123zm.125 2.044c0-.062 0-.062-.063-.124v-.062c.124-.062.186-.186.31-.248-.061.124-.062.186-.124.31l-.123.124zm.061.248c0-.062 0-.062-.061-.125l.061-.062c.062.062 0 .125 0 .187zm0 .743l-.061.062c0-.062 0-.124.061-.186v.124zm-.124.371v-.123c.063-.062.063-.063.124-.125v.186c-.061.062-.061.125-.124.125.063 0 .063 0 0-.063zm.063.372v-.124c0-.062.061-.062.061-.123 0 .061-.061.186-.061.247zm.061-.061c0-.125.062-.186.124-.311 0 .063.062.062.062.125l-.186.186zm.186-1.053c.062 0 .062-.063.124-.063 0 .062-.062.123-.062.123s-.062.001-.062-.06z" fill="#4620EB"/></svg>