<svg width="65" height="65" fill="none" xmlns="http://www.w3.org/2000/svg"><g clip-path="url(#clip0_723_188)"><path d="M30.596 13.776a5.695 5.695 0 01-3.809 1.458h-1.904v4.813c0 4.201 2.165 8.01 5.713 10.154a11.802 11.802 0 005.713-10.154v-4.813h-1.905a5.695 5.695 0 01-3.808-1.458z" fill="#FFEB5F"/><path d="M21.074 0c-5.25 0-9.521 4.272-9.521 9.521v44.053h22.851v3.809A7.617 7.617 0 0042.021 65c4.347 0 7.618-3.65 7.618-7.617V5.713c0-2.152.744-4.117 1.953-5.713H21.074zm19.043 49.766H21.074v-3.809h19.043v3.809zm0-7.618H21.074V38.34h19.043v3.808zm0-22.1c0 10.719-9.14 14.115-9.521 14.454-.381-.339-9.522-3.711-9.522-14.455v-8.621h5.713c1.05 0 1.904-.854 1.904-1.905H32.5c0 1.051.854 1.905 1.904 1.905h5.713v8.621z" fill="#27CBF9"/><path d="M65 11.426H53.574V5.713a5.713 5.713 0 1111.426 0v5.713z" fill="#FFEB5F"/><path d="M30.596 57.383H0A7.617 7.617 0 007.617 65h25.95c-1.827-2.026-2.971-4.68-2.971-7.617z" fill="#27CBF9"/></g><defs><clipPath id="clip0_723_188"><path fill="#fff" d="M0 0h65v65H0z"/></clipPath></defs></svg>