<svg width="429" height="625" fill="none" xmlns="http://www.w3.org/2000/svg"><path d="M47.69 401.788c.163.434.435.815.706 1.249l.054.108a38.836 38.836 0 007.932 8.475c6.301 4.998 14.504 8.855 24.608 11.028 6.41 1.358 13.581 2.173 21.404 2.282 49.597.488 112.613-26.945 156.833-65.461 10.756-9.344 20.317-19.339 28.357-29.769.489-.652.977-1.25 1.52-1.956 4.347-5.758 8.041-11.408 11.028-16.894l-1.738-.816c-1.466-.651-3.096-1.249-4.726-1.955-.435-.109-.869-.326-1.25-.543-6.084-2.39-10.919-7.985-14.178-16.623-.706-1.902-1.304-3.966-1.901-6.139-.054-.108-.055-.271-.109-.38-.435-2.01-.869-4.074-1.249-6.356a141.56 141.56 0 01-1.141-10.648c-.49-8.855-.109-18.633 1.086-28.954 1.25-11.625 3.531-23.902 6.627-36.615a421.922 421.922 0 016.52-23.358c10.158-32.214 25.043-65.026 42.426-92.188a281.754 281.754 0 0111.626-16.677 125.31 125.31 0 012.987-3.966c7.226-9.18 14.234-16.569 20.915-22.273 9.67-8.203 18.579-12.875 26.347-13.961 2.662-.326 5.106-.271 7.388.163h.163c2.065.815 4.075 1.63 6.085 2.39-.326-.163-.653-.38-.978-.543-.272-.109-.544-.272-.815-.38l.815.326c3.694 1.52 7.333 2.987 10.81 4.508l2.065.87c.054 0 .054 0 .054.054h.163c6.899 3.096 15.917 7.551 22.925 10.81-1.087-.488-2.282-.814-3.531-.869-1.957-.163-4.13.11-6.52.87-6.573 2.064-14.776 7.768-23.956 17.057-6.519 6.464-13.582 14.668-21.078 24.609-.434.543-.815 1.195-1.25 1.738-4.78 6.41-9.452 13.201-14.124 20.263-15.101 23.359-29.389 50.032-41.068 76.325a562.654 562.654 0 00-10.05 24.337c-5.27 13.69-9.67 26.89-12.929 39.167-2.717 10.213-4.726 19.774-5.705 28.357-.434 3.586-.706 6.845-.814 9.942-.109 4.345.054 8.149.543 11.408 1.087 7.279 3.694 11.842 7.66 13.798 0 .054.054.054.109.054.163.108.379.271.542.326-3.639 6.899-8.311 14.233-14.069 21.838-.707.924-1.467 1.902-2.119 2.771-41.503 53.237-118.969 101.911-174.923 109.571-5.703.815-10.973 1.141-15.807.978-8.638-.163-15.809-1.739-21.513-4.563-3.585-1.739-6.573-4.02-8.963-6.736-.489-.544-.979-1.196-1.467-1.793-.055-.054-.108-.164-.163-.272l-1.955-2.825c-.055-.054-.11-.108-.163-.163-.327-.38-.544-.869-.816-1.249-.053-.055-.108-.055-.108-.109-1.63-2.336-3.368-4.943-5.16-7.605-2.065-3.205-4.184-6.573-6.194-9.996l-1.738-2.716c-.272-.489-.544-.923-.815-1.358-.326-.489-.544-.924-.87-1.359l-2.28-4.019c-.707-1.141-1.305-2.282-1.956-3.313-.707-1.141-1.304-2.282-1.956-3.369-.163-.326-.326-.706-.489-.978.163.272.326.435.435.706.217.435.489.815.706 1.25l-1.521-2.662c0-.055-.055-.054-.055-.108.598 1.086 1.196 2.118 1.793 3.204.38.653.652 1.196.978 1.685z" fill="#17171A"/><path d="M108.295 484.564c2.119 1.738 4.998 2.825 8.638 3.151 4.4.38 9.779-.326 16.297-2.119a108.335 108.335 0 0010.648-3.639c20.915-8.312 46.392-24.284 71.87-44.166 14.885-11.625 29.824-24.554 43.731-38.081 16.949-16.405 32.594-33.626 45.197-50.466 6.574-8.801 12.006-16.895 16.134-24.229.489-.815.924-1.684 1.467-2.499 0-.054.054-.054.054-.109 1.684 1.087 3.477 2.119 4.944 2.988l.325.163a69.997 69.997 0 003.26 2.065c.163.108.381.272.544.326-.816-.489-1.25-1.685-1.25-3.477 0-1.63.38-3.748 1.086-6.41a123.996 123.996 0 012.988-9.127c.978-2.498 2.119-5.378 3.477-8.474 3.477-7.931 7.823-17.004 13.038-26.945 7.008-13.58 15.482-28.628 24.772-44.328 17.111-28.846 37.157-59.81 56.442-86.864a1626.481 1626.481 0 0113.853-19.013c4.888-6.519 9.452-12.386 13.689-17.493 9.995-12.222 17.927-20.75 23.576-25.477 2.01-1.63 3.749-2.825 5.216-3.477 1.249-.652 2.281-.815 2.987-.652h.109c.326.163.652.38.869.543l-.163-.163c.434.326.869.544 1.304.87 3.314 2.064 6.627 4.182 9.615 6.192.38.327.815.544 1.196.815l.434.326c3.531 2.39 7.551 5.27 11.571 8.15.054 0 .054.054.108.054.38.27.761.488 1.087.76.381.326.76.543 1.141.815 1.358.923 2.716 1.901 4.02 2.825.434.326.815.651 1.195.869.271.271.489.38.761.543.108.108.271.271.38.326.054.055.108.055.163.108.108.11.271.164.38.272.163.163.381.326.543.434l.163.164c-.109.108-.923 1.195-2.499 3.151-1.195 1.575-2.824 3.64-4.834 6.301-5.65 7.334-14.397 18.96-26.022 34.387-1.901 2.499-3.802 5.106-5.812 7.769a20586.964 20586.964 0 00-35.365 47.098 11981.596 11981.596 0 01-23.686 31.617c-16.622 22.272-32.702 43.893-46.12 61.929-7.117 9.615-13.472 18.253-18.851 25.478-1.955 2.661-3.694 4.997-5.214 7.17-2.173 2.934-4.02 5.378-5.487 7.388-3.151 4.401-4.672 6.519-4.672 6.628 2.445 1.846 5.324 4.02 7.659 5.921.381.326.706.652 1.087.869 0 .054.054.054.109.109.054.054.163.108.271.271l-.055.055c-2.824 3.314-5.92 7.008-9.234 11.191-4.02 5.106-8.42 10.81-13.201 17.057-5.106 6.736-10.322 13.907-15.591 21.241-18.687 26.075-38.189 55.355-55.302 82.735-9.506 15.211-18.198 29.824-25.64 43.024-5.867 10.376-10.919 19.828-14.885 27.977-1.412 2.879-2.662 5.541-3.694 7.932-1.847 4.128-3.151 7.551-4.02 10.267-1.249 4.02-1.521 6.573-.815 7.605.055.108.163.163.217.217-1.031-.651-2.064-1.358-3.041-1.956l-2.228-1.466-.272-.164c-7.334-5.051-16.514-11.787-24.282-17.491-1.412-1.032-2.771-2.065-4.075-2.988.055 0 .109-.054.109-.054.544-.272 1.956-1.793 4.183-4.346 1.901-2.174 4.346-5.107 7.279-8.692 1.685-2.065 3.532-4.292 5.542-6.736a2442.93 2442.93 0 0022.327-27.978c17.709-22.38 39.113-49.868 60.19-77.302.109-.163.272-.326.381-.489 15.428-20.045 30.692-40.091 44.165-58.018 1.793-2.444 3.585-4.78 5.215-6.953 6.899-9.18 12.277-16.514 16.623-22.327-1.195-.869-2.39-1.847-3.639-2.716l-3.478-2.499-2.063-1.467c-.11 0-.163-.054-.272-.108l-.489-.327c-.49-.325-.924-.651-1.359-.923-.054 0-.054-.055-.108-.055-.923-.651-1.956-1.303-2.933-1.955-4.89 8.203-11.463 17.872-19.774 28.792-4.672 6.192-9.616 12.549-14.885 18.959-28.031 34.332-63.396 70.729-94.415 97.728-14.016 12.114-27.053 22.381-38.243 29.715-2.934 1.955-5.705 3.585-8.203 4.998-4.944 2.771-9.018 4.563-12.387 5.487-3.313.923-5.812.869-7.496-.109a1.657 1.657 0 01-.381-.272c-.108-.109-.271-.272-.38-.325l-.163-.163-.163-.164-3.911-3.693-.271-.272-.163-.163c-.652-.652-1.359-1.304-2.065-1.956-2.716-2.607-5.595-5.541-8.365-8.42-.653-.652-1.25-1.304-1.902-1.955a415.196 415.196 0 01-4.672-4.944c-.054-.109-.162-.163-.217-.272-.055-.054-.108-.108-.108-.163l-.327-.325c-1.358-1.467-2.771-3.043-4.291-4.673.163.163.271.326.434.489a1.629 1.629 0 00-.434-.434c-.435-.435-.815-.869-1.196-1.304-.108-.054-.163-.163-.325-.326-.272-.272-.489-.543-.761-.869.272.163.38.38.543.544.381.108.435.162.543.162z" fill="#17171A"/><path d="M106.413 482.714a1.653 1.653 0 00-.272-.38c.435.489.924.978 1.304 1.521-.325-.38-.652-.76-1.032-1.141zm309.283-70.4c-.108.707-.163 1.413-.271 2.119.055-.489.108-1.087.218-1.793l.053-.326zM.815 223.269v-.381l.054-.326c.054-.597.055-1.249.108-1.792.11-1.412.218-2.879.38-4.454.11-1.413.218-2.88.381-4.292v-.217.217c-.054.869-.108 1.738-.163 2.553-.272 4.292-.543 7.877-.706 11.028.218-3.151.434-6.736.706-11.028-1.739 32.322 10.213 76.868 74.587 111.092-.055.87-.11 1.739-.272 2.663.108-.87.163-1.739.326-2.663 10.43 5.107 21.295 9.126 32.323 12.115a191.024 191.024 0 0048.945 6.41c44.003 0 86.267-15.319 113.32-43.676-1.195-.327-2.444-.544-3.585-.815l-1.576-.326-.054-.055h-.055l-1.141-.163c-31.236 25.859-76.976 34.876-122.228 25.532-13.255-2.716-26.51-6.953-39.276-12.874-6.953-3.26-13.853-6.954-20.589-11.191-60.136-37.81-85.45-102.563-64.21-154.551 1.847-4.02 3.314-7.389 4.78-10.43.109-.272.272-.544.434-.869 1.25-2.771 2.5-5.27 3.75-7.714 1.52-2.879 2.987-5.758 4.834-8.855.76-1.195 1.467-2.445 2.173-3.695 1.25-1.955 2.499-4.02 3.966-6.301-9.399 16.08-14.125 34.061-14.45 52.64-.273 14.287 2.063 28.954 6.79 43.296 9.995 30.149 30.53 59.05 60.299 80.943a187.564 187.564 0 0017.058 11.136c10.647 6.138 21.729 11.028 32.974 14.776 42.862 14.016 87.353 9.561 119.675-12.549h.272c-1.303-.272-2.716-.489-4.019-.815-31.454 15.917-71.002 15.048-107.996-2.499-9.181-4.4-18.199-9.724-26.89-16.134a182.18 182.18 0 01-14.016-11.462c-16.297-14.777-29.335-31.997-38.896-50.358-23.142-44.328-26.02-95.175-5.215-133.8a94.553 94.553 0 018.638-13.472 98.329 98.329 0 0119.665-19.774c6.41-4.726 15.374-10.484 22.11-14.83h.054l.109-.11c2.39-1.357 4.78-2.77 7.008-3.965a77.071 77.071 0 012.932-1.575c.327-.163.707-.38 1.087-.543 1.521-.76 3.097-1.576 4.672-2.336l.489-.326c.163-.054.326-.109.434-.163a2.56 2.56 0 00.544-.272c.488-.271.923-.434 1.466-.706-.053.054-.108.054-.217.109.055-.055.109-.055.163-.109l1.304-.652-.326.163c.38-.163.814-.38 1.195-.543.054-.054.109-.054.163-.054 1.141-.544 2.336-1.032 3.532-1.521 0 0-.055 0-.055.054a167.05 167.05 0 00-6.41 2.933 206.111 206.111 0 01-3.477 1.793c-9.616 5.324-18.47 12.495-26.184 21.458a73.3 73.3 0 00-4.51 5.486c-31.67 42.155-31.887 106.584-4.67 160.473 7.822 15.483 17.926 30.15 30.203 43.134h.055l.054.053c3.966 4.292 8.039 8.095 12.223 11.734 7.334 6.411 14.939 11.789 22.761 16.407 31.997 18.741 66.927 22.598 96.479 11.081-11.191-3.205-21.566-10.267-30.53-21.403-3.531-4.292-6.736-9.181-9.724-14.613-2.01-3.694-3.911-7.66-5.704-11.843.163 0 .381.054.543.054-.162-.054-.38-.054-.543-.108-4.02-9.67-7.116-20.209-9.234-31.237-2.445-12.494-3.694-25.586-3.912-39.004-.055-8.583.271-17.329 1.086-26.021 3.151-34.278 13.201-68.611 29.173-96.208a157.449 157.449 0 0110.864-16.514c1.304-1.684 2.662-3.368 3.966-4.998 7.442-9.018 15.319-16.188 23.359-21.403 9.996-6.574 20.209-10.159 30.204-10.81 2.553-.11 5.161-.11 7.659.108.816.054 1.63.163 2.445.271l16.949 2.88.489.108c.326.055.707.109.978.163.38.055.76.109 1.087.163 6.464 1.358 14.286 3.26 20.697 4.78-2.825-.488-5.705-.705-8.638-.543-9.289.435-19.231 4.183-29.226 11.354-7.116 4.998-14.233 11.788-21.295 20.209a132.287 132.287 0 00-5.215 6.573c-2.553 3.314-4.998 6.9-7.388 10.54-19.013 29.17-32.594 66.654-38.896 103.703a264.939 264.939 0 00-3.15 24.935c-.979 12.657-1.141 24.988-.163 36.722.815 10.485 2.445 20.535 4.943 29.716v.054c1.141 4.074 2.39 7.931 3.803 11.462 2.064 5.269 4.4 9.995 7.008 14.124 6.844 10.865 15.481 17.655 25.206 20.318l.162.053c.163.055.327.055.49.109.977.272 2.064.544 3.205.869.054.055.108.055.108.055-21.457 26.129-54.758 44.002-91.535 51.77-19.34 4.075-39.548 5.378-59.593 3.585-16.841-1.575-33.464-5.323-49.163-11.407-44.546-18.742-68.937-46.719-74.587-85.343-.055-.435-.11-.869-.163-1.304 0-.163 0-.38-.054-.543-.055-2.064-.163-4.183-.272-6.465 0-.651-.054-1.194-.054-1.738v-.435c-.163-3.694-.218-6.79-.326-9.506.054 2.879.163 6.084.271 9.941v-.109c-.216-3.639-.326-7.17-.434-10.375.217-5.052.489-11.409.815-16.732z" fill="#17171A"/><path d="M259.685 571.208c1.358-8.474 3.693-17.926 6.736-28.139 3.694-12.277 8.529-25.696 14.178-39.44 4.292-10.212 8.91-20.642 13.962-31.073 10.321-21.295 22.109-42.698 34.496-62.092 5.106-7.931 10.212-15.482 15.372-22.653 1.25-1.738 2.554-3.476 3.804-5.16 7.224-9.67 14.069-17.71 20.262-24.12l1.196-1.196-.544-.543c1.684 1.576 5.161 1.25 10.431-1.141 2.553-1.194 5.541-2.824 8.908-4.943a152.706 152.706 0 007.769-5.269h.054c9.941-7.171 21.349-16.678 33.681-27.869 32.214-29.171 70.023-69.534 99.467-106.474 3.965-4.943 7.768-9.942 11.408-14.668 11.028-14.667 19.231-26.944 24.5-36.451 2.445-4.454 4.291-8.365 5.487-11.625 1.847-4.889 2.118-8.365.978-10.159-.055-.108-.055-.163-.109-.271l-.489-.489c.326.272.543.489.869.76l4.129 3.966 5.595 5.27c.706.706 1.467 1.357 2.173 2.118.054 0 .054 0 .108.055 1.576 1.575 3.151 3.15 4.618 4.726a713.97 713.97 0 019.343 9.669c.707.815 1.467 1.576 2.173 2.337.272.271.544.542.816.869.162.162.325.38.434.543.109.054.162.163.272.271 2.879 4.02 2.879 10.594-.055 19.393-1.575 4.836-4.074 10.377-7.387 16.461-4.51 8.149-10.54 17.384-18.254 27.597-10.103 13.472-22.109 27.378-35.146 40.905-18.852 19.666-39.82 38.624-60.409 54.758-22.382 17.601-44.437 31.834-62.636 39.874h-.053c-3.695 1.63-7.008 2.933-10.214 4.02-4.563 1.521-8.583 2.39-12.114 2.717-5.976.543-10.212-.653-12.82-3.369l-.055-.054c-.162-.109-.325-.326-.434-.434l-.761-.761-1.846-1.902-1.957-2.01c-5.486 5.27-11.19 11.68-17.057 19.231-.76.978-1.521 2.01-2.336 3.096-4.02 5.379-7.985 11.137-11.842 17.058-17.276 26.728-32.269 58.833-42.97 90.232-2.663 7.769-4.998 15.482-7.117 23.088-3.531 12.983-6.193 25.695-7.823 37.483-1.467 10.159-2.064 19.774-1.901 28.52.054 3.531.326 6.845.706 9.941.544 5.161 1.521 9.616 2.825 13.418 2.445 7.334 6.139 12.386 10.865 14.994.163.054.38.163.543.271.924.38 1.955.815 2.934 1.195-.544-.163-1.196-.38-1.739-.543l-6.899-2.988h-.054s0-.054-.054-.054c-8.04-3.585-18.145-8.529-26.674-12.766-1.467-.706-2.771-1.303-4.074-1.956-.435-.271-.815-.488-1.249-.815-2.771-2.118-4.509-6.084-5.215-11.951-.381-3.368-.381-7.388 0-12.114.271-2.933.652-5.976 1.195-9.344z" fill="#17171A"/><path d="M325.13 505.801c6.845-35.69 20.317-71.761 38.516-100.39 2.825-4.454 5.813-8.8 8.909-12.875.163.055.271.055.435.109.163.054.271.054.434.109a5.467 5.467 0 01-.869-.271c1.52-2.065 3.096-4.021 4.618-5.868 3.367-4.074 6.736-7.768 10.104-11.082.597.653 1.14 1.304 1.683 1.902l.164.163c.108.108.163.217.271.325.055.055.109.109.109.163.054.055.163.163.217.272a.745.745 0 01.163.218c0 .054.055.054.055.108a312.074 312.074 0 013.096 3.857 143.377 143.377 0 00-5.867 6.573 176.681 176.681 0 00-4.563 5.759c-.271-.055-.598-.109-.869-.164.108 0 .217.055.271.055.164.054.38.054.543.109-3.314 4.454-6.518 9.125-9.452 14.069-17.111 28.303-28.139 63.994-31.833 99.576-.816 7.985-1.304 15.917-1.413 23.794-.163 13.689.815 27.053 2.988 39.765 1.901 11.082 4.672 21.567 8.42 31.291a7.893 7.893 0 01-1.087-.218c.381.054.761.163 1.087.218 1.576 4.073 3.259 7.876 5.106 11.407 3.043 5.922 6.357 11.191 9.996 15.754 8.746 11.082 19.122 18.035 30.204 20.806l1.087.163c2.01.326 4.02.706 5.975 1.032-1.141-.108-2.281-.217-3.422-.435h-.218l-8.692-1.575-.651-.163c-.109 0-.218-.054-.326-.054-.218-.055-.38-.054-.598-.109-1.032-.217-2.118-.434-3.259-.706-2.988-.597-5.975-1.195-8.909-1.847-3.586-.815-7.225-1.684-10.431-2.553-.706-.217-1.412-.381-2.064-.598-1.304-.38-2.498-.706-3.748-1.086-.272-.055-.544-.163-.815-.217-1.304-.381-2.716-.761-4.074-1.141-.435-.163-.815-.272-1.25-.435a.41.41 0 01-.217-.109c-7.877-3.096-14.83-9.234-20.426-18.524-2.662-4.346-4.998-9.398-7.007-15.102a123.7 123.7 0 01-3.151-10.647c.38.109.76.217 1.086.272-.38-.11-.761-.218-1.086-.327-2.282-9.289-3.64-19.339-4.183-29.987-.598-12.277-.163-25.315 1.358-38.624.977-7.551 2.118-15.156 3.585-22.762z" fill="#17171A"/><path d="M387.48 606.475c-6.03-10.377-10.865-21.513-14.668-33.355-4.835-14.994-7.932-30.857-9.235-46.99-.869-11.191-.978-22.491-.272-33.627 1.685-24.935 7.551-49.217 17.384-70.295 3.53-7.66 7.605-14.884 12.169-21.566 1.14-1.575 2.173-3.097 3.313-4.564a103.672 103.672 0 013.64-4.563 10.467 10.467 0 01-.978-1.358l-.652-.924c2.716 3.694 6.519 6.628 11.463 8.583 2.498.979 5.269 1.739 8.311 2.337.326 0 .543.055.815.108 3.151.435 6.464.706 10.158.653 4.781 0 9.996-.49 15.646-1.468 55.736-9.452 134.017-61.222 174.868-115.438 1.467-1.955 2.825-3.802 4.128-5.704 6.411-9.181 11.246-17.764 14.559-25.586 6.573-15.699 7.225-28.574 2.119-37.483-.163-.381-.435-.761-.706-1.141l6.953 9.724.38.543c.055.055.109.108.163.271.055.109.163.272.326.435 1.196 1.739 2.391 3.64 3.694 5.595 1.63 2.445 3.368 5.107 5.107 7.715 1.847 2.879 3.585 5.812 5.323 8.746.109.163.163.326.326.434l.272.489c.055.109.109.163.163.326.054.109.163.326.272.434.054.055.054.109.108.109.109.272.163.435.326.652.055 0 .055.055.055.055.326.652.651 1.194.923 1.847 7.171 14.287 4.781 34.006-8.094 56.442-2.934 5.107-6.356 10.213-10.376 15.591-4.726 6.301-9.996 12.44-15.754 18.416-43.948 45.686-114.949 80.888-169.164 81.866-7.931.163-15.048-.435-21.458-1.684-9.833-1.956-17.818-5.487-23.903-10.322a.584.584 0 00-.271-.163c-13.472 49.978 11.951 108.919 67.307 144.827v.055c6.845 4.455 13.961 8.365 21.132 11.788a182.742 182.742 0 0035.962 12.603c54.976 12.875 111.147-1.901 141.297-41.939a105.483 105.483 0 008.474-13.309c-1.195 2.445-2.336 4.564-3.314 6.52-2.499 4.726-4.563 8.42-6.953 12.222-3.097 4.889-6.628 9.996-12.006 17.71-.054.054-.054.109-.108.163-.109.109-.163.272-.381.435-1.086 1.357-2.281 2.933-3.531 4.454-.76.923-1.575 1.901-2.39 2.77-32.703 36.724-88.439 46.013-140.97 26.891-9.995-3.64-19.829-8.366-29.443-14.016-5.705-3.477-11.354-7.224-16.841-11.408.163-.163.326-.434.489-.706-2.825.38-5.216-4.128-7.389-5.922l-5.106-4.454c-.543-.489-1.141-.978-1.684-1.521-.924-.814-1.738-1.684-2.662-2.553-.162-.109-.38-.326-.543-.489-.814-.815-1.629-1.576-2.445-2.39l-.706-.706c-.543-.653-1.194-1.25-1.738-1.847a12.648 12.648 0 01-.869-.978c-.489-.489-.978-1.087-1.521-1.575-.326-.381-.652-.707-.924-1.087-.434-.489-.923-.978-1.358-1.576a9.007 9.007 0 01-.924-1.086c-.434-.489-.868-1.087-1.303-1.575-.326-.381-.652-.706-.924-1.087-.108-.109-.163-.272-.326-.435-.38-.38-.706-.814-.977-1.194-.272-.381-.543-.706-.815-1.087-.489-.543-.924-1.141-1.358-1.739-.272-.325-.489-.651-.76-.923-.544-.761-1.141-1.521-1.685-2.281a2.234 2.234 0 01-.325-.435c-.544-.814-1.141-1.575-1.685-2.39-.108-.109-.272-.272-.325-.381-.163-.271-.381-.543-.544-.814-.163-.272-.325-.489-.489-.761-.054-.054-.108-.164-.271-.326-.109-.163-.272-.38-.327-.543-.108-.109-.163-.272-.271-.326-.272-.381-.489-.761-.706-1.087-.326-.434-.652-.869-.869-1.304-.055-.108-.109-.271-.272-.38 0 0 0-.054-.055-.054a1.439 1.439 0 00-.325-.543c-.109-.163-.272-.38-.381-.543-.38-.543-.706-1.141-1.086-1.684-.055-.109-.163-.326-.271-.435 0 0-.055-.054-.055-.109a6.722 6.722 0 01-.38-.652 13.413 13.413 0 01-.978-1.683c-.272-.381-.435-.761-.707-1.141a4.775 4.775 0 00-.271-.435.416.416 0 01-.109-.271c-.108-.164-.271-.381-.38-.653a5.018 5.018 0 00-.271-.488c-.272-.381-.435-.761-.653-1.141-.108-.163-.163-.326-.325-.489-.055-.108-.109-.326-.163-.435-.163-.271-.326-.489-.434-.761-.055-.053-.055-.108-.11-.162-.108-.381-.325-.707-.488-.979-.055-.108-.109-.325-.272-.434-.163-.38-.381-.76-.543-1.141-.109-.271-.272-.543-.435-.814 0-.109-.054-.164-.109-.327 0-.053-.053-.108-.108-.162-.054-.109-.109-.272-.163-.381-.164-.434-.38-.869-.543-1.249-.163-.434-.435-.869-.652-1.303 0 0-.055-.055-.055-.109-.054-.109-.108-.163-.108-.326-.163-.38-.381-.761-.544-1.141-.054-.163-.108-.38-.271-.489-.054-.325-.163-.652-.38-.869 0-.054-.055-.163-.055-.272-.054-.109-.054-.163-.109-.272a3.416 3.416 0 00-.163-.434c-.108-.163-.162-.38-.271-.543-.272-.489-.435-.924-.651-1.467a5.888 5.888 0 00-.272-.652c-.11-.271-.163-.434-.272-.652-.054-.054-.109-.109-.109-.163 0-.054 0-.109-.054-.162-.054-.11-.109-.327-.163-.435-.108-.272-.163-.49-.271-.761-.055-.055-.055-.108-.055-.163-.108-.163-.272-.435-.326-.706-.054-.272-.163-.435-.272-.706-.108-.38-.325-.761-.434-1.196-.109-.162-.163-.434-.272-.706-.054-.163-.163-.325-.271-.488-.055-.163-.054-.327-.109-.49l-.489-1.304c-.109-.379-.272-.759-.38-1.194-.055-.055-.055-.055-.055-.109a39.18 39.18 0 01-.76-2.336c-.109-.38-.163-.761-.326-1.14-.055-.11-.108-.163-.108-.272-.164-.707-.381-1.304-.544-1.956-.054-.163-.109-.38-.163-.543-.054-.163-.054-.326-.109-.489a44.028 44.028 0 01-.76-2.499c-.109-.435-.271-.814-.326-1.195-.326-1.086-.543-2.064-.761-3.096-.163-.543-.325-1.141-.38-1.684-.326-.979-.489-2.01-.652-2.988-.054-.435-.162-.869-.272-1.304 0-.054 0-.109-.053-.272-.055-.489-.163-.978-.272-1.521-.271-.978-.381-2.064-.489-3.096-.055-.163-.055-.381-.055-.543-.108-.652-.162-1.196-.272-1.848 0-.108 0-.325-.053-.434 0-.163-.055-.381-.055-.544a65.428 65.428 0 01-.163-1.466l-.163-2.065c-.054-.163-.054-.326-.054-.489v-.053c-.054-.163-.054-.327-.054-.49 0-.108 0-.271-.054-.326v-.651c-.055-.272-.055-.435-.055-.707-.055-.326-.055-.543-.055-.869 0-.163-.053-.38-.053-.651v-.544c-.055-.326-.055-.652-.055-.87v-.325c-.055-.163-.055-.434-.055-.652v-.978c-.053-.271-.053-.489-.053-.761v-1.249c0-.326-.055-.706-.055-1.086v-3.097c0-.272 0-.435.055-.706v-1.955c.054-.109.053-.327.053-.435v-.489c0-.325.055-.706.055-1.086v-.327c0-.108 0-.108.055-.163v-.054c-.055-.054 0-.108 0-.271v-.652c0-.109 0-.272.053-.38v-.055c0-.272 0-.488.055-.815 0-.326 0-.543.055-.869 0-.272 0-.489.054-.814v-.272c0-.11.054-.272.054-.381v-.38c.054-.054.054-.163.054-.38 0-.109 0-.272.055-.381v-.108c.054-.326.054-.706.108-.978v-.326l.163-1.141v-.434c.055-.163.055-.38.108-.544 0-.163.001-.326.055-.489 0-.108 0-.271.055-.38 0-.326.054-.706.109-.977 0-.055 0-.163.053-.272.055-.434.11-.815.163-1.25v-.054c0-.108.055-.163.055-.326v-.108c.054-.272.108-.543.163-.87.054-.489.163-.977.326-1.52 0-.163.054-.381.054-.544.055-.109.055-.325.108-.435 0-.162.055-.38.055-.543.109-.435.163-.814.326-1.249.054-.272.054-.435.109-.706.055-.163.108-.381.163-.653.054-.271.108-.488.163-.76 0-.163.054-.326.108-.489 0-.108.055-.326.055-.434.108-.38.162-.761.325-1.141.109-.435.272-.87.381-1.304 0-.054 0-.108.054-.163 0-.163.055-.435.109-.652.054-.055.054-.163.054-.163 0-.054 0-.108.055-.163l.053-.054c0-.054 0-.163.055-.272.163-.706.38-1.303.652-2.01l-.489-1.086-2.065-4.074c-18.144 38.787-14.287 88.493 8.53 131.789a181.64 181.64 0 0036.614 47.968 227.403 227.403 0 0013.581 11.191c7.985 6.03 16.08 11.19 24.228 15.428 40.145 21.078 81.758 21.186 118.589-.706.217-.163.489-.272.706-.435l-.978.651c-1.086.761-2.173 1.467-3.151 2.174-.434.326-.923.597-1.412.923-.217.163-.435.272-.706.435l-1.304.815a147.799 147.799 0 01-5.215 3.15c-.217.164-.489.272-.706.435a974.88 974.88 0 01-6.356 3.585.41.41 0 01-.217.109c-1.63.869-3.26 1.738-4.889 2.553a161.261 161.261 0 01-9.615 4.673c-2.01.869-4.184 1.846-6.791 2.987-.163.054-.326.163-.544.217.109-.054.218-.109.272-.109a79.877 79.877 0 005.813-2.716 747.85 747.85 0 01-14.178 5.812c-28.032 8.801-60.137 4.13-89.581-13.743a150.47 150.47 0 01-22.652-16.895c-3.966-3.585-7.877-7.387-11.626-11.516-11.951-13.092-21.784-27.76-29.335-43.297-12.874-26.455-19.285-55.301-18.85-82.898.109-6.627.597-13.146 1.521-19.556 2.39-17.003 7.659-33.083 15.808-47.316-.488-.869-.978-1.684-1.466-2.499-.11-.054-.11-.163-.163-.272-.272-.379-.489-.76-.706-1.14l-1.902-2.934c-3.096 4.183-5.922 8.746-8.42 13.364-7.279 13.254-12.495 28.031-15.646 43.676-.489 2.716-.977 5.378-1.467 8.149-2.77 17.764-2.933 36.397-.651 54.867 2.281 17.709 6.79 35.256 13.581 51.77 5.215 12.658 11.788 24.717 19.719 35.691a157.316 157.316 0 009.561 12.006c5.65 6.41 11.572 12.005 17.71 16.731 20.86 16.243 44.111 23.36 66.329 20.86-4.292.544-8.637 1.088-12.765 1.522h-.163c-.435.054-.816.108-1.196.108-.923.109-1.902.164-2.771.327-.488 0-.977.053-1.52.053-2.227.163-4.509.327-6.845.49-2.771.163-5.487.326-7.932.38h-.38c-.435 0-.814 0-1.249.054h-2.065c-.761 0-1.575.054-2.281.054h-4.129c-1.467 0-2.879-.054-4.291-.162-16.515-1.25-32.757-8.746-47.208-22.219-4.943-4.672-9.724-10.05-14.232-16.188-2.174-4.02-4.782-8.149-7.388-12.44zM42.476 101.373a116.799 116.799 0 00-4.454 6.953c1.303-2.118 2.77-4.4 4.454-6.953zM30.117 349.565c12.17 12.169 29.444 21.675 51.39 27.108.055.108.055.217.11.38-.055-.108-.055-.218-.11-.38 27.706 6.898 58.562 6.247 88.277-.435 22.87-5.16 45.089-13.907 64.591-25.587 18.632-11.19 34.876-25.043 46.881-41.014 0 .054 0 .054.055.109v-.109c1.249-1.63 2.39-3.259 3.531-4.944 1.304.435 2.77.978 4.563 1.63.869.326 1.738.706 2.716 1.086a129.985 129.985 0 01-7.551 11.137c-.055-.163-.163-.326-.218-.489.055.163.109.326.218.489-5.975 7.931-12.983 15.537-20.751 22.653-12.44 11.354-26.837 21.567-42.373 30.15-41.069 22.762-90.069 34.659-131.246 29.063-13.093-1.793-24.392-5.215-33.844-9.995-11.517-5.813-20.209-13.69-25.858-22.925-.163-.272-.326-.489-.435-.76a41.134 41.134 0 01-1.63-2.988c-.163-.272-.271-.543-.434-.815l-.815-1.793c0-.055-.055-.108-.055-.163-.977-2.498-2.01-5.215-3.096-7.986-.163-.489-.38-.977-.543-1.467-3.26-8.637-6.682-18.198-9.507-26.618-.055-.108-.054-.217-.108-.326 0 .054.054.109.054.163 3.313 9.017 8.8 17.438 16.188 24.826z" fill="#17171A"/><path d="M570.312 551.551c-16.407-.271-33.03-2.661-49.164-7.333-10.864-3.151-21.458-7.279-31.671-12.494-50.14-25.478-77.139-69.426-74.423-112.125.109-1.358.163-2.77.381-4.074-.055.978-.055 1.955-.11 3.639v.109c5.596 11.082 14.994 20.589 28.032 27.597 9.615 5.161 21.24 8.963 34.604 11.136h.054c39.44 6.356 85.724-3.205 125.652-23.088 18.904-9.344 36.288-21.077 50.792-34.604 7.171-6.573 13.635-13.689 19.231-21.077 19.013-25.315 24.554-50.195 18.198-70.73-.108-.326-.163-.706-.326-.978 0-.055-.054-.108-.054-.163 0-.054-.054-.108-.054-.163a66.383 66.383 0 00-1.359-3.476c.381.814.707 1.684 1.087 2.498.706 1.739 1.358 3.531 2.064 5.216.055.108.055.271.109.38.054.108.108.271.108.38.544 1.575 1.141 3.15 1.739 4.78.489 1.304.923 2.717 1.467 4.129.38 1.195.814 2.336 1.195 3.369 1.955 5.649 4.128 13.037 5.758 19.121.109.652.326 1.249.435 1.793.054.109.054.325.108.434v.163c.055 0 .055.055.055.109 9.018 44.817-22.11 87.679-69.915 113.971-19.665 10.811-42.101 18.851-65.787 23.034-26.89 4.78-55.247 4.726-82.734-1.685h-.054c-29.824-8.148-46.882-21.838-56.823-34.441-8.529-10.919-11.843-21.023-13.582-26.347.381 11.3 3.369 26.999 14.179 43.35 10.811 16.461 29.389 33.573 60.897 47.805h.055a199.297 199.297 0 0044.979 11.3c20.698 2.77 41.124 2.173 60.408-1.141 63.451-11.028 113.918-52.803 117.449-109.354.054-.977.054-2.064.108-3.15v1.195c0 .326.055.652.055.923v.543c.054.815.054 1.63.054 2.445l.109 2.336c0 .38-.055.706-.055.977.055 1.251.055 2.5.055 3.749-.055 2.01-.109 4.075-.272 6.138-.054.544-.054 1.196-.054 1.739-.055.761-.055 1.467-.109 2.119v.869c0 .434 0 .869-.054 1.303v.435c-.055.761-.054 1.467-.109 2.173-.054.761-.109 1.576-.163 2.445v.108c-.054.49-.109.978-.109 1.467-.054.543-.108 1.141-.162 1.684-.055.543-.109 1.196-.164 1.739-.054.651-.108 1.249-.162 1.901 0 .054-.055.163-.055.325-.054.761-.163 1.522-.271 2.282-.055.544-.109 1.195-.272 1.738v.327c-.054.489-.109.923-.163 1.467 0 .271-.054.434-.054.706v.163l-.272 1.575v.109c0 .108-.054.163-.054.271-2.282 15.32-8.421 30.259-18.688 44.003-26.347 35.093-73.174 53.617-122.119 52.856zM237.305.163l-1.304.163c-10.974 1.358-21.784 5.54-31.997 12.385-8.855 5.976-17.275 13.962-24.88 24.066-.923 1.25-1.902 2.662-2.825 3.966-4.889 6.953-9.181 14.558-12.82 22.599-9.833 21.674-15.428 46.609-16.514 72.196a223.518 223.518 0 00.814 30.747c1.521 15.863 4.781 31.507 9.724 46.338 4.129 12.223 9.453 23.903 16.026 34.605 2.553 4.346 5.323 8.366 8.202 12.113 4.347 5.705 8.964 10.866 13.799 15.374 17.112 15.863 36.723 23.74 56.17 23.305.272-.054.544-.109.815-.109l-.76.109h.978c-.38 0-.869 0-1.196.055-24.282 4.291-50.412-2.662-73.554-20.48-6.03-4.564-11.788-9.942-17.329-15.917-3.368-3.749-6.628-7.714-9.941-12.006h-.055v-.054c-8.583-11.625-15.754-24.338-21.403-37.81-7.225-17.275-11.952-35.582-14.07-54.052-4.128-34.985.923-70.295 15.483-98.815 3.313-6.464 7.116-12.603 11.352-18.253 5.814-7.768 12.224-14.233 19.068-19.556 10.811-8.366 22.599-13.69 34.985-16.189.163-.054.435-.108.706-.162l3.639-.544c2.934-.489 5.922-1.086 8.856-1.52 1.466-.164 2.878-.381 4.182-.544.706-.055 1.468-.109 2.174-.163 4.02-.489 8.04-.87 12.114-1.25.706-.054 1.466-.054 2.119-.108 1.141-.109 2.281-.163 3.476-.272.272 0 .544-.054.815-.054h.706c.978-.054 2.064-.109 3.151-.163.87-.055 1.847-.054 2.825-.109 1.521 0 3.15-.054 4.726-.054-1.358.054-2.825.108-4.346.163-1.195-.109-2.607-.055-3.911 0z" fill="#17171A"/></svg>