<svg width="727" height="723" fill="none" xmlns="http://www.w3.org/2000/svg"><path d="M363.487 0a359.737 359.737 0 01-27.662 138.339c-18.265 43.859-45.04 83.711-78.793 117.278-33.754 33.568-73.826 60.195-117.928 78.36A365.196 365.196 0 010 361.487c.007-95.87 38.305-187.812 106.471-255.602C174.636 38.095 267.086.007 363.487 0zm0 723a365.184 365.184 0 00139.115-27.513 363.66 363.66 0 00117.936-78.363c33.754-33.573 60.531-73.424 78.796-117.287A359.707 359.707 0 00727 361.487c-96.407.007-188.866 38.096-257.034 105.893C401.794 535.173 363.494 627.124 363.487 723zM0 361.487a359.757 359.757 0 0027.661 138.342c18.266 43.863 45.04 83.715 78.792 117.283 33.754 33.572 73.825 60.201 117.927 78.371A365.292 365.292 0 00363.487 723c0-95.876-38.295-187.823-106.461-255.62C188.859 399.583 96.405 361.494 0 361.487zM363.487 0c.007 95.874 38.307 187.82 106.479 255.612C538.138 323.403 630.593 361.487 727 361.487c0-47.474-9.404-94.482-27.67-138.341-18.269-43.86-45.046-83.711-78.804-117.278C586.772 72.3 546.7 45.674 502.594 27.509A365.228 365.228 0 00363.487 0z" fill="#1A1B1D"/></svg>