<svg width="1497" height="1211" fill="none" xmlns="http://www.w3.org/2000/svg"><path d="M748.473 0c.007 97.702-19.348 194.448-56.96 284.714-37.611 90.267-92.743 172.285-162.247 241.37-69.503 69.086-152.017 123.887-242.83 161.272C195.625 724.742 98.293 743.98 0 743.973c.014-197.309 78.876-386.534 219.239-526.052C359.601 78.401 549.97.014 748.473 0zm0 1488c98.3.01 195.638-19.23 286.457-56.62 90.82-37.39 173.34-92.2 242.85-161.28 69.5-69.1 124.64-151.12 162.25-241.39 37.62-90.275 56.98-187.028 56.97-284.737-198.52.014-388.9 78.406-529.271 217.938C827.353 1101.44 748.487 1290.68 748.473 1488zM0 743.973a740.052 740.052 0 0056.958 284.717c37.612 90.28 92.743 172.3 162.245 241.38 69.503 69.1 152.016 123.9 242.829 161.3A752.618 752.618 0 00748.473 1488c0-197.32-78.855-386.56-219.219-526.089C388.889 822.379 198.512 743.987 0 743.973zM748.473 0c.014 197.319 78.88 386.551 219.256 526.072C1108.11 665.592 1298.48 743.973 1497 743.973a740.052 740.052 0 00-56.98-284.719c-37.62-90.266-92.75-172.283-162.27-241.369-69.5-69.084-152.01-123.884-242.83-161.269C944.103 19.231 846.765-.007 748.473 0z" fill="#1A1B1D"/></svg>