<svg width="167" height="32" fill="none" xmlns="http://www.w3.org/2000/svg"><path d="M16 0A15.997 15.997 0 010 16 16 16 0 0116 0zm0 32a15.998 15.998 0 0016-16 16.001 16.001 0 00-16 16zM0 16a15.999 15.999 0 0016 16A16 16 0 000 16zM16 0a16 16 0 0016 16A16.002 16.002 0 0016 0z" fill="#79F4E4"/><path d="M41.8 26V7.375h12.425v3H45.2v5.15h7.9v3h-7.9V26h-3.4zm14.648 0V7.375h3.4V26h-3.4zm6.983 0V7.375h2.65l10.25 13.8-1.375.275V7.375h3.4V26H75.68l-10.1-13.9 1.25-.275V26h-3.4zm27.28.3c-1.333 0-2.567-.242-3.7-.725a9.227 9.227 0 01-2.95-2.025 9.372 9.372 0 01-1.95-3.05c-.467-1.167-.7-2.442-.7-3.825s.225-2.658.675-3.825c.467-1.183 1.117-2.2 1.95-3.05a8.833 8.833 0 012.975-2c1.133-.483 2.367-.725 3.7-.725 1.334 0 2.525.225 3.575.675 1.067.45 1.967 1.05 2.7 1.8.733.733 1.258 1.542 1.575 2.425l-3.05 1.425a4.908 4.908 0 00-1.775-2.3c-.833-.617-1.842-.925-3.025-.925-1.166 0-2.2.275-3.1.825-.883.55-1.575 1.308-2.075 2.275-.483.967-.725 2.1-.725 3.4 0 1.3.242 2.442.725 3.425.5.967 1.192 1.725 2.075 2.275.9.55 1.933.825 3.1.825 1.183 0 2.192-.3 3.025-.9.834-.617 1.425-1.392 1.775-2.325l3.05 1.425c-.317.883-.842 1.7-1.575 2.45-.733.733-1.633 1.325-2.7 1.775-1.05.45-2.242.675-3.575.675zm9.085-.3l6.425-18.625h4.4L117.046 26h-3.7l-1.325-4h-7.2l-1.35 4h-3.675zm6-7h5.25l-3.1-9.275h.95l-3.1 9.275zm15.378 7V10.375h-4.825v-3h13v3h-4.75V26h-3.425zm18.243.3c-1.333 0-2.566-.242-3.7-.725a9.233 9.233 0 01-2.95-2.025 9.382 9.382 0 01-1.95-3.05c-.466-1.167-.7-2.442-.7-3.825s.225-2.658.675-3.825c.467-1.183 1.117-2.2 1.95-3.05a8.836 8.836 0 012.975-2c1.134-.483 2.367-.725 3.7-.725 1.334 0 2.525.225 3.575.675 1.067.45 1.967 1.05 2.7 1.8.734.733 1.259 1.542 1.575 2.425l-3.05 1.425a4.904 4.904 0 00-1.775-2.3c-.833-.617-1.841-.925-3.025-.925-1.166 0-2.2.275-3.1.825-.883.55-1.575 1.308-2.075 2.275-.483.967-.725 2.1-.725 3.4 0 1.3.242 2.442.725 3.425.5.967 1.192 1.725 2.075 2.275.9.55 1.934.825 3.1.825 1.184 0 2.192-.3 3.025-.9.834-.617 1.425-1.392 1.775-2.325l3.05 1.425c-.316.883-.841 1.7-1.575 2.45-.733.733-1.633 1.325-2.7 1.775-1.05.45-2.241.675-3.575.675zm10.611-.3V7.375h3.4V15.5h7.925V7.375h3.425V26h-3.425v-7.5h-7.925V26h-3.4z" fill="#EEE"/></svg>