<svg width="161" height="29" fill="none" xmlns="http://www.w3.org/2000/svg"><path d="M14.5 0A14.498 14.498 0 010 14.5 14.5 14.5 0 0114.5 0zm0 29a14.496 14.496 0 0013.396-8.951A14.496 14.496 0 0029 14.499 14.5 14.5 0 0014.5 29zM0 14.5A14.5 14.5 0 0014.5 29 14.5 14.5 0 000 14.5zM14.5 0A14.5 14.5 0 0029 14.5 14.502 14.502 0 0014.5 0z" fill="#E1FFA0"/><path d="M39.625 24V5.875h13.2v2.9H43.2v4.5h9.1v2.9h-9.1V24h-3.575zM58.019 5.875V24h-3.575V5.875h3.575zM76.555 24h-4.65l-7.25-13.825V24H61.28V5.875h4.65L73.18 19.7V5.875h3.375V24zm15.555-5.95h3.4c-.233 1.867-1.066 3.383-2.5 4.55-1.433 1.15-3.216 1.725-5.35 1.725-2.666 0-4.75-.842-6.25-2.525-1.483-1.7-2.224-4.017-2.224-6.95 0-2.867.766-5.133 2.3-6.8 1.55-1.667 3.641-2.5 6.274-2.5 2.117 0 3.859.558 5.225 1.675C94.37 8.342 95.21 9.85 95.51 11.75h-3.4c-.6-2.233-2.058-3.35-4.374-3.35-1.417 0-2.584.567-3.5 1.7-.9 1.133-1.35 2.717-1.35 4.75 0 2.083.441 3.708 1.325 4.875.9 1.167 2.033 1.75 3.4 1.75 2.45 0 3.95-1.142 4.5-3.425zM95.74 24l6.749-18.125h3.6L112.864 24h-3.875l-1.275-3.675h-7.05L99.389 24h-3.65zm8.449-13.75l-2.5 7.15h5l-2.5-7.15zM116.063 24V8.775h-5.575v-2.9h14.75v2.9h-5.6V24h-3.575zm22.215-5.95h3.4c-.234 1.867-1.067 3.383-2.5 4.55-1.434 1.15-3.217 1.725-5.35 1.725-2.667 0-4.75-.842-6.25-2.525-1.484-1.7-2.225-4.017-2.225-6.95 0-2.867.766-5.133 2.3-6.8 1.55-1.667 3.641-2.5 6.275-2.5 2.116 0 3.858.558 5.225 1.675 1.383 1.117 2.225 2.625 2.525 4.525h-3.4c-.6-2.233-2.059-3.35-4.375-3.35-1.417 0-2.584.567-3.5 1.7-.9 1.133-1.35 2.717-1.35 4.75 0 2.083.441 3.708 1.325 4.875.9 1.167 2.033 1.75 3.4 1.75 2.45 0 3.95-1.142 4.5-3.425zm17.368-12.175h3.575V24h-3.575v-7.825h-8.125V24h-3.575V5.875h3.575v7.4h8.125v-7.4z" fill="#F5F6FF"/></svg>