<svg width="133" height="37" fill="none" xmlns="http://www.w3.org/2000/svg"><path d="M14.5 5A14.498 14.498 0 010 19.5 14.5 14.5 0 0114.5 5zm0 29a14.496 14.496 0 0013.396-8.951A14.496 14.496 0 0029 19.499 14.5 14.5 0 0014.5 34zM0 19.5A14.5 14.5 0 0014.5 34 14.5 14.5 0 000 19.5zM14.5 5A14.5 14.5 0 0029 19.5 14.502 14.502 0 0014.5 5z" fill="#242528"/><path d="M38.525 30V9.75h8.325v2.55h-4.625v5.9H46v2.575h-3.775V30h-3.7zm10.354 0V9.75h3.65V30h-3.65zm6.785 0V9.75h2.575l4.925 11.55V9.75h3.05V30h-2.45l-4.95-12.1V30h-3.15zm19.073.275c-1.484 0-2.65-.292-3.5-.875-.834-.583-1.417-1.375-1.75-2.375-.334-1.017-.5-2.183-.5-3.5V16.3c0-1.383.166-2.583.5-3.6.333-1.017.916-1.8 1.75-2.35.85-.55 2.016-.825 3.5-.825 1.4 0 2.491.242 3.275.725a3.844 3.844 0 011.7 2.025c.333.883.5 1.908.5 3.075v1.7h-3.55V15.3c0-.567-.034-1.083-.1-1.55-.05-.467-.209-.833-.475-1.1-.25-.283-.692-.425-1.325-.425-.634 0-1.1.15-1.4.45-.284.283-.467.675-.55 1.175a9.785 9.785 0 00-.125 1.65v8.8c0 .733.058 1.342.175 1.825.116.467.325.825.625 1.075.316.233.741.35 1.275.35.616 0 1.05-.142 1.3-.425.266-.3.433-.692.5-1.175.066-.483.1-1.025.1-1.625V22.5h3.55v1.625c0 1.2-.159 2.267-.475 3.2a4.188 4.188 0 01-1.675 2.175c-.784.517-1.892.775-3.325.775zM81.763 30l4.05-20.25h3.95L93.813 30h-3.425l-.8-4.675h-3.525L85.238 30h-3.475zm4.675-7.025h2.75l-1.375-8.5-1.375 8.5zM96.922 30V12.475h-3.225V9.75h10.1v2.725h-3.175V30h-3.7zm14.07.275c-1.484 0-2.65-.292-3.5-.875-.834-.583-1.417-1.375-1.75-2.375-.334-1.017-.5-2.183-.5-3.5V16.3c0-1.383.166-2.583.5-3.6.333-1.017.916-1.8 1.75-2.35.85-.55 2.016-.825 3.5-.825 1.4 0 2.491.242 3.275.725a3.847 3.847 0 011.7 2.025c.333.883.5 1.908.5 3.075v1.7h-3.55V15.3c0-.567-.034-1.083-.1-1.55-.05-.467-.209-.833-.475-1.1-.25-.283-.692-.425-1.325-.425-.634 0-1.1.15-1.4.45-.284.283-.467.675-.55 1.175a9.712 9.712 0 00-.125 1.65v8.8c0 .733.058 1.342.175 1.825.116.467.325.825.625 1.075.316.233.741.35 1.275.35.616 0 1.05-.142 1.3-.425.266-.3.433-.692.5-1.175.066-.483.1-1.025.1-1.625V22.5h3.55v1.625c0 1.2-.159 2.267-.475 3.2a4.19 4.19 0 01-1.675 2.175c-.784.517-1.892.775-3.325.775zm8.101-.275V9.75h3.675v8.475h4.125V9.75h3.7V30h-3.7v-9.15h-4.125V30h-3.675z" fill="#131217"/></svg>