<svg width="149" height="149" fill="none" xmlns="http://www.w3.org/2000/svg"><g clip-path="url(#clip0_1318_1069)"><path d="M74.497 0A74.492 74.492 0 010 74.497 74.502 74.502 0 0174.497 0zm0 149a74.489 74.489 0 0052.683-21.82A74.494 74.494 0 00149 74.497 74.506 74.506 0 0074.497 149zM0 74.497A74.5 74.5 0 0074.497 149 74.502 74.502 0 000 74.497zM74.497 0A74.502 74.502 0 00149 74.497 74.5 74.5 0 00103.008 5.67 74.5 74.5 0 0074.498 0z" fill="#136655"/></g><defs><clipPath id="clip0_1318_1069"><path fill="#fff" d="M0 0h149v149H0z"/></clipPath></defs></svg>